<?xml version="1.0" standalone="no"?>
<!DOCTYPE svg PUBLIC "-//W3C//DTD SVG 20010904//EN"
 "http://www.w3.org/TR/2001/REC-SVG-20010904/DTD/svg10.dtd">
<svg version="1.0" xmlns="http://www.w3.org/2000/svg"
 width="800.000000pt" height="600.000000pt" viewBox="0 0 800.000000 600.000000"
 preserveAspectRatio="xMidYMid meet">

<g transform="translate(0.000000,600.000000) scale(0.100000,-0.100000)"
fill="#000000" stroke="none">
<path d="M3340 5555 c-11 -13 -7 -27 18 -83 43 -95 68 -182 87 -308 25 -161
30 -169 33 -59 5 138 -26 306 -79 438 -13 30 -40 35 -59 12z"/>
<path d="M4575 5541 c-3 -5 -1 -12 5 -16 5 -3 10 1 10 9 0 18 -6 21 -15 7z"/>
<path d="M4910 5540 c0 -6 7 -10 15 -10 8 0 15 2 15 4 0 2 -7 6 -15 10 -8 3
-15 1 -15 -4z"/>
<path d="M3040 5497 c0 -10 -8 -17 -20 -17 -13 0 -20 -7 -20 -20 0 -11 -6 -20
-12 -21 -7 0 -3 -4 10 -9 12 -5 22 -16 22 -25 0 -18 17 -20 23 -2 3 9 7 9 19
0 17 -15 28 -7 28 19 0 10 5 18 12 18 9 0 9 3 1 11 -6 6 -9 18 -6 27 4 10 2
13 -8 10 -8 -3 -22 1 -31 10 -16 14 -18 13 -18 -1z"/>
<path d="M3852 5497 c-8 -9 -21 -13 -29 -10 -12 5 -15 2 -11 -9 4 -9 1 -21 -5
-28 -9 -10 -9 -14 1 -17 6 -3 12 -13 12 -24 0 -21 26 -26 33 -6 3 8 9 6 20 -8
15 -20 16 -20 26 7 7 19 15 26 26 22 8 -3 15 -2 15 4 0 5 -7 12 -15 16 -8 3
-12 12 -9 21 5 11 -1 15 -19 15 -16 0 -27 6 -29 17 -3 15 -4 15 -16 0z"/>
<path d="M4440 5390 c0 -5 15 -10 33 -10 19 0 56 -7 82 -15 27 -8 51 -12 53
-10 5 5 -126 45 -149 45 -10 0 -19 -4 -19 -10z"/>
<path d="M5020 5390 l-25 -8 27 -1 c15 -1 30 4 33 9 7 11 0 11 -35 0z"/>
<path d="M4367 5345 c-7 -16 4 -30 23 -30 16 0 30 14 30 31 0 15 -48 15 -53
-1z"/>
<path d="M5075 5350 c4 -6 11 -8 16 -5 14 9 11 15 -7 15 -8 0 -12 -5 -9 -10z"/>
<path d="M4948 5253 c7 -3 16 -2 19 1 4 3 -2 6 -13 5 -11 0 -14 -3 -6 -6z"/>
<path d="M4421 5234 c-57 -15 -68 -20 -59 -29 3 -3 18 0 34 6 16 7 52 18 79
25 28 7 39 12 25 12 -14 1 -50 -6 -79 -14z"/>
<path d="M5038 5234 c29 -7 62 -18 72 -24 23 -12 40 -13 40 -1 0 9 -117 41
-147 40 -10 0 6 -7 35 -15z"/>
<path d="M2709 5124 c-26 -32 1 -48 92 -57 104 -9 226 -39 343 -83 49 -19 91
-32 93 -30 6 6 -69 49 -151 86 -70 32 -303 100 -341 100 -13 0 -28 -7 -36 -16z"/>
<path d="M3596 5079 c-10 -33 -16 -63 -13 -65 2 -2 11 24 21 57 9 34 15 63 13
66 -2 2 -12 -24 -21 -58z"/>
<path d="M4125 5133 c-163 -35 -343 -103 -421 -158 -44 -31 -37 -30 100 20
123 44 210 64 317 73 69 6 84 10 87 25 7 38 -25 53 -83 40z"/>
<path d="M3308 5070 c9 -27 17 -48 19 -46 7 6 -19 96 -27 96 -5 0 -1 -22 8
-50z"/>
<path d="M4567 5047 c-30 -51 -46 -104 -28 -93 6 4 11 14 11 22 0 8 11 37 25
64 31 61 26 65 -8 7z"/>
<path d="M2580 5060 c-9 -16 -18 -21 -37 -17 -22 4 -24 2 -20 -19 2 -13 -2
-29 -9 -35 -18 -15 -18 -29 -1 -29 8 0 18 -16 23 -36 l9 -36 26 21 26 20 12
-26 c13 -29 27 -22 33 17 2 19 10 26 33 30 28 5 29 6 10 17 -14 8 -19 20 -17
43 2 27 0 31 -15 25 -31 -12 -37 -10 -41 10 -7 33 -19 39 -32 15z"/>
<path d="M4250 5069 c0 -6 -9 -9 -20 -6 -14 4 -20 0 -20 -12 0 -9 -5 -22 -12
-29 -9 -9 -7 -13 5 -18 9 -3 17 -15 17 -25 0 -20 15 -26 25 -9 9 15 25 12 25
-5 0 -25 17 -17 24 11 5 17 12 24 21 20 8 -3 17 -1 20 3 3 5 -2 12 -11 15 -11
4 -13 13 -9 27 6 19 4 21 -19 15 -19 -5 -26 -3 -26 9 0 8 -4 15 -10 15 -5 0
-10 -5 -10 -11z"/>
<path d="M4887 4985 c3 -22 9 -44 14 -49 14 -16 10 25 -6 59 l-14 30 6 -40z"/>
<path d="M4155 4950 c-3 -5 -1 -10 4 -10 6 0 11 5 11 10 0 6 -2 10 -4 10 -3 0
-8 -4 -11 -10z"/>
<path d="M4580 4950 c-18 -11 -4 -42 17 -38 10 2 19 10 21 19 4 19 -19 31 -38
19z"/>
<path d="M4073 4943 c9 -2 23 -2 30 0 6 3 -1 5 -18 5 -16 0 -22 -2 -12 -5z"/>
<path d="M4003 4933 c9 -2 23 -2 30 0 6 3 -1 5 -18 5 -16 0 -22 -2 -12 -5z"/>
<path d="M3958 4923 c7 -3 16 -2 19 1 4 3 -2 6 -13 5 -11 0 -14 -3 -6 -6z"/>
<path d="M2883 4779 c-93 -11 -261 -45 -326 -67 -39 -13 -53 -22 -55 -39 -6
-38 30 -47 86 -22 120 54 255 89 432 111 78 9 97 14 75 19 -41 9 -125 8 -212
-2z"/>
<path d="M3815 4782 c-31 -8 -22 -10 130 -28 122 -14 263 -53 378 -103 56 -24
90 -15 85 22 -2 17 -16 26 -56 39 -149 50 -457 90 -537 70z"/>
<path d="M4973 4689 c-8 -8 -3 -28 17 -72 30 -66 60 -186 60 -237 0 -20 4 -29
11 -25 14 9 4 113 -22 223 -26 115 -40 137 -66 111z"/>
<path d="M4759 4643 c-22 -5 -33 -43 -13 -43 8 0 14 -4 14 -8 0 -15 38 -8 49
10 8 13 7 21 -5 33 -16 15 -17 16 -45 8z"/>
<path d="M5297 4635 c-21 -21 -10 -54 16 -52 20 1 47 19 47 31 0 8 -31 36 -40
36 -5 0 -15 -7 -23 -15z"/>
<path d="M2965 4609 c-22 -10 -29 -16 -16 -13 37 10 88 33 71 33 -8 0 -33 -9
-55 -20z"/>
<path d="M3929 4609 c24 -11 46 -18 48 -15 4 4 -73 36 -85 35 -4 0 13 -9 37
-20z"/>
<path d="M2785 4500 c-3 -6 1 -7 9 -4 18 7 21 14 7 14 -6 0 -13 -4 -16 -10z"/>
<path d="M6192 4489 c-137 -68 -135 -237 3 -304 137 -67 305 14 305 147 0 54
-16 91 -52 125 -59 56 -178 70 -256 32z m100 -91 l3 -43 48 -3 47 -3 0 -49 c0
-60 -14 -70 -95 -70 -89 0 -95 6 -95 103 0 93 8 107 56 107 31 0 33 -2 36 -42z
m56 2 c17 -16 32 -32 32 -35 0 -4 -17 -5 -37 -3 -35 3 -38 6 -41 36 -4 39 4
40 46 2z"/>
<path d="M6273 4323 c15 -2 37 -2 50 0 12 2 0 4 -28 4 -27 0 -38 -2 -22 -4z"/>
<path d="M6273 4283 c15 -2 37 -2 50 0 12 2 0 4 -28 4 -27 0 -38 -2 -22 -4z"/>
<path d="M3091 4408 c-54 -66 -115 -171 -158 -268 -27 -63 -30 -77 -19 -88 25
-26 51 2 71 73 20 75 77 197 129 280 45 70 33 71 -23 3z"/>
<path d="M3663 4428 c65 -143 117 -310 117 -373 0 -17 5 -36 12 -43 15 -15 45
-16 53 -2 16 25 -78 278 -137 368 -37 56 -59 81 -45 50z"/>
<path d="M3990 4366 c19 -23 47 -57 62 -76 15 -19 27 -30 27 -25 1 6 -27 40
-62 76 -34 36 -46 48 -27 25z"/>
<path d="M4557 4403 c-20 -19 -3 -32 51 -38 84 -10 170 -31 226 -55 27 -11 51
-18 53 -16 10 10 -123 68 -210 91 -99 27 -110 29 -120 18z"/>
<path d="M5432 4389 c-91 -24 -197 -67 -212 -84 -6 -7 25 -1 74 16 46 16 119
34 162 39 80 10 102 20 90 39 -10 15 -28 13 -114 -10z"/>
<path d="M5569 4362 c-18 -3 -34 -42 -18 -42 5 0 9 -6 9 -14 0 -8 8 -13 18
-12 32 2 59 56 28 56 -8 0 -16 4 -18 8 -1 4 -10 6 -19 4z"/>
<path d="M3403 4325 c0 -22 2 -30 4 -17 2 12 2 30 0 40 -3 9 -5 -1 -4 -23z"/>
<path d="M4465 4351 c-4 -7 -13 -10 -20 -7 -8 3 -15 -6 -18 -22 -3 -15 -1 -28
4 -30 5 -2 9 -12 9 -23 0 -21 16 -26 23 -6 3 8 9 6 19 -7 14 -18 15 -18 22 8
5 19 12 26 21 22 8 -3 15 -1 15 4 0 6 -5 10 -11 10 -7 0 -9 9 -6 21 5 17 2 20
-14 16 -11 -3 -23 1 -28 10 -6 12 -10 12 -16 4z"/>
<path d="M4679 4169 c-112 -12 -256 -48 -263 -65 -8 -22 22 -29 58 -14 68 28
190 60 252 66 41 4 61 10 52 15 -7 5 -15 8 -18 8 -3 -1 -39 -5 -81 -10z"/>
<path d="M5322 4171 c-9 -5 17 -12 70 -19 46 -7 93 -14 106 -18 15 -4 22 -2
22 8 0 11 -22 18 -82 26 -98 14 -99 14 -116 3z"/>
<path d="M5530 4139 c0 -14 103 -59 134 -59 31 0 12 34 -25 47 -68 22 -109 26
-109 12z"/>
<path d="M3068 4081 c-12 -17 -22 -21 -37 -16 -18 5 -21 2 -21 -19 0 -14 -4
-28 -10 -31 -15 -10 -12 -35 5 -35 9 0 15 -9 15 -24 0 -34 17 -42 41 -20 17
16 22 16 29 4 6 -8 10 -18 10 -22 0 -22 21 -4 27 22 4 25 10 30 34 30 34 0 39
16 8 25 -17 6 -19 12 -14 37 7 29 6 30 -23 23 -26 -5 -31 -3 -39 21 l-9 28
-16 -23z"/>
<path d="M6346 4061 c-25 -28 -17 -64 17 -75 34 -12 61 1 65 33 4 26 -24 61
-48 61 -9 0 -25 -9 -34 -19z"/>
<path d="M5445 4002 c-194 -91 -124 -334 95 -334 117 0 200 74 200 180 0 60
-39 119 -96 147 -56 27 -149 30 -199 7z m145 -108 c11 -12 10 -18 -5 -32 -13
-13 -19 -14 -22 -4 -3 7 -23 12 -53 12 -38 0 -51 -4 -63 -22 -15 -22 -16 -22
-16 -3 -1 34 19 45 82 45 36 0 56 4 52 10 -10 16 11 11 25 -6z m60 -52 c0 -26
-30 -45 -81 -50 -30 -2 -56 -8 -59 -13 -3 -4 -14 -1 -25 7 -18 14 -18 15 -1
32 14 12 20 14 23 5 3 -8 24 -13 54 -13 38 0 52 4 61 20 13 20 28 27 28 12z"/>
<path d="M7014 3996 c-61 -28 -95 -72 -102 -131 -6 -57 2 -86 34 -125 94 -111
306 -90 360 37 67 157 -121 299 -292 219z m168 -105 c32 -29 32 -30 15 -48
-18 -17 -19 -17 -32 0 -12 17 -16 15 -52 -23 -51 -56 -71 -66 -90 -47 -14 14
-9 20 41 59 58 45 70 68 35 68 -11 0 -17 5 -14 10 13 20 65 10 97 -19z"/>
<path d="M4795 3908 c-30 -36 -105 -180 -105 -203 0 -32 27 -13 39 28 7 23 32
79 56 125 24 45 42 82 40 82 -2 0 -15 -14 -30 -32z"/>
<path d="M5216 3870 c14 -36 34 -96 44 -135 19 -75 43 -103 33 -38 -8 52 -59
182 -83 213 -17 21 -16 15 6 -40z"/>
<path d="M6273 3753 l-62 -4 -3 -79 -3 -80 49 0 c41 0 47 -2 36 -15 -13 -16
-6 -35 15 -35 21 0 28 19 15 35 -11 13 2 15 91 15 80 0 100 3 91 12 -7 7 -12
40 -12 80 l0 68 -42 0 c-24 0 -59 2 -78 4 -19 1 -63 1 -97 -1z m13 -104 c3 -6
-1 -18 -9 -27 -13 -12 -19 -13 -31 -3 -8 7 -12 19 -9 27 6 17 39 19 49 3z"/>
<path d="M6795 3725 c-40 -39 -30 -92 23 -114 36 -15 75 -2 98 34 30 45 -14
105 -77 105 -11 0 -31 -11 -44 -25z"/>
<path d="M4791 3694 c0 -11 3 -14 6 -6 3 7 2 16 -1 19 -3 4 -6 -2 -5 -13z"/>
<path d="M6554 3697 c-3 -8 -4 -45 -2 -83 l3 -69 40 0 40 0 3 83 3 82 -41 0
c-25 0 -43 -5 -46 -13z m56 -132 c0 -8 -6 -15 -14 -15 -17 0 -28 14 -19 24 12
12 33 6 33 -9z"/>
<path d="M4760 3680 c0 -5 5 -10 10 -10 6 0 10 5 10 10 0 6 -4 10 -10 10 -5 0
-10 -4 -10 -10z"/>
<path d="M1740 3202 c-6 -31 -13 -68 -15 -82 -2 -14 -9 -51 -15 -82 l-11 -58
-56 0 c-49 0 -59 -4 -87 -32 -44 -45 -61 -132 -53 -277 9 -152 38 -243 103
-320 113 -135 246 -33 329 254 61 212 36 303 -95 344 -25 8 -47 16 -48 17 -2
1 6 64 19 138 12 75 20 138 18 140 -2 2 -21 6 -41 9 l-37 6 -11 -57z"/>
<path d="M3619 3233 l-24 -28 28 24 c25 23 32 31 24 31 -2 0 -14 -12 -28 -27z"/>
<path d="M6752 3239 c-111 -55 -134 -180 -49 -265 84 -84 222 -86 308 -4 87
83 63 212 -52 270 -53 28 -150 27 -207 -1z m198 -90 c0 -25 -15 -53 -52 -100
-27 -33 -34 -37 -80 -37 -47 0 -49 2 -44 23 3 13 1 25 -5 27 -25 8 9 41 75 73
83 41 106 44 106 14z"/>
<path d="M6866 3121 c-8 -12 21 -34 34 -26 17 11 11 35 -9 35 -11 0 -22 -4
-25 -9z m34 -11 c0 -5 -4 -10 -10 -10 -5 0 -10 5 -10 10 0 6 5 10 10 10 6 0
10 -4 10 -10z"/>
<path d="M4263 3223 c48 -2 125 -2 170 0 45 1 6 3 -88 3 -93 0 -130 -2 -82 -3z"/>
<path d="M5750 3214 c-151 -65 -150 -255 2 -319 153 -63 332 63 289 205 -15
52 -44 85 -94 109 -52 25 -145 28 -197 5z m85 -154 c0 -82 -2 -95 -17 -98 -16
-3 -18 7 -18 98 0 91 2 101 18 98 15 -3 17 -16 17 -98z m105 -20 c0 -73 -2
-80 -20 -80 -18 0 -20 7 -20 80 0 73 2 80 20 80 18 0 20 -7 20 -80z m-52 -23
c3 -52 1 -57 -18 -57 -18 0 -20 6 -20 53 0 30 3 57 7 61 17 16 28 -5 31 -57z
m-108 -17 c0 -33 -3 -40 -20 -40 -16 0 -20 7 -20 33 0 36 6 47 27 47 9 0 13
-13 13 -40z"/>
<path d="M3532 3190 c-19 -4 -37 -12 -42 -16 -4 -5 -6 -53 -3 -108 l6 -99 81
7 c44 4 84 12 89 19 8 12 2 142 -9 170 -5 15 -55 38 -78 36 -6 -1 -26 -5 -44
-9z m118 -90 c0 -6 -28 -10 -65 -10 -37 0 -65 4 -65 10 0 6 28 10 65 10 37 0
65 -4 65 -10z m0 -29 c0 -10 -120 -20 -126 -10 -8 13 12 19 68 19 32 0 58 -4
58 -9z"/>
<path d="M4185 3190 c-4 -6 8 -10 30 -10 22 0 34 4 30 10 -3 6 -17 10 -30 10
-13 0 -27 -4 -30 -10z"/>
<path d="M4185 3150 c3 -5 37 -10 76 -10 39 0 69 4 69 10 0 6 -32 10 -76 10
-47 0 -73 -4 -69 -10z"/>
<path d="M4014 3095 c-39 -16 -57 -40 -57 -75 0 -33 26 -68 62 -81 31 -12 86
6 106 34 48 69 -31 156 -111 122z"/>
<path d="M3000 2927 c-14 -8 -24 -20 -22 -28 2 -7 3 -51 3 -96 l-1 -83 84 0
c67 0 85 3 90 16 8 20 8 132 0 161 -11 39 -103 56 -154 30z m80 -77 c0 -5 -16
-10 -35 -10 -19 0 -35 5 -35 10 0 6 16 10 35 10 19 0 35 -4 35 -10z m55 -40
c-3 -5 -33 -10 -66 -10 -33 0 -59 4 -59 10 0 6 29 10 66 10 41 0 63 -4 59 -10z"/>
<path d="M3218 2843 c6 -2 18 -2 25 0 6 3 1 5 -13 5 -14 0 -19 -2 -12 -5z"/>
<path d="M3268 2833 c7 -3 16 -2 19 1 4 3 -2 6 -13 5 -11 0 -14 -3 -6 -6z"/>
<path d="M3375 2791 c28 -16 68 -48 90 -70 21 -23 43 -41 47 -41 4 0 -11 19
-34 42 -45 43 -124 98 -142 98 -6 0 12 -13 39 -29z"/>
<path d="M2904 2772 c-77 -56 -155 -172 -153 -227 0 -11 6 -1 14 22 26 85 83
159 165 215 14 9 22 17 19 17 -3 1 -24 -12 -45 -27z"/>
<path d="M3591 2687 c2 -1 13 -9 24 -17 19 -14 19 -14 6 3 -7 9 -18 17 -24 17
-6 0 -8 -1 -6 -3z"/>
<path d="M5520 2594 l0 -55 48 3 47 3 3 53 3 52 -50 0 -51 0 0 -56z"/>
<path d="M3632 2620 c0 -14 2 -19 5 -12 2 6 2 18 0 25 -3 6 -5 1 -5 -13z"/>
<path d="M3528 2583 c12 -2 30 -2 40 0 9 3 -1 5 -23 4 -22 0 -30 -2 -17 -4z"/>
<path d="M3598 2583 c7 -3 16 -2 19 1 4 3 -2 6 -13 5 -11 0 -14 -3 -6 -6z"/>
<path d="M2280 2550 c0 -6 60 -10 160 -10 100 0 160 4 160 10 0 6 -60 10 -160
10 -100 0 -160 -4 -160 -10z"/>
<path d="M3538 2543 c18 -2 45 -2 60 0 15 2 0 4 -33 4 -33 0 -45 -2 -27 -4z"/>
<path d="M4593 2530 c-12 -5 -29 -23 -38 -40 -44 -86 67 -159 144 -94 38 31
41 71 9 109 -25 28 -79 40 -115 25z"/>
<path d="M3471 2514 c0 -11 3 -14 6 -6 3 7 2 16 -1 19 -3 4 -6 -2 -5 -13z"/>
<path d="M2293 2513 c9 -2 25 -2 35 0 9 3 1 5 -18 5 -19 0 -27 -2 -17 -5z"/>
<path d="M2742 2479 c-2 -38 -6 -48 -27 -57 -24 -11 -45 -47 -45 -77 0 -7 12
-27 26 -44 22 -26 33 -31 70 -31 34 0 51 6 69 25 33 32 31 56 -8 80 -18 11
-33 30 -35 43 -2 14 -10 22 -22 22 -15 0 -20 9 -23 43 l-4 42 -1 -46z"/>
<path d="M2345 2480 l-70 -6 78 -2 c50 -1 76 2 72 8 -3 6 -7 9 -8 8 -1 -1 -33
-4 -72 -8z"/>
<path d="M4760 2320 c0 -6 62 -10 165 -10 103 0 165 4 165 10 0 6 -62 10 -165
10 -103 0 -165 -4 -165 -10z"/>
<path d="M4764 2282 c5 -9 53 -8 63 1 3 4 -10 7 -31 7 -20 0 -35 -4 -32 -8z"/>
<path d="M3161 2234 c0 -11 3 -14 6 -6 3 7 2 16 -1 19 -3 4 -6 -2 -5 -13z"/>
<path d="M4798 2243 c23 -2 59 -2 80 0 20 2 1 4 -43 4 -44 0 -61 -2 -37 -4z"/>
<path d="M3170 2203 c0 -16 31 -95 36 -90 2 2 -5 25 -16 53 -10 27 -19 43 -20
37z"/>
<path d="M1088 2133 c-14 -2 -32 -11 -39 -20 -14 -16 -17 -101 -6 -145 6 -22
4 -28 -8 -28 -8 0 -15 -7 -15 -15 0 -8 -27 -36 -59 -61 -85 -66 -92 -117 -35
-283 29 -84 35 -116 32 -159 -3 -29 -1 -55 4 -58 5 -3 6 -19 3 -35 -4 -17 -2
-29 3 -29 24 0 57 -165 54 -269 -1 -47 -3 -124 -4 -171 -1 -47 4 -107 11 -135
7 -27 15 -62 18 -78 3 -15 9 -27 13 -27 4 0 6 -21 6 -46 -1 -58 27 -87 77 -77
18 3 33 6 34 7 1 1 -7 26 -17 56 -11 30 -19 72 -20 92 0 20 -5 40 -11 44 -19
11 13 440 33 447 9 3 58 -89 58 -109 0 -9 8 -29 17 -44 14 -24 15 -34 5 -54
-6 -15 -7 -26 -2 -26 5 0 11 15 14 33 33 228 58 373 66 381 15 15 12 41 -9 78
-10 18 -21 50 -24 72 -6 40 -4 41 46 21 13 -5 17 -2 17 12 0 12 11 25 26 32
25 11 26 13 9 30 -9 11 -27 22 -39 25 -24 6 -68 85 -81 146 -4 19 -13 47 -21
61 -17 33 -77 79 -103 79 -14 0 -21 6 -21 20 0 14 7 20 23 20 39 1 77 45 77
89 0 14 6 21 19 21 35 0 34 32 -1 66 -34 32 -87 46 -150 37z"/>
<path d="M3232 2058 c13 -23 43 -62 68 -88 38 -39 39 -40 9 -5 -20 23 -48 62
-63 88 -34 58 -46 62 -14 5z"/>
<path d="M4449 1983 c-13 -16 -12 -17 4 -4 9 7 17 15 17 17 0 8 -8 3 -21 -13z"/>
<path d="M4656 1940 c-39 -12 -86 -59 -86 -85 0 -33 -31 -55 -77 -55 -55 0
-87 -28 -109 -93 -22 -67 -49 -105 -80 -113 -32 -8 -30 -20 6 -39 71 -37 127
-3 139 85 4 31 10 61 14 67 4 6 32 25 63 42 53 29 57 29 80 14 16 -10 46 -16
81 -16 49 0 60 4 80 27 17 20 23 39 23 72 0 58 -12 79 -51 93 -36 13 -43 13
-83 1z"/>
<path d="M3375 1890 c10 -11 20 -20 23 -20 3 0 -3 9 -13 20 -10 11 -20 20 -23
20 -3 0 3 -9 13 -20z"/>
<path d="M3410 1866 c0 -2 8 -10 18 -17 15 -13 16 -12 3 4 -13 16 -21 21 -21
13z"/>
<path d="M2723 1842 c-12 -9 -26 -29 -32 -43 -14 -37 8 -107 40 -126 24 -14
24 -14 -9 -8 -38 8 -48 -8 -32 -50 8 -20 7 -37 0 -61 -14 -43 2 -81 47 -109
32 -19 33 -22 30 -80 l-2 -60 -65 -6 c-36 -3 -74 -10 -84 -16 -18 -10 -18 -11
5 -24 29 -17 285 -20 311 -4 30 18 4 37 -58 44 l-59 6 -3 63 c-3 58 -1 63 22
72 39 14 59 53 52 97 -8 47 -8 59 0 104 5 29 1 39 -20 60 -32 30 -32 39 -3 40
18 1 18 2 4 6 -10 3 -16 10 -14 17 4 9 -3 12 -21 8 l-27 -4 30 26 c17 14 23
23 14 20 -10 -3 -19 2 -23 12 -5 12 -2 15 10 10 14 -5 15 -4 4 9 -17 21 -89
19 -117 -3z"/>
<path d="M3764 1790 l-31 -10 1 -100 1 -101 85 3 85 3 5 65 c7 86 3 108 -23
125 -30 19 -86 26 -123 15z m66 -90 c0 -5 -13 -10 -29 -10 -17 0 -33 5 -36 10
-4 6 8 10 29 10 20 0 36 -4 36 -10z m60 -30 c0 -6 -29 -10 -66 -10 -41 0 -63
4 -59 10 3 6 33 10 66 10 33 0 59 -4 59 -10z"/>
<path d="M6794 1786 c-3 -8 -4 -25 -2 -38 2 -19 10 -24 41 -26 l38 -3 -3 38
c-3 35 -6 38 -36 41 -21 2 -34 -2 -38 -12z"/>
<path d="M5982 1773 c-27 -11 3 -23 58 -23 58 0 85 12 54 24 -18 7 -93 7 -112
-1z"/>
<path d="M4688 1690 c-23 -24 -29 -37 -25 -58 3 -15 -3 -88 -14 -162 -11 -74
-17 -151 -14 -171 4 -22 2 -40 -4 -44 -15 -9 -14 -36 3 -49 11 -9 -1 -48 -65
-220 -43 -115 -76 -213 -73 -217 3 -5 -5 -18 -17 -30 l-22 -22 59 -28 c32 -16
60 -29 62 -29 1 0 2 9 2 19 0 11 -12 29 -27 40 -25 19 -26 22 -12 34 9 6 67
95 129 197 130 212 119 195 125 188 8 -7 47 -366 47 -425 l0 -53 64 0 c62 0
64 1 54 20 -7 13 -21 20 -39 20 -34 0 -44 9 -30 27 7 7 22 122 36 256 25 254
23 320 -13 389 -8 16 -12 28 -8 28 15 0 69 -54 74 -74 7 -25 47 -34 56 -13 3
9 -2 26 -10 39 -9 14 -14 27 -11 30 3 3 -21 32 -55 63 -51 50 -63 68 -80 124
-20 66 -44 102 -90 134 -36 25 -68 21 -102 -13z m17 -327 c-9 -37 -18 -20 -9
19 4 18 9 27 11 20 3 -7 2 -24 -2 -39z"/>
<path d="M5947 1714 c-19 -19 1 -24 94 -24 76 0 100 3 97 13 -5 13 -178 23
-191 11z"/>
<path d="M5940 1655 c0 -12 18 -15 100 -15 82 0 100 3 100 15 0 12 -18 15
-100 15 -82 0 -100 -3 -100 -15z"/>
<path d="M1527 1523 c-4 -3 -7 -15 -7 -25 0 -15 5 -18 23 -13 34 11 44 24 27
35 -18 11 -34 13 -43 3z"/>
<path d="M5338 1403 c-8 -10 -20 -27 -26 -38 -10 -17 -11 -17 -12 -3 0 26 -37
42 -66 29 -37 -17 -29 -53 17 -77 40 -20 36 -34 -8 -34 -75 0 -146 -35 -113
-55 23 -14 194 -26 288 -20 l103 7 -3 32 c-3 30 -5 31 -51 34 l-48 3 31 29
c51 48 27 91 -32 57 -39 -22 -51 -21 -37 2 25 39 -13 69 -43 34z"/>
<path d="M183 1375 c-37 -37 -37 -33 -21 -155 2 -15 17 -34 38 -49 19 -12 27
-20 17 -17 -70 23 -70 23 -63 -30 7 -60 7 -68 0 -125 -7 -59 14 -104 62 -126
l35 -17 -3 -81 -3 -80 -77 -7 c-80 -7 -123 -22 -113 -38 26 -42 424 -41 450 1
10 15 -44 30 -130 37 l-80 7 -3 82 c-3 81 -2 83 23 89 60 15 100 106 72 164
-14 26 -14 34 -1 58 7 15 14 35 14 44 0 31 -31 97 -48 101 -10 3 -6 5 9 6 33
1 51 47 30 79 -7 12 -14 11 -41 -3 -44 -23 -47 -13 -5 17 l36 25 -31 27 c-25
20 -42 26 -82 26 -44 0 -54 -4 -85 -35z"/>
<path d="M5530 1245 c0 -19 5 -25 23 -25 13 0 32 6 43 14 18 14 18 15 -9 25
-44 17 -57 14 -57 -14z"/>
<path d="M1941 1092 c-38 -34 -42 -41 -32 -60 10 -18 64 -42 97 -42 16 0 44
-34 44 -54 0 -9 11 -22 25 -28 22 -10 23 -13 11 -27 -36 -40 -23 -121 20 -121
22 0 64 -30 64 -46 0 -17 7 -18 -92 6 -103 25 -130 25 -152 1 -19 -21 -14 -41
22 -90 14 -19 22 -36 16 -38 -40 -14 -59 -31 -62 -56 -5 -40 9 -52 88 -77 77
-25 91 -35 60 -45 -39 -12 -19 -25 40 -25 32 0 71 -5 85 -12 22 -10 28 -9 35
2 7 12 12 12 21 3 10 -10 9 -17 -5 -31 -16 -19 -16 -20 5 -25 11 -3 32 -2 45
3 24 10 30 39 27 132 0 18 5 28 18 31 24 6 65 95 51 109 -5 5 -38 20 -73 33
l-64 24 46 0 c62 1 84 18 76 63 -9 61 -67 193 -108 247 -21 28 -39 58 -39 66
0 8 -25 31 -57 51 -44 30 -68 39 -112 42 -53 4 -58 2 -100 -36z"/>
<path d="M4094 992 c-39 -25 -58 -70 -50 -119 4 -21 8 -49 10 -62 1 -14 14
-30 30 -38 35 -19 29 -25 -12 -14 -32 9 -32 9 -32 -25 0 -20 5 -44 11 -55 8
-16 7 -30 -5 -59 -12 -30 -13 -45 -4 -74 12 -38 58 -86 84 -86 11 0 14 -18 14
-85 l0 -85 -52 -1 c-64 -1 -140 -20 -145 -35 -11 -34 306 -54 405 -25 78 22
42 49 -81 59 l-82 7 -3 77 c-3 75 -2 77 25 92 68 35 95 98 69 160 -13 32 -13
39 1 66 20 42 -3 134 -37 144 -8 2 -3 4 11 5 29 1 45 36 34 72 -8 23 -15 24
-41 4 -10 -8 -26 -15 -34 -15 -8 0 3 12 24 26 l38 26 -25 26 c-35 34 -109 41
-153 14z"/>
<path d="M1215 723 c-4 -10 -10 -48 -14 -85 -6 -62 -5 -67 14 -72 11 -3 23 -6
26 -6 3 0 2 24 -3 53 -4 28 -7 66 -6 84 3 37 -6 52 -17 26z"/>
<path d="M1366 582 c-10 -9 -7 -52 3 -52 5 0 22 5 36 10 22 8 25 13 16 24 -13
16 -47 27 -55 18z"/>
<path d="M1280 496 c0 -53 10 -106 20 -106 7 0 30 99 30 132 0 13 -7 18 -25
18 -23 0 -25 -4 -25 -44z"/>
</g>
</svg>
