<?xml version="1.0" encoding="utf-8"?>
<!-- Generator: Adobe Illustrator 16.0.0, SVG Export Plug-In . SVG Version: 6.00 Build 0)  -->
<!DOCTYPE svg PUBLIC "-//W3C//DTD SVG 1.1//EN" "http://www.w3.org/Graphics/SVG/1.1/DTD/svg11.dtd">
<svg version="1.1" id="Layer_1" xmlns="http://www.w3.org/2000/svg" xmlns:xlink="http://www.w3.org/1999/xlink" x="0px" y="0px"
	 width="730.543px" height="538.451px" viewBox="0 0 730.543 538.451" enable-background="new 0 0 730.543 538.451"
	 xml:space="preserve">
<path opacity="0.8" fill="#842661" d="M194.241,272.758c11.849,0,21.455,10.047,21.455,22.435c0,12.392-9.605,22.439-21.455,22.439
	s-21.457-10.048-21.457-22.439C172.785,282.805,182.392,272.758,194.241,272.758z"/>
<ellipse opacity="0.6" fill="#842661" cx="158.302" cy="322.677" rx="14.482" ry="15.144"/>
<ellipse fill="#E97D3E" cx="172.785" cy="274.633" rx="15.348" ry="13.802"/>
<ellipse opacity="0.6" fill="#842661" cx="636.23" cy="446.628" rx="21.457" ry="22.434"/>
<ellipse fill="#E97D3E" cx="120.754" cy="181.339" rx="8.047" ry="8.413"/>
<ellipse opacity="0.8" fill="#842661" cx="212.121" cy="259.298" rx="18.848" ry="19.859"/>
<path opacity="0.7" fill="#E97D3E" d="M506.422,449.995c14.221,0,25.749,12.052,25.749,26.92c0,14.869-11.528,26.921-25.749,26.921
	c-14.217,0-25.747-12.052-25.747-26.921C480.675,462.046,492.205,449.995,506.422,449.995z"/>
<ellipse opacity="0.7" fill="#E97D3E" cx="605.118" cy="337.821" rx="13.946" ry="14.581"/>
<path opacity="0.6" fill="#842661" d="M501.062,177.412c15.402,0,27.889,13.059,27.889,29.166c0,16.108-12.486,29.164-27.889,29.164
	c-15.406,0-27.896-13.056-27.896-29.164C473.166,190.47,485.655,177.412,501.062,177.412z"/>
<ellipse opacity="0.5" fill="#E97D3E" cx="245.199" cy="128.616" rx="13.41" ry="14.022"/>
<ellipse opacity="0.1" fill="#E97D3E" cx="202.287" cy="407.928" rx="13.409" ry="14.022"/>
<ellipse opacity="0.8" fill="#E97D3E" cx="634.62" cy="245.276" rx="13.411" ry="14.022"/>
<ellipse fill="#E97D3E" cx="613.165" cy="483.085" rx="14.482" ry="15.144"/>
<ellipse fill="#E97D3E" cx="645.349" cy="490.936" rx="8.046" ry="8.414"/>
<title>PP</title>
<path fill="#842761" d="M332.139,512.192L54.734,361.798c-8.829-4.545-16.408-12.006-7.795-16.919l278.407-147.252
	c4.184-2.378,10.528-3.936,14.773-1.67l291.203,155.096c8.83,4.701,10.419,17.84,1.543,22.555L368.751,511.952
	C357.455,517.974,343.528,518.066,332.139,512.192z"/>
<linearGradient id="SVGID_1_" gradientUnits="userSpaceOnUse" x1="625.5615" y1="753.2085" x2="659.9493" y2="787.8427" gradientTransform="matrix(1 0 0 -1 -108.8999 1163.7646)">
	<stop  offset="0" style="stop-color:#FCC49F;stop-opacity:0"/>
	<stop  offset="1" style="stop-color:#662D91"/>
</linearGradient>
<path fill="url(#SVGID_1_)" d="M587.625,396.925l-35.501-21.661h-27.182l-55.214,24.721l47.079,34.138
	C539.268,420.587,563.237,409.712,587.625,396.925z"/>
<linearGradient id="SVGID_2_" gradientUnits="userSpaceOnUse" x1="479.8838" y1="702.937" x2="535.3262" y2="742.9448" gradientTransform="matrix(1 0 0 -1 -108.8999 1163.7646)">
	<stop  offset="0" style="stop-color:#FCC49F;stop-opacity:0"/>
	<stop  offset="1" style="stop-color:#662D91"/>
</linearGradient>
<path fill="url(#SVGID_2_)" d="M442.189,439.148l-22.459-6.229l-33.51,1.104l-52.48,23.973l43.419,25.004
	C399.695,469.418,421.073,454.439,442.189,439.148z"/>
<linearGradient id="SVGID_3_" gradientUnits="userSpaceOnUse" x1="435.2666" y1="786.4692" x2="490.7097" y2="826.4928" gradientTransform="matrix(1 0 0 -1 -108.8999 1163.7646)">
	<stop  offset="0" style="stop-color:#FCC49F;stop-opacity:0"/>
	<stop  offset="1" style="stop-color:#662D91"/>
</linearGradient>
<path fill="url(#SVGID_3_)" d="M390.578,345.899l-22.46-6.23l-33.509,1.104l-52.481,23.971l66.558,39.149
	C371.099,390.314,390.113,381.295,390.578,345.899z"/>
<linearGradient id="SVGID_4_" gradientUnits="userSpaceOnUse" x1="332.75" y1="757.0044" x2="388.1913" y2="797.0114" gradientTransform="matrix(1 0 0 -1 -108.8999 1163.7646)">
	<stop  offset="0" style="stop-color:#FCC49F;stop-opacity:0"/>
	<stop  offset="1" style="stop-color:#662D91"/>
</linearGradient>
<path fill="url(#SVGID_4_)" d="M295.063,385.078l-22.458-6.233l-33.511,1.106l-52.48,23.97l43.498,25.02
	C252.555,415.362,273.948,400.368,295.063,385.078z"/>
<linearGradient id="SVGID_5_" gradientUnits="userSpaceOnUse" x1="187.7871" y1="794.2173" x2="211.854" y2="809.666" gradientTransform="matrix(1 0 0 -1 -108.8999 1163.7646)">
	<stop  offset="0" style="stop-color:#FCC49F;stop-opacity:0"/>
	<stop  offset="1" style="stop-color:#662D91"/>
</linearGradient>
<polyline fill="url(#SVGID_5_)" points="101.612,347.894 64.396,366.374 80.388,376.438 120.628,355.229 "/>
<path fill="#7CD2EE" d="M98.525,330.862c0,0-2.733,21.592,9.708,25.769c12.44,4.177,19.109-6.697,19.31-25.769"/>
<ellipse fill="#F26A6A" cx="113.034" cy="330.86" rx="14.509" ry="7.688"/>
<path fill="#8DC63F" d="M116.754,313.757c0,0-5.696-7.547-3.21-12.742c0,0,2.053-3.356,4.955-3.88c0,0-0.293,7.149,2.608,6.244
	c2.902-0.906,0-7.489,0-7.489s3.087-3.781,6.39-3.667c3.303,0.112,0,6.682,2.315,5.663c2.315-1.021,0.139-6.685,2.763-7.35
	c2.39-0.501,4.813-0.856,7.254-1.063c0,0,2.47,6.528,0,7.463c-2.469,0.934-6.097,1.246-4.353,2.69
	c1.744,1.445,6.684-0.213,6.684-0.213s0.309,3.667-1.374,5.253c-1.682,1.588-11.545-1.925-9.802,1.232
	c1.744,3.158,8.259,1.417,8.259,1.417c-1.958,2.524-4.42,4.685-7.256,6.371C128.067,315.812,116.754,313.757,116.754,313.757z"/>
<path fill="#8DC63F" d="M118.082,332.631c0,0-4.106-3.723-3.304-6.925c0.405-1.13,1.245-2.086,2.362-2.688
	c0,0,0.663,4.091,2.207,3.282c1.544-0.805-0.864-4.247-0.864-4.247s1.296-2.449,3.196-2.703c1.898-0.255,0.771,3.794,1.975,2.943
	c1.205-0.848-0.695-3.808,0.71-4.445c1.299-0.52,2.635-0.958,3.998-1.316c0,0,2.162,3.455,0.864,4.248
	c-1.296,0.792-3.318,1.303-2.16,1.954s3.765-0.779,3.765-0.779c0.325,1.026,0.265,2.122-0.169,3.114
	c-0.771,1.062-6.776,0-5.417,1.657c1.358,1.657,4.877,0.085,4.877,0.085c-0.818,1.627-1.965,3.097-3.38,4.332
	C124.734,332.66,118.082,332.631,118.082,332.631z"/>
<path fill="#8DC63F" d="M102.954,324.575c0,0-10.002,0.354-13.459-4.374c0,0-1.976-3.385-0.91-5.919c0,0,6.421,4.063,7.146,1.331
	c0.725-2.732-6.885-4.049-6.885-4.049s-1.852-4.391,0-6.911c1.853-2.518,6.174,3.597,6.391,1.22c0.216-2.38-6.065-3.697-5.263-6.075
	c0.82-2.119,1.795-4.187,2.917-6.188c0,0,7.317,1.6,6.854,4.007c-0.464,2.406-2.131,5.38,0.138,4.813
	c2.269-0.567,3.396-5.28,3.396-5.28s3.534,1.727,4.105,3.879c0.572,2.151-7.979,7.901-4.135,8.241
	c3.843,0.338,5.896-5.551,5.896-5.551c1.269,2.871,1.934,5.936,1.96,9.034C110.873,316.901,102.954,324.575,102.954,324.575z"/>
<path fill="#0A587B" d="M137.653,292.279l-3.195,2.506c0.107-1.034,0.247-2.066,0.417-3.1c0.093-0.554-0.818-0.779-0.911-0.227
	c-0.237,1.376-0.417,2.765-0.541,4.161c-2.809,2.251-5.587,4.617-8.165,7.079c-0.223-1.757-0.279-3.527-0.17-5.294
	c0-0.553-0.911-0.553-0.942,0c-0.121,2.043-0.028,4.091,0.278,6.116c-1.646,1.638-3.192,3.358-4.631,5.155
	c-1.625-2.061-2.733-4.426-3.241-6.925c-0.108-0.552-1.019-0.313-0.91,0.227c0.538,2.656,1.731,5.164,3.488,7.334l0.092,0.085
	c-4.362,5.336-6.889,11.744-7.254,18.406c0,0.552,0.927,0.552,0.941,0c0.341-6.449,2.764-12.658,6.961-17.841
	c3.813,0.93,7.765,1.283,11.7,1.048c0.603,0,0.603-0.906,0-0.861c-3.735,0.219-7.485-0.103-11.113-0.951
	c2.001-2.479,4.199-4.823,6.576-7.008h0.077c2.207,0.185,4.415,0.354,6.622,0.439c1.386,0.182,2.802,0.03,4.106-0.439
	c0.54-0.255,0-0.99-0.479-0.751c-1.544,0.709-3.658,0.326-5.294,0.242c-1.405-0.072-2.794-0.185-4.199-0.299
	c3.365-3.059,6.977-5.903,10.465-8.608C138.765,292.534,138.117,291.926,137.653,292.279z"/>
<path fill="#0A587B" d="M108.387,309.141c0.026-0.24-0.167-0.455-0.429-0.478c-0.203-0.019-0.396,0.081-0.481,0.253
	c-1.024,3.193-3.154,5.995-6.066,7.984c-1.029-2.729-2.006-5.479-2.933-8.255c2.28-2.084,4.155-4.514,5.542-7.179
	c0.262-0.495-0.556-0.934-0.819-0.438c-1.277,2.448-2.977,4.69-5.031,6.64c-0.988-3.186-1.853-6.397-2.594-9.654
	c-0.124-0.555-1.034-0.312-0.91,0.227c1.029,4.445,2.269,8.833,3.72,13.168c-1.781-0.32-3.512-0.84-5.156-1.545
	c-0.54-0.24-1.034,0.51-0.479,0.75c1.891,0.826,3.896,1.412,5.958,1.742l0,0c1.003,2.831,2.114,5.663,3.303,8.496
	c-2.826-0.083-5.61-0.644-8.211-1.656c-0.557-0.214-1.034,0.523-0.479,0.749c2.866,1.128,5.943,1.733,9.061,1.784
	c1.513,3.474,3.18,6.89,5,10.251c0.279,0.495,1.082,0,0.819-0.44c-2.438-4.477-4.603-9.076-6.483-13.774l0,0
	C104.925,315.649,107.271,312.616,108.387,309.141z"/>
<path fill="#0A587B" d="M125.49,320.357l-2.592,3.95c-0.316-0.393-0.591-0.809-0.819-1.248c-0.262-0.508-1.08,0-0.817,0.439
	c0.294,0.56,0.656,1.088,1.08,1.571l0,0l-2.809,4.333c-0.312-0.276-0.512-0.64-0.571-1.033c0-0.553-1.019-0.553-0.941,0
	c0.083,0.693,0.454,1.333,1.034,1.784l-3.442,5.479c-0.1,0.224,0.017,0.479,0.261,0.572c0.198,0.074,0.425,0.021,0.558-0.135
	l4.63-7.079c0.778-0.03,1.544-0.177,2.269-0.438c0.571-0.17,0.324-1.007-0.247-0.837c-0.476,0.139-0.968,0.225-1.466,0.257
	l4.631-7.236c0.015-0.242-0.186-0.45-0.45-0.464C125.688,320.268,125.579,320.296,125.49,320.357z"/>
<path fill="#FABEB4" d="M362.239,333.992l-0.11-10.025l-9.629-0.367l-2.039,15.064C350.461,338.664,360.169,339.499,362.239,333.992
	z"/>
<path fill="#7CD2EE" d="M350.938,223.453c-1.431,11.279-2.1,22.626-2.006,33.982c0.463,15.247-1.543,65.002-1.543,65.002
	s12.843,5.663,20.56,2.322c0,0,3.087-33.104,3.473-44.048c0.387-10.945-2.054-56.31-2.054-56.31"/>
<path fill="#0E101A" d="M362.239,333.992c0,0-6.037,4.247-10.22,3.241c0,0,1.652-4.247,0.48-5.663
	c-1.175-1.416-2.009-0.296-2.688,1.203c-0.559,1.224-1.246,2.395-2.053,3.497c-0.146,0.149-0.313,0.284-0.494,0.396
	c-3.998,4.729-13.983,2.988-13.026,8.651c0.2,1.232,3.18,2.534,4.32,2.832c2.03,0.442,4.146,0.442,6.175,0
	c5.325-1.332,6.513-4.448,11.237-3.441c4.723,1.005,6.174-1.273,6.914-2.832C363.627,340.319,362.239,333.992,362.239,333.992z"/>
<path fill="#FABEB4" d="M377.458,318.26c1.867,11.257,4.369,28.558,4.259,30.117c-0.154,2.208,4.399,11.184,8.136-0.439
	c0,0,0.37-18.28,0.216-29.424C385.863,318.639,381.653,318.554,377.458,318.26z"/>
<path fill="#0E101A" d="M378.63,350.147c0,0-0.662-3.484,1.898-3.695c2.563-0.214,5.496,0.282,5.85,2.18
	c0.226,1.358,0.359,2.73,0.403,4.105c0,0,3.086-8.496,3.842-8.496c0.757,0,1.729,2.832,1.668,3.923
	c-0.356,3.744-0.961,7.465-1.807,11.144c-0.647,1.67-4.63,7.603-10.142,8.353c-5.51,0.751-8.428-2.406-7.532-4.699
	C373.705,360.666,378.583,356.347,378.63,350.147z"/>
<path fill="#7CD2EE" d="M361.296,227.687c0,0,3.35,40.225,4.739,53.152c1.39,12.926,8.411,56.21,8.411,56.21
	s11.053,2.746,20.516-1.019c0,0-3.753-67.524-5.866-84.486c-2.78-22.23-7.718-33.004-7.718-33.004"/>
<path fill="#FABEB4" d="M378.013,184.686c0,0,20.731-2.378,23.152-4.164c2.424-1.783,1.668-24.819,1.963-26.618
	c0.291-1.797,6.93-3.256,8.087-1.303c1.158,1.954,4.322,25.202,2.717,31.291s-34.158,18.889-34.158,18.889L378.013,184.686z"/>
<path fill="#FABEB4" d="M349.844,183.454c-1.697,2.634-6.176,18.08-6.176,18.08l-6.373-12.743c-1.622-3.318-3.435-6.556-5.434-9.698
	l-7.208,2.564c3.967,10.987,7.007,21.833,13.506,31.871c0.536,0.676,1.188,1.268,1.93,1.756c6.637,3.822,14.262-1.289,15.636-2.507
	l5.447-32.89C360.093,178.328,351.542,180.82,349.844,183.454z"/>
<path fill="#FABEB4" d="M381.872,186.216c-7.701-2.561-15.673-4.37-23.787-5.396h-1.017c-1.244,5.769-3.881,11.207-7.719,15.915
	c3.474,1.133,23.631,6.429,31.024,7.874C390.007,184.8,387.088,192.403,381.872,186.216z"/>
<path fill="#FABEB4" d="M332.648,180.211c0,0,0.927-9.033-0.093-9.77c-1.018-0.735-2.083,0.34-2.083,0.34
	c-0.322-1.382-1.56-2.425-3.086-2.605c-2.58-0.184-7.087,3.356-7.504,5.196c-0.416,1.84,5.125,8.708,5.125,8.708L332.648,180.211z"
	/>
<path fill="#FABEB4" d="M403.743,154.796c0,0-2.13-4.021-3.087-5.804c-0.957-1.784,1.544-3.313,1.544-3.313
	c-0.442-1.904,0.88-3.778,2.955-4.186c0.151-0.029,0.303-0.05,0.455-0.063c4.106-0.51,6.654-0.255,7.858,1.911
	c1.203,2.167-2.286,10.039-2.286,10.039"/>
<path fill="#FFC868" d="M363.611,178.952c-0.679-0.1-9.786-0.723-13.768,4.148c-2.479,3.117-4.429,6.559-5.789,10.208l7.455,4.985
	l-2.13,32.083c0,0,10.281,5.225,18.354,4.517s17.41-4.985,17.41-4.985V199.85l14.31-6.528l-3.009-12.247
	c0,0-14.973,1.995-17.629,1.698C376.16,182.476,376.207,180.779,363.611,178.952z"/>
<path fill="#EFA49A" d="M375.08,171.164l-11.607,2.535v10.69c3.39,1.93,7.66,2.006,11.13,0.197
	C374.746,180.112,374.905,175.639,375.08,171.164z"/>
<path fill="#0E101A" d="M391.318,156.156c-0.547-3.641-4.208-6.187-8.177-5.685c-0.052,0.005-0.104,0.014-0.158,0.021
	c-3.016,0.25-5.749,1.732-7.439,4.036c-6.514-2.478-14.077,0.084-17.104,3.751c-2.251,2.348-2.251,5.865,0,8.212l11.854,12.374
	c2.115-0.426,4.182-1.034,6.176-1.811c3.38-1.416,6.173-7.378,6.173-12.743c1.259,0.226,2.559,0.137,3.769-0.256
	C389.893,162.835,391.947,159.526,391.318,156.156z"/>
<path fill="#FABEB4" d="M358.395,166.492c0,0,0.293,15.688,4.954,16.708c3.563,0.64,7.169-0.913,8.908-3.837
	c0.488-0.88,0.762-1.846,0.801-2.832c0,0,4.338-1.742,3.567-4.05c-0.772-2.308-3.443,0.75-4.153,0.424
	c-1.773-0.54-2.907-2.13-2.731-3.837C369.646,166.082,362.578,169.182,358.395,166.492z"/>
<path fill="#FABEB4" d="M255.225,229.215c0,0-12.812-22.385,1.234-22.172l30.208-17.458l0.231-20.247l6.576-3.61
	c0,0,7.361,20.614,5.942,28.019c-1.421,7.406-21.734,21.31-26.766,24.454C265.859,222.434,255.225,229.215,255.225,229.215z"/>
<polyline fill="#7CD2EE" points="260.549,204.211 274.734,195.673 282.329,212.664 274.734,222.788 "/>
<path fill="#2F4CA0" d="M262.248,376.694c-0.489,1.348-0.272,2.825,0.585,4.007c1.467,1.528,17.705,9.558,25.346,7.618
	c7.641-1.94,6.792-4.248,6.713-5.409"/>
<path fill="#2F4CA0" d="M239.45,384.919c-0.579,1.546-0.66,3.212-0.231,4.8c0.741,2.479,7.58,13.083,13.583,13.932
	c6.004,0.851,11.655-0.564,11.314-5.067"/>
<path fill="#FABEB4" d="M257.031,322.337c0,0-2.81,13.777-3.458,18.406c-0.648,4.632-3.087,41.26-3.087,41.26
	s-5.325,6.726-7.81,5.083c-2.485-1.644-4.492-31.149-3.303-42.958c1.188-11.81,3.519-28.616,3.519-28.616"/>
<path fill="#FABEB4" d="M277.235,308.93c0.309,0.637-4.723,63.912-4.723,63.912s-3.844,3.964-8.367,1.729
	c0,0-5.789-42.789,0.216-60.047"/>
<path fill="#0E101A" d="M244.049,257.334c0,0-5.48,22.91-6.344,31.149c-0.864,8.241,0.387,37.366,0.387,37.366
	s17.827,8.609,24.187-4.745c0,0,3.581,3.767,18.43-4.246c0,0,0.402-45.067-4.707-54.852
	C270.892,252.224,245.593,253.653,244.049,257.334z"/>
<path fill="#FABEB4" d="M237.659,208.6c-5.08,2.751-8.782,7.219-10.31,12.445c-2.608,8.821-7.903,26.08-8.567,28.771
	c-0.663,2.69-2.778,25.133-2.778,25.133s-2.608,7.079-2.608,8.977c0.094,1.615,0.369,3.22,0.818,4.786c0,0,3.088,2.548,4.631,2.548
	c1.543,0,5.866-0.596,6.036-1.501c0.169-0.905-3.257-2.096-2.778-4.488c0.478-2.394,2.408-2.394,3.488-1.415
	c1.081,0.977,2.377-1.205,2.377-1.205s-3.921-4.331-5.866-6.129c0,0,7.178-23.265,8.474-26.661
	c1.296-3.398,6.344-14.075,7.903-15.023c1.559-0.949,7.101,0.85,11.174-10.222C253.727,213.542,237.659,208.6,237.659,208.6z"/>
<path fill="#7CD2EE" d="M276.525,216.302c-0.462-4.955-2.5-10.929-8.366-12.502c-1.779-0.423-3.631-0.514-5.449-0.27l-7.1,0.977
	l-9.169,1.26c0,0-7.192,0.978-8.767,2.832c0,0,8.752,3.964,8.381,12.573c-0.247,6.032-2.979,14.158-7.625,13.72
	c0,0,1.637,27.609,3.52,31.588c0,0,20.76,4.36,35.3-4.729C277.251,261.766,277.452,226.101,276.525,216.302z"/>
<path fill="#FABEB4" d="M249.19,195.673c0.252,1.962,0.252,3.943,0,5.904c-0.451,1.629-1.406,3.104-2.749,4.248
	c0,0,9.647,11.059,17.242,9.911c7.594-1.146-3.087-11.411-3.087-11.411s0.834,0.241,0.71-2.959"/>
<path fill="#0E101A" d="M241.858,377.515c0,0,0.848,7.942,2.422,6.385c1.575-1.558-0.556-6.329,2.239-6.229
	c2.794,0.101,4.445-0.496,4.755,0.693c0.308,1.189,3.442,9.913,8.181,13.536c4.739,3.626,6.744,7.504,1.976,7.76
	c-1.234,0.134-2.386,0.632-3.288,1.415c-1.328,1.233-7.009,0.51-9.37-1.813c-2.362-2.321-9.261-12.288-9.261-14.329
	C239.512,382.896,239.727,377.981,241.858,377.515z"/>
<path fill="#0E101A" d="M271.108,373.65c0,0-1.437-3.243,0.154-3.867c1.59-0.622,3.179-1.414,3.967-0.536
	c0.787,0.877,1.265,2.66,1.883,3.186c0.617,0.523,14.232,6.711,16.268,8.495c2.039,1.784,1.623,2.917,1.004,2.563
	c-0.616-0.353-1.435-0.864-1.837,0c-0.4,0.862-0.339,3.865-2.901,3.711c-2.563-0.156-7.532,0.254-10.296-1.856
	c-2.762-2.11-9.725-3.724-12.348-4.856c-2.624-1.132-4.754-2.18-4.754-3.794s0.2-6.811,1.343-6.98
	c1.141-0.171,0.74,2.931,2.547,3.752C267.745,373.941,269.463,374.005,271.108,373.65z"/>
<path fill="#CC7258" d="M260.704,204.31l-0.092-0.099l-7.718-6.344l-2.995,2.181c0.732,0.902,1.519,1.761,2.361,2.578
	C254.87,204.692,258.328,206.406,260.704,204.31z"/>
<path fill="#583329" d="M267.619,179.037c-0.63-0.628-1.463-1.054-2.376-1.218c-0.198-0.304-0.43-0.589-0.694-0.849
	c-1.048-1.051-2.495-1.693-4.044-1.798c-0.578-0.031-1.154,0.066-1.683,0.283c-0.888-0.49-1.886-0.79-2.917-0.877
	c-1.049-0.091-2.1,0.148-2.979,0.679c-1.456-0.5-3.068-0.459-4.492,0.114c-0.982,0.412-1.792,1.102-2.315,1.968
	c-1.681,0.282-3.13,1.251-3.937,2.633c-0.641,1-0.809,2.197-0.462,3.313c-0.966,1.204-1.131,2.799-0.433,4.148
	c0.306,0.594,0.749,1.121,1.296,1.544c-0.01,0.142-0.01,0.284,0,0.425c0.332,1.925,1.104,3.764,2.27,5.395
	c0.494,0.68,1.063,1.311,1.698,1.882c0.417,0.384,0.85,0.737,1.297,1.091s0.355,0.538,0.309,0.225
	c0.107,0.934,0.784,1.73,1.744,2.054c2.065-1.247,3.677-3.032,4.631-5.125c0.167-0.281,0.551-0.385,0.858-0.231
	c0.106,0.053,0.194,0.134,0.252,0.231l8.397-8.24c2.044-0.426,3.703-1.792,4.384-3.61
	C268.949,181.691,268.644,180.157,267.619,179.037z"/>
<path fill="#FABEB4" d="M266.307,184.389c0.447-0.794,3.336,18.32-3.395,19.679c-6.731,1.359-10.543-6.018-10.543-6.018
	s-6.391-3.327-3.087-5.407c3.304-2.083,4.815,0.806,4.815,0.806s-1.543-8.226,2.64-7.532
	C260.92,186.612,264.532,187.518,266.307,184.389z"/>
<path fill="#0E101A" d="M238.092,325.822l0.848,45.901c0,0,10.265,1.983,17.474,0l5.232-47.416l-1.543,39.898
	c0,0,9.616,2.464,17.071-0.184l3.598-47.177"/>
<path fill="#7CD2EE" d="M239.65,207.397c0,0-8.056,3.823-11.514,10.619c-2.639,5.197-6.406,15.575-6.406,15.575l13.167,6.896
	l5.928-4.886c0,0,7.3-8.495,7.501-13.367C248.525,217.365,246.226,207.708,239.65,207.397z"/>
<path fill="#FABEB4" d="M286.944,169.338c0,0-4.738-4.545-4.631-5.904c0.127-0.824,0.711-1.527,1.543-1.855
	c0,0-1.543-3.454,1.885-4.686c3.426-1.232,8.736-1.416,9.399,0s-1.666,8.835-1.666,8.835S289.26,171.787,286.944,169.338z"/>
<path fill="#4A50A2" d="M460.222,191.963c-5.324,0.086-11.809-3.54-12.456-8.707c0.438,0.025,0.874,0.025,1.311,0
	c3.243-0.128,8.461-2.294,8.567-5.849c0.109-3.553-4.938-3.907-7.577-2.93c-2.524,0.946-4.33,3.027-4.771,5.494
	c-0.66-0.294-1.278-0.667-1.835-1.105c-2.1-1.718-3.504-4.04-3.983-6.583c-0.232-1.077-0.279-2.18-0.138-3.271
	c1.261,0.394,2.614,0.473,3.919,0.227c3.258-0.608,7.41-4.404,4.432-7.434c-2.486-2.549-6.854-0.949-8.83,1.259
	c-0.464,0.527-0.869,1.097-1.204,1.7c-1.166-1.154-1.813-2.673-1.805-4.248c0.03-2.704,1.463-5.232,3.858-6.809
	c1.42-1.021-0.571-2.833-1.977-1.813c-3.965,2.705-5.6,7.432-4.06,11.738c0.583,1.511,1.588,2.853,2.918,3.894
	c-1.281,5.917,2.424,13.068,8.521,15.122c0.089,1.425,0.466,2.822,1.111,4.12c2.598,4.885,8.093,7.905,14.015,7.703
	c0.755-0.17,1.214-0.867,1.03-1.559C461.142,192.44,460.737,192.073,460.222,191.963z M447.996,180.425l1.544-2.621h0.123
	c0.781-0.832,1.894-1.342,3.088-1.416c0.652-0.159,1.336,0.126,1.637,0.681c0.027,0.116,0.027,0.236,0,0.354
	c0.386,1.175-2.038,2.393-2.7,2.675c-1.184,0.502-2.487,0.707-3.782,0.595c0.046-0.099,0.061-0.184,0.076-0.268H447.996z
	 M443.15,163.136c0.528-0.2,1.134-0.094,1.543,0.269c1.544,1.161-0.092,2.832-1.635,3.228l0,0c-0.964,0.259-1.987,0.259-2.948,0
	C441.02,165.118,442.439,162.896,443.15,163.136z"/>
<path fill="#DE592A" d="M206.187,218.908c-5.326,0.085-11.808-3.54-12.457-8.708c0.438,0.027,0.875,0.027,1.313,0
	c3.241-0.126,8.458-2.293,8.566-5.847c0.108-3.554-4.939-3.908-7.579-2.93c-2.537,0.947-4.351,3.041-4.785,5.521
	c-0.661-0.295-1.278-0.665-1.836-1.105c-2.1-1.718-3.503-4.039-3.983-6.583c-0.233-1.077-0.279-2.18-0.139-3.271
	c1.262,0.396,2.615,0.473,3.921,0.228c3.256-0.609,7.409-4.403,4.429-7.434c-2.484-2.548-6.853-0.949-8.829,1.261
	c-0.465,0.525-0.869,1.096-1.204,1.698c-1.167-1.154-1.812-2.673-1.806-4.248c0.031-2.703,1.464-5.232,3.858-6.81
	c1.42-1.02-0.571-2.832-1.975-1.813c-3.966,2.705-5.6,7.432-4.06,11.738c0.582,1.511,1.588,2.854,2.917,3.894
	c-1.282,5.919,2.423,13.069,8.52,15.123c0.09,1.424,0.466,2.82,1.112,4.119c2.598,4.886,8.092,7.907,14.015,7.703
	c0.738-0.219,1.13-0.985,0.893-1.662C206.94,219.385,206.603,219.075,206.187,218.908z M193.961,207.368l1.543-2.619h0.124
	c0.781-0.832,1.892-1.342,3.087-1.416c0.653-0.159,1.336,0.126,1.637,0.679c0.027,0.118,0.027,0.238,0,0.354
	c0.386,1.175-2.038,2.394-2.702,2.677c-1.181,0.5-2.486,0.707-3.781,0.594c0.046-0.113,0.062-0.184,0.077-0.27H193.961z
	 M189.115,190.08c0.527-0.2,1.133-0.094,1.543,0.27c1.543,1.161-0.092,2.831-1.636,3.228l0,0c-0.962,0.259-1.986,0.259-2.949,0
	C186.985,192.049,188.389,189.798,189.115,190.08z"/>
<path fill="#DE592A" d="M479.237,221.669c-2.524-2.228-6.476-2.343-9.151-0.27c-2.238,1.813,1.049,4.815,3.271,3.002
	c0.911-0.736,2.484,0,3.088,0.737c1.219,1.416,1.033,3.681,0.771,5.351c-0.31,1.109,0.363,2.25,1.543,2.621
	c1.213,0.313,2.477-0.314,2.855-1.416C482.264,228.195,482.295,224.174,479.237,221.669z"/>
<path fill="#FFC868" d="M280.971,136.744c-5.325-1.897-11.361,2.209-11.454,7.292c0,2.732,4.631,2.732,4.631,0
	c0.182-2.075,2.162-3.619,4.421-3.452c0.406,0.03,0.804,0.115,1.181,0.252C282.53,141.827,283.734,137.721,280.971,136.744z"/>
<path fill="#DE592A" d="M334.1,135.527c-1.278,0-2.315,0.95-2.315,2.124c0,1.173,1.037,2.124,2.315,2.124
	c1.279,0,2.315-0.951,2.315-2.124C336.415,136.477,335.379,135.527,334.1,135.527z"/>
<path fill="#CEDC2A" d="M320.702,233.024c-1.279,0-2.315,0.951-2.315,2.124s1.036,2.124,2.315,2.124
	c1.277,0,2.315-0.951,2.315-2.124S321.979,233.024,320.702,233.024z"/>
<path fill="#FFC868" d="M432.979,204.041l-5.573,7.688c-1.65,2.294,2.362,4.417,3.998,2.139l5.542-7.689
	C438.628,203.956,434.613,201.761,432.979,204.041z"/>
<path fill="#4A50A2" d="M227.039,169.976l-4.491-3.158c-1.105-0.581-2.515-0.241-3.164,0.765c-0.608,1.016-0.242,2.292,0.833,2.902
	l4.492,3.158c1.105,0.581,2.515,0.241,3.165-0.765C228.481,171.86,228.115,170.585,227.039,169.976z"/>
<path fill="#CEDC2A" d="M372.903,124.835c-1.251-2.478-5.248-0.325-3.996,2.14c0.813,2.157-0.434,4.512-2.786,5.258
	c-0.149,0.048-0.302,0.088-0.457,0.122c-2.979,0.637-5.819-1.6-6.808-4.021c-0.986-2.421-5.509-1.416-4.459,1.132
	c1.96,4.813,7.53,8.623,13.272,6.769c4.759-1.567,7.233-6.373,5.526-10.738C373.108,125.273,373.011,125.053,372.903,124.835z"/>
<path fill="#F9B3AA" d="M376.373,279.45c0,0-5.757-2.166-6.021-2.831c-1.166-1.68-2.505-3.254-3.998-4.699
	c-0.726,0.75-0.827,1.852-0.247,2.704c0.942,1.09,1.7,1.67,1.375,2.066c-0.324,0.396-12.118-4.545-12.689-4.488
	c-0.569,0.057-0.368,1.728,0.942,2.533l2.131,1.205c0,0-3.242-0.751-3.381-0.341c-0.118,0.858,0.467,1.665,1.374,1.896
	c0,0-1.544,0.343-0.186,1.333c0.529,0.478,1.174,0.832,1.883,1.032c0,0-1.373,0-0.879,0.921c0.493,0.921,4.028,0.921,4.784,1.26
	c4.477,1.181,9.051,2.028,13.677,2.534C377.777,284.548,376.373,279.45,376.373,279.45z"/>
<path fill="#F9B3AA" d="M389.509,238.63c-1.586-2.039-3.308-3.987-5.155-5.833c-1.002-0.651-8.335-1.714-9.047-2.605
	c-0.709-0.892,5.589-1.189,6.283-0.991c0.694,0.199-7.07-6.683-6.451-8.112c0.617-1.43,7.068,4.913,7.068,4.913
	s-6.174-6.909-5.201-7.858c0.973-0.948,5.989,6.003,6.715,5.891c0.726-0.114-2.964-5.169-1.807-6.061
	c1.157-0.892,5.233,6.215,5.233,6.215s0-4.318,0.911-4.473c0.909-0.156,1.202,6.399,1.342,7.15s5.542,8.495,5.542,8.495"/>
<path fill="#DE592A" d="M418.095,253.965c-1.451-1.021-26.239-23.434-26.239-23.434s-5.65,1.771-6.175,5.324
	c0,0,16.779,23.631,21.979,26.9"/>
<path fill="#20428E" d="M428.886,438.286l5.91-3.004l-1.544-7.744c0,0-8.814,0.766-9.585,3.639"/>
<path fill="#7CD2EE" d="M426.661,438.171c-1.328-0.75-2.732-1.415-4.091-2.097c-3.426-1.712-8.349-3.495-10.464-6.71
	c-0.881-1.331-0.77-3.023,0.276-4.249c3.088-3.439,9.88,2.21,13.354-1.599c0.693-0.751,1.002-12.743,1.002-12.743l13.197,3.255
	c0,0,2.238,24.071,1.976,25.487c-0.262,1.415-4.784,2.904-4.784,2.904c-1.352-0.265-2.644-0.743-3.813-1.417
	c-1.388-0.921-0.123-12.178-1.882-10.605c-1.76,1.571-2.53,7.745-2.53,7.745C428.159,438.237,427.406,438.247,426.661,438.171z"/>
<path fill="#20428E" d="M403.632,449.895l5.911-3.003L408,439.148c0,0-8.813,0.765-9.585,3.64"/>
<path fill="#7CD2EE" d="M401.409,449.781c-1.326-0.749-2.732-1.415-4.09-2.095c-3.428-1.714-8.352-3.497-10.465-6.712
	c-0.882-1.331-0.771-3.021,0.275-4.247c3.088-3.439,9.881,2.209,13.354-1.601c0.694-0.75,1.003-12.742,1.003-12.742l13.197,3.256
	c0,0,2.239,24.07,1.975,25.485c-0.263,1.417-4.783,2.903-4.783,2.903c-1.353-0.261-2.644-0.739-3.813-1.416
	c-1.392-0.919-0.124-12.177-1.885-10.604c-1.759,1.569-2.53,7.744-2.53,7.744C402.905,449.847,402.153,449.857,401.409,449.781z"/>
<path fill="#0A587B" d="M446.619,371.852l3.813,47.673c0,0-6.174,7.828-26.95,3.482l0,0l-0.202-32.154"/>
<path fill="#0A587B" d="M422.556,381.295c0.448,4.106,0,49.386,0,49.386s-5.741,9.911-30.748,0l0.357-38.469"/>
<path fill="#DE592A" d="M398.77,274.538l2.671,24.155c0,0,21.608,0.808,30.871-5.083v-20.488"/>
<path fill="#DE592A" d="M412.493,252.506c0,0-10.19,2.521-14.311,8.58c-3.178,4.658-4.847,21.606-4.847,21.606l-18.074-4.843
	c-0.738,2.631-2.157,5.061-4.137,7.079c0,0,10.804,6.826,20.235,8.693c9.432,1.869,19.465-12.87,19.465-12.87
	s2.084,6.117,1.668-0.41"/>
<path fill="#FFC868" d="M406.01,275.741c2.968-2.228,5.202-5.169,6.451-8.494c1.22-3.823-0.31-7.178-1.744-10.734
	c-1.543-3.498-2.448-7.205-2.687-10.973c-0.123-3.723,0.342-7.433,0.618-11.141c0.04-0.16,0.04-0.324,0-0.483
	c1.358-4.248,4.151-7.73,9.647-8.169c14.231-1.104,15.033,13.352,14.926,19.229c-0.108,5.873-0.787,9.91,3.92,12.317
	c4.709,2.406,8.136,8.905,3.627,14.159c-4.507,5.253-0.463,3.313,2.548,7.942c3.01,4.631,2.223,10.408-3.936,12.502
	c-6.159,2.097-34.808-1.841-37.447-4.247c-0.933-0.979-1.414-2.255-1.343-3.555C401.231,280.798,403.157,277.83,406.01,275.741z"/>
<path fill="#7CD2EE" d="M565.724,384.735c-3.224-3.138-6.098-6.563-8.584-10.222c-1.8-2.183-3.241-4.597-4.274-7.165l-13.382-9.272
	l-7.117-57.032l-10.805-2.266v78.241l51.741,27.68l19.093-9.981l-3.086-2.15C580.819,391.843,571.926,390.2,565.724,384.735z"/>
<polygon fill="#4A50A2" points="511.452,307.033 514.014,305.687 549.238,287.238 530.345,260.109 "/>
<path fill="#4A50A2" d="M571.279,382.91c-14.849-10.038-24.897-22.287-28.463-39.022c-2.067-9.698-3.735-19.469-5.217-29.252
	c-1.374-8.515-1.979-17.12-1.806-25.726l-10.496,2.024c-0.865,1.727,0.153,5.549,0.279,7.362c0.414,5.791,1.018,11.567,1.758,17.316
	c1.899,14.654,4.445,29.576,9.771,43.552c7.145,18.775,26.934,33.84,47.85,39.079l10.695-5.125
	C588.861,391.135,576.79,386.605,571.279,382.91z"/>
<polyline fill="#7CD2EE" points="530.345,260.109 524.942,260.109 506.034,304.879 511.452,307.033 "/>
<g>
	<g>
		<path fill="#5152A3" d="M564.265,350.642c0,0-2.892,2.569-5.06,2.669c-1.847,0.065-2.087,0.659-2.087,1.681
			c0,1.021,8.029,0.822,10.64,0.427c1.847-0.262,0.562-4.712,0.562-4.712L564.265,350.642z"/>
		<path fill="#5152A3" d="M589.759,350.181l-3.653,0.297c0,0-2.73,2.603-4.858,2.833c-1.847,0.197-2.288,0.855-2.208,1.878
			c0.08,1.021,9.153,0.329,10.72-0.526C591.325,353.805,589.759,350.181,589.759,350.181z"/>
	</g>
	
		<linearGradient id="SVGID_6_" gradientUnits="userSpaceOnUse" x1="647.249" y1="1146.0806" x2="734.2725" y2="1146.0806" gradientTransform="matrix(0.7597 0 0 -0.7597 35.5462 1166.2837)">
		<stop  offset="0.02" style="stop-color:#F47B59"/>
		<stop  offset="0.51" style="stop-color:#F8C548"/>
		<stop  offset="1" style="stop-color:#F89D53"/>
	</linearGradient>
	<path fill="url(#SVGID_6_)" d="M582.532,246.991c-0.722,6.688-1.445,6.523-3.733,8.862c-1.124,1.153-2.971,2.57-3.172,4.053
		c-0.04,0.33,0.12,0.626,0.441,0.856l2.409,1.581l1.004,0.626c0.08,0.065,0.161,0.132,0.2,0.198l8.351,11.234l0.041,0.034
		l5.18,8.104c0.32,0.494-0.161,2.042-0.643,2.471c-2.49,2.174-8.231,4.481-7.389,6.656c2.771,7.182,0.522,5.501-1.083,4.348
		c-0.843-0.626-1.967-3.591-2.368-4.908c-0.402-1.318,7.226-7.578,6.423-8.566c-0.724-0.923-6.383-7.611-7.268-8.665
		c-0.08-0.1-0.16-0.165-0.321-0.231l-5.34-2.273c-0.401-0.164-0.922-0.031-1.124,0.298c-0.079,0.131-0.12,0.263-0.079,0.428
		l8.189,38.977v0.033l1.445,10.41c0,0,0,0.033,0,0.066c0.04,1.252,0.723,7.183,0.884,8.369c0.401,2.371,1.084,3.525,1.605,5.732
		l3.373,13.739c0.08,0.396,0.481,1.416,0,1.481l-2.771,0.033c-0.402,0.033-0.803-0.625-0.923-0.954l-5.902-14.729
		c-0.401-1.12-2.409-4.315-2.971-6.787c-0.803-3.394-1.566-7.248-1.928-8.73l-1.726-8.106c-0.041-0.263,0.08-0.559,0.361-0.69
		l4.536-2.372c0.361-0.165,0.481-0.528,0.321-0.857l-5.019-9.917c-0.2-0.362-0.683-0.494-1.124-0.362
		c-0.322,0.132-0.521,0.396-0.481,0.691l1.485,12.026c0,0.033,0,0.1,0,0.132l-0.883,8.963c0,0.032,0,0.032,0,0.064l-2.41,11.928
		c0,0.033,0,0.033,0,0.064l-1.767,18.847c-0.04,0.362-0.12,1.153-0.521,1.153l-2.971,0.099c-0.482,0-0.684-0.89-0.684-1.285
		l-0.079-9.555v-0.033l-0.563-6.688c0,0,0-0.033,0-0.066c-0.28-1.351-0.079-4.249,0-6.293c0.121-2.801,0.402-4.382,0.442-4.876
		l0.281-7.81c0-0.032,0-0.064,0-0.098l-1.485-8.665c0-0.033,0-0.066,0-0.1v-36.24c0-0.396-0.361-0.692-0.843-0.692
		c-0.281,0-0.522,0.099-0.683,0.296c-1.968,2.307-4.296,4.448-6.906,6.293c-2.409,1.647-3.895,1.944-4.617,1.977
		c-0.281,0-0.562-0.099-0.723-0.297l-12.848-14.694c-0.161-0.197-0.481-0.296-0.763-0.296l-1.926,0.165c-0.042,0-0.122,0-0.162,0
		c-2.971-0.231-4.656-0.956-5.661-1.253c-0.32-0.098-0.481-0.362-0.361-0.593c0.041-0.099,0.12-0.165,0.202-0.23
		c1.525-0.89,3.371-1.416,5.258-1.482c2.168,0.033,4.338,0.494,6.265,1.317c0.08,0.034,0.199,0.1,0.241,0.165l10.599,10.973
		c0.28,0.295,0.803,0.36,1.165,0.131c0.079-0.034,0.118-0.1,0.16-0.165l4.215-4.941c0.081-0.1,0.16-0.165,0.282-0.197l12.445-5.865
		c0.32-0.165,0.603-0.396,0.722-0.692c0.442-1.021,0.925-2.043-0.923-4.976c-1.284-2.042-2.689-10.213,4.778-14.496
		c1.525-0.89,0.762,0.658,2.048,0.658c4.938,0,6.824,4.547,6.824,4.547"/>
	
		<linearGradient id="SVGID_7_" gradientUnits="userSpaceOnUse" x1="683.2412" y1="-286.1558" x2="730.2891" y2="-286.1558" gradientTransform="matrix(0.7597 0 0 0.7597 35.5462 504.3271)">
		<stop  offset="0" style="stop-color:#D4A6CD"/>
		<stop  offset="1" style="stop-color:#6C62AB"/>
	</linearGradient>
	<path fill="url(#SVGID_7_)" d="M568.159,260.401c0,1.646,1.284,4.678,5.581,4.678c2.77,0,3.412-2.339,3.573-3.295
		c0.08-0.56,1.164,0.396,1.806,0.691c6.144,3.031,9.154,12.191,9.154,12.191l-6.624,0.625l-0.844,13.541l9.476,22.799
		c0.16,0.363-0.081,0.759-0.522,0.892c-0.12,0.032-0.24,0.032-0.402,0.032c-3.692-0.396-13.81-1.384-15.656-0.329
		c-4.738,2.636-16.742,1.483-16.742,0.493c0-1.45,5.661-25.764,5.661-25.764l-3.374-15.781l-0.962-0.627l-3.694-3.129l3.734-4.909
		c1.324-1.253,3.332-1.978,5.339-2.241c1.004-0.132,2.049-0.198,3.052-0.23C567.557,260.103,568.159,260.169,568.159,260.401"/>
	
		<linearGradient id="SVGID_8_" gradientUnits="userSpaceOnUse" x1="-6796.1772" y1="755.3267" x2="-6748.1787" y2="755.3267" gradientTransform="matrix(-0.6685 0 0 0.7597 -3952.3079 -324.7481)">
		<stop  offset="0" style="stop-color:#5051A2"/>
		<stop  offset="1" style="stop-color:#5BCAE9"/>
	</linearGradient>
	<path fill="url(#SVGID_8_)" d="M581.448,253.349c-0.32,0.1-0.683,0-0.884-0.231c-1.565-1.68-7.909-8.5-8.149-8.929
		c-0.281-0.493-4.657,3.79-5.34,5.403c-0.803,1.944-1.004-3.063-1.364-3.821c-0.362-0.758-3.373,3.13-4.939,3.46
		c-1.566,0.329-2.048-0.494-3.092,1.021c-0.603,0.924,0.563-5.634,4.577-7.808c2.61-1.417,3.333,2.24,3.333,2.24
		c1.485-1.68,3.412-3.064,5.62-4.053c3.212-1.449,6.304-1.549,10.399,1.582c2.368,1.811,4.376,5.437,4.296,7.115
		c-0.08,1.616,1.926,0.231,2.287-0.098c0.362-0.33,3.855,0.428,3.253,2.834c-0.603,2.404-0.722,2.273-2.891,3.689
		c-1.204,0.758-2.248,1.681-3.011,2.701v-6.096C585.503,251.702,583.175,252.823,581.448,253.349z"/>
	<path opacity="0.07" fill="#010101" enable-background="new    " d="M572.415,257.435c0,0,2.891,1.482,4.335-0.066
		c0.925-1.021-1.686,2.142-1.243,3.394C575.948,262.014,572.415,257.435,572.415,257.435z"/>
	<path opacity="0.07" fill="#010101" enable-background="new    " d="M577.955,269.361l3.654,5.931l-0.844,13.541l9.476,22.799
		c0,0,1.968,1.154-3.573,0.661c-5.54-0.494-9.114-0.661-10.881-0.661s-5.942-1.448,0.402-6.489c2.569-2.042,1.967-3.59,0.2-8.93
		c-1.768-5.336,3.773-4.38,0-8.796C572.615,283.001,581.729,276.84,577.955,269.361z"/>
</g>
<g>
	
		<title  style="align-content:normal;align-items:normal;align-self:auto;alignment-baseline:auto;animation-delay:0s;animation-direction:normal;animation-duration:0s;animation-fill-mode:none;animation-iteration-count:1;animation-name:none;animation-play-state:running;animation-timing-function:ease;appearance:none;backdrop-filter:none;backface-visibility:visible;background-attachment:scroll;background-blend-mode:normal;background-clip:border-box;background-color:rgba(0, 0, 0, 0);background-image:none;background-origin:padding-box;background-position:0% 0%;background-repeat:repeat;background-size:auto;baseline-shift:0px;block-size:auto;border-block-end-color:rgb(33, 37, 41);border-block-end-style:none;border-block-end-width:0px;border-block-start-color:rgb(33, 37, 41);border-block-start-style:none;border-block-start-width:0px;border-bottom-color:rgb(33, 37, 41);border-bottom-left-radius:0px;border-bottom-right-radius:0px;border-bottom-style:none;border-bottom-width:0px;border-collapse:separate;border-image-outset:0;border-image-repeat:stretch;border-image-slice:100%;border-image-source:none;border-image-width:1;border-inline-end-color:rgb(33, 37, 41);border-inline-end-style:none;border-inline-end-width:0px;border-inline-start-color:rgb(33, 37, 41);border-inline-start-style:none;border-inline-start-width:0px;border-left-color:rgb(33, 37, 41);border-left-style:none;border-left-width:0px;border-right-color:rgb(33, 37, 41);border-right-style:none;border-right-width:0px;border-top-color:rgb(33, 37, 41);border-top-left-radius:0px;border-top-right-radius:0px;border-top-style:none;border-top-width:0px;bottom:auto;box-shadow:none;box-sizing:border-box;break-after:auto;break-before:auto;break-inside:auto;buffered-rendering:auto;caption-side:top;caret-color:rgb(33, 37, 41);clear:none;clip:auto;clip-path:none;clip-rule:nonzero;color:rgb(33, 37, 41);color-interpolation:srgb;color-interpolation-filters:linearrgb;color-rendering:auto;column-count:auto;column-gap:normal;column-rule-color:rgb(33, 37, 41);column-rule-style:none;column-rule-width:0px;column-span:none;column-width:auto;content:normal;cursor:pointer;cx:0px;cy:0px;d:none;direction:ltr;display:inline;dominant-baseline:auto;empty-cells:show;fill:rgb(0, 0, 0);fill-opacity:1;fill-rule:nonzero;filter:none;flex-basis:auto;flex-direction:row;flex-grow:0;flex-shrink:1;flex-wrap:nowrap;float:none;flood-color:rgb(0, 0, 0);flood-opacity:1;font-family:Averta, &quot;Helvetica Neue&quot;, &quot;Open Sans&quot;, Arial, sans-serif;font-kerning:auto;font-optical-sizing:auto;font-size:16px;font-stretch:100%;font-style:normal;font-variant:normal;font-variant-caps:normal;font-variant-east-asian:normal;font-variant-ligatures:normal;font-variant-numeric:normal;font-weight:400;grid-auto-columns:auto;grid-auto-flow:row;grid-auto-rows:auto;grid-column-end:auto;grid-column-start:auto;grid-row-end:auto;grid-row-start:auto;grid-template-areas:none;grid-template-columns:none;grid-template-rows:none;height:auto;hyphens:manual;image-orientation:from-image;image-rendering:auto;inline-size:auto;inset-block-end:auto;inset-block-start:auto;inset-inline-end:auto;inset-inline-start:auto;isolation:auto;justify-content:normal;justify-items:normal;justify-self:auto;left:auto;letter-spacing:normal;lighting-color:rgb(255, 255, 255);line-break:auto;line-height:24px;list-style-image:none;list-style-position:outside;list-style-type:disc;margin-block-end:0px;margin-block-start:0px;margin-bottom:0px;margin-inline-end:0px;margin-inline-start:0px;margin-left:0px;margin-right:0px;margin-top:0px;marker-end:none;marker-mid:none;marker-start:none;mask-type:luminance;max-block-size:none;max-height:none;max-inline-size:none;max-width:none;min-block-size:0px;min-height:0px;min-inline-size:0px;min-width:0px;mix-blend-mode:normal;object-fit:fill;object-position:50% 50%;offset-distance:0px;offset-path:none;offset-rotate:auto 0deg;opacity:1;order:0;orphans:2;outline-color:rgb(33, 37, 41);outline-offset:0px;outline-style:none;outline-width:0px;overflow-anchor:auto;overflow-wrap:normal;overflow-x:visible;overflow-y:visible;overscroll-behavior-block:auto;overscroll-behavior-inline:auto;padding-block-end:0px;padding-block-start:0px;padding-bottom:0px;padding-inline-end:0px;padding-inline-start:0px;padding-left:0px;padding-right:0px;padding-top:0px;paint-order:normal;perspective:none;perspective-origin:50% 50%;pointer-events:auto;position:static;r:0px;resize:none;right:auto;row-gap:normal;ruby-position:over;rx:auto;ry:auto;scroll-behavior:auto;scroll-margin-block-end:0px;scroll-margin-block-start:0px;scroll-margin-inline-end:0px;scroll-margin-inline-start:0px;scroll-padding-block-end:auto;scroll-padding-block-start:auto;scroll-padding-inline-end:auto;scroll-padding-inline-start:auto;shape-image-threshold:0;shape-margin:0px;shape-outside:none;shape-rendering:auto;speak:normal;stop-color:rgb(0, 0, 0);stop-opacity:1;stroke:none;stroke-dasharray:none;stroke-dashoffset:0px;stroke-linecap:butt;stroke-linejoin:miter;stroke-miterlimit:4;stroke-opacity:1;stroke-width:1px;tab-size:8;table-layout:auto;text-align:center;text-align-last:auto;text-anchor:start;text-decoration:none solid rgb(33, 37, 41);text-decoration-color:rgb(33, 37, 41);text-decoration-line:none;text-decoration-skip-ink:auto;text-decoration-style:solid;text-indent:0px;text-overflow:clip;text-rendering:auto;text-shadow:none;text-size-adjust:100%;text-transform:none;text-underline-position:auto;top:auto;touch-action:auto;transform:none;transform-origin:0px 0px;transform-style:flat;transition-delay:0s;transition-duration:0s;transition-property:all;transition-timing-function:ease;unicode-bidi:normal;user-select:auto;vector-effect:none;vertical-align:baseline;visibility:visible;white-space:normal;widows:2;width:auto;will-change:auto;word-break:normal;word-spacing:0px;writing-mode:horizontal-tb;x:0px;y:0px;z-index:auto;zoom:1;-webkit-app-region:none;-webkit-border-horizontal-spacing:0px;-webkit-border-image:none;-webkit-border-vertical-spacing:0px;-webkit-box-align:stretch;-webkit-box-decoration-break:slice;-webkit-box-direction:normal;-webkit-box-flex:0;-webkit-box-ordinal-group:1;-webkit-box-orient:horizontal;-webkit-box-pack:start;-webkit-box-reflect:none;-webkit-font-smoothing:antialiased;-webkit-highlight:none;-webkit-hyphenate-character:auto;-webkit-line-break:auto;-webkit-line-clamp:none;-webkit-locale:&quot;en&quot;;-webkit-mask-box-image:none;-webkit-mask-box-image-outset:0;-webkit-mask-box-image-repeat:stretch;-webkit-mask-box-image-slice:0 fill;-webkit-mask-box-image-source:none;-webkit-mask-box-image-width:auto;-webkit-mask-clip:border-box;-webkit-mask-composite:source-over;-webkit-mask-image:none;-webkit-mask-origin:border-box;-webkit-mask-position:0% 0%;-webkit-mask-repeat:repeat;-webkit-mask-size:auto;-webkit-print-color-adjust:economy;-webkit-rtl-ordering:logical;-webkit-tap-highlight-color:rgba(0, 0, 0, 0);-webkit-text-combine:none;-webkit-text-decorations-in-effect:none;-webkit-text-emphasis-color:rgb(33, 37, 41);-webkit-text-emphasis-position:over right;-webkit-text-emphasis-style:none;-webkit-text-fill-color:rgb(33, 37, 41);-webkit-text-orientation:vertical-right;-webkit-text-security:none;-webkit-text-stroke-color:rgb(33, 37, 41);-webkit-text-stroke-width:0px;-webkit-user-drag:auto;-webkit-user-modify:read-only;-webkit-writing-mode:horizontal-tb;">
		Boy</title>
	<g>
		<path fill="#5152A3" d="M495.076,396.527c-2.368-0.141-5.036-3.094-5.036-3.094l-5.296-0.751c0,0-1.635,5.438,0.129,6.564
			c1.766,1.125,12.398,1.451,12.398,0C497.271,397.792,497.1,396.621,495.076,396.527z"/>
		<path fill="#5152A3" d="M459.046,396.338c-2.065-1.265-3.229-5.249-3.229-5.249l-4.434-3.234c0,0-3.745,4.078-2.582,5.905
			c1.161,1.829,10.459,7.408,11.062,6.096C460.468,398.543,460.812,397.465,459.046,396.338z"/>
	</g>
	
		<linearGradient id="SVGID_9_" gradientUnits="userSpaceOnUse" x1="1493.9805" y1="25.5503" x2="1610.2061" y2="25.5503" gradientTransform="matrix(0.7201 0 0 -0.7201 -630.1002 332.1043)">
		<stop  offset="0" style="stop-color:#F47B59"/>
		<stop  offset="0.5" style="stop-color:#F8C548"/>
		<stop  offset="1" style="stop-color:#F89D53"/>
	</linearGradient>
	<path fill="url(#SVGID_9_)" d="M466.967,241.546c0,0,5.079-11.72,13.258-5.626c8.18,6.095,8.351,14.111,5.898,17.955
		c-2.885,4.547-2.153,8.251-1.637,9.704c0.129,0.422,0.429,0.796,0.775,0.983l13.817,8.439l5.51,5.672l13.259-18.189
		c0,0,2.152-3.281,6.027-3.281c3.872,0,5.595,1.406,5.595,1.406s0.431,1.875-4.306,3.281l-4.734,1.407l-12.053,23.439
		c0,0-3.572,1.641-7.403-1.829c-3.357-3.047-6.501-6.328-9.385-9.891l-0.43,54.378l1.463,15.564l-0.602,9.188
		c0.042,0.843-0.303,9.938-0.345,10.78l-0.948,14.064l-1.16,14.251l-4.823-0.656l-0.818-10.313l-1.894-37.08l-0.215-33.519
		l-8.352,21.002l0.302,12.234l-6.888,23.253c-0.3,0.984-0.645,1.921-1.075,2.813l-9.857,20.252l-4.649-3.142l5.295-14.626
		c0.559-1.265,3.314-10.969,3.658-12.329l3.53-18.188l15.323-63.615l-7.704,4.267c0,0-5.64,13.735-6.5,15.143
		c-0.86,1.405-11.149,15.563-11.58,17.438c-0.431,1.876-2.064,5.485-4.218,6.423c-2.152,0.938-6.026,2.484-0.43-6.423
		c4.39-6.984,7.188-12.188,8.221-14.063c0.258-0.516,0.518-1.03,0.733-1.594l5.811-15.939l9.255-16.172l1.248-0.984l2.626-2.251
		c0.344-0.28,0.515-0.749,0.473-1.219c-0.302-2.156-1.334-4.124-2.927-5.438C471.1,255.891,464.987,250.922,466.967,241.546z"/>
	
		<linearGradient id="SVGID_10_" gradientUnits="userSpaceOnUse" x1="607.1094" y1="417.6274" x2="648.9492" y2="417.6274" gradientTransform="matrix(0.7201 0 0 -0.7201 26.4047 626.3982)">
		<stop  offset="0" style="stop-color:#5051A2"/>
		<stop  offset="1" style="stop-color:#5BCAE9"/>
	</linearGradient>
	<polygon fill="url(#SVGID_10_)" points="468.774,312.52 463.61,342.992 473.94,345.335 480.397,320.021 481.945,345.289 
		492.751,345.289 493.741,305.958 	"/>
	
		<linearGradient id="SVGID_11_" gradientUnits="userSpaceOnUse" x1="1518.1992" y1="60.7681" x2="1569.8447" y2="60.7681" gradientTransform="matrix(0.7201 0 0 -0.7201 -630.1002 332.1043)">
		<stop  offset="0" style="stop-color:#D4A6CD"/>
		<stop  offset="1" style="stop-color:#6C62AB"/>
	</linearGradient>
	<path fill="url(#SVGID_11_)" d="M463.222,284.909c0,0,3.315-13.032,9.987-17.344c0.688-0.424,1.893-1.782,1.98-0.985
		c0.129,1.406,0.859,4.688,3.873,4.688c4.735,0,6.113-4.313,6.113-6.656c0-0.703,2.667-0.563,4.993-0.141
		c2.195,0.375,4.39,1.406,5.854,3.188l4.391,6.703l-4.091,4.924l-1.289,0.749l-1.293,25.971c0,0-9.514,4.781-18.079,6.094
		c-2.282,0.281-4.606,0.469-6.888,0.469l1.722-26.721L463.222,284.909z"/>
	
		<linearGradient id="SVGID_12_" gradientUnits="userSpaceOnUse" x1="1522.6416" y1="121.439" x2="1551.374" y2="121.439" gradientTransform="matrix(0.7201 0 0 -0.7201 -630.1002 332.1043)">
		<stop  offset="0" style="stop-color:#5051A2"/>
		<stop  offset="1" style="stop-color:#5BCAE9"/>
	</linearGradient>
	<path fill="url(#SVGID_12_)" d="M469.937,249.797c1.506-1.969,3.143-3.798,4.907-5.485c2.498-2.25,3.788-3.563,3.788-3.563
		s3.4,2.721,4.779,3.236c1.376,0.515,3.442,1.453,3.442,1.453s1.163-4.22-1.722-4.735c-2.884-0.516-11.535-3.938-13.344-2.438
		c-1.808,1.499-4.865,5.813-5.295,7.876c-0.431,2.062,0.645,4.733,1.333,5.25c0.389,0.28-0.688-2.11-0.084-2.578
		C468.172,248.39,469.937,249.797,469.937,249.797z"/>
	<path fill="#5152A3" d="M466.493,246.141l26.989-6.893c0,0,0.518-1.359-0.473-1.406c-0.989-0.047-7.146,2.204-7.146,2.204
		s-2.669-8.532-11.363-8.345c0,0,0.344-0.844-0.129-0.891c-0.475-0.047-2.712,0.609-2.885,0.797
		c-0.171,0.188,0.344,0.75,0.087,0.984C471.315,232.827,463.739,236.765,466.493,246.141z"/>
	<path opacity="0.07" fill="#010101" enable-background="new    " d="M485.349,254.86c0,0-1.767,2.391-3.187,2.907
		c-1.421,0.516-0.603,0.562,0,2.484c0.301,1.03,0.731,1.969,1.291,2.859C483.453,263.111,484.228,255.563,485.349,254.86z"/>
	<path opacity="0.07" fill="#010101" enable-background="new    " d="M471.573,232.639c0,0,1.204,1.266,0.43,4.594
		c-0.773,3.328-1.032,4.359-0.388,5.626c0.646,1.266,0.173,1.969,0.173,1.969l-5.295,1.359
		C466.537,246.141,463.222,237.703,471.573,232.639z"/>
	<path opacity="0.07" fill="#010101" enable-background="new    " d="M470.496,285.8c0,0,1.679-2.627,1.852-5.017
		c0.172-2.391-0.774,4.734,0.302,9.001c1.076,4.266-0.173,7.969,2.023,9.469c2.193,1.501,0.473,6.61,0.945,8.813
		c0.302,1.313,1.163,2.391,2.324,2.906c0,0-0.3,1.173-4.046,1.359c-3.745,0.188-5.122,0.188-5.122,0.188L470.496,285.8z"/>
</g>
<path fill="#0A587B" d="M444.489,384.084c-6.478,3.453-13.353,6.234-20.499,8.296h-0.154c-0.699-0.308-1.539-0.036-1.874,0.604
	c-0.007,0.017-0.015,0.032-0.025,0.048c-4.414,1.206-8.911,2.151-13.458,2.832c-5.835,0.864-10.681-3.1-16.655-3.383
	c0-21.055-0.106-81.017,9.663-93.688l28.881-8.864c0.137,2.181,14.03,16.99,13.689,34.958c-0.22,15.972,0.635,31.94,2.563,47.814"/>
<g>
	<g id="Layer_18">
		
			<linearGradient id="SVGID_13_" gradientUnits="userSpaceOnUse" x1="1336.6318" y1="288.981" x2="1451.3779" y2="288.981" gradientTransform="matrix(0.5942 0 0 0.5942 -512.6353 305.8235)">
			<stop  offset="0" style="stop-color:#A3D287"/>
			<stop  offset="0.51" style="stop-color:#31BEBE"/>
			<stop  offset="1" style="stop-color:#97CF8F"/>
		</linearGradient>
		<path fill="url(#SVGID_13_)" d="M342.152,502.243c0,0,5.188-23.222-22.17-35.653c-27.357-12.431-28.644-12.285-34.051-13.708
			c-3.104-0.874-6.297,0.948-2.705,4.668c3.591,3.719,1.552,4.664,8.733,6.307c7.184,1.64,8.291,8.858,11.884,10.645
			c3.591,1.785,6.74,2.26,17.734,6.161c9.978,3.535,18.491,13.525,18.491,17.06c0,3.536,9.754,4.704,9.754,4.704L342.152,502.243z"
			/>
		
			<linearGradient id="SVGID_14_" gradientUnits="userSpaceOnUse" x1="1379.5664" y1="257.7251" x2="1438.6472" y2="330.1596" gradientTransform="matrix(0.5942 0 0 0.5942 -512.6353 305.8235)">
			<stop  offset="0" style="stop-color:#A3D287"/>
			<stop  offset="0.51" style="stop-color:#31BEBE"/>
			<stop  offset="1" style="stop-color:#97CF8F"/>
		</linearGradient>
		<path fill="url(#SVGID_14_)" d="M341.178,498.998c0,0,6.959-21.361-16.982-32.919c-23.944-11.555-32.322-11.409-37.067-12.795
			c-2.705-0.803,4.745,1.969,7.848,5.396c3.104,3.425,2.351,2.66,7.982,5.213c6.517,2.951,9.222,5.831,13.035,6.414
			c5.542,0.874,3.9,5.615,13.522,9.188c8.69,3.243,9.799,11.92,9.799,15.2c0,3.282,8.514,4.376,8.514,4.376L341.178,498.998z"/>
		
			<linearGradient id="SVGID_15_" gradientUnits="userSpaceOnUse" x1="1458.4688" y1="339.3071" x2="1542.9399" y2="273.948" gradientTransform="matrix(0.5942 0 0 0.5942 -512.6353 305.8235)">
			<stop  offset="0" style="stop-color:#A3D287"/>
			<stop  offset="0.51" style="stop-color:#31BEBE"/>
			<stop  offset="1" style="stop-color:#97CF8F"/>
		</linearGradient>
		<path fill="url(#SVGID_15_)" d="M365.297,495.865l2.705-2.117c1.286-0.982,2.882-1.713,4.611-2.077
			c8.469-1.823,35.071-8.675,46.112-25.227c0.087-0.146,0-0.327-0.177-0.4h-0.045c-0.043,0-0.089-0.036-0.132-0.036
			c-3.681-0.22-22.614-0.474-47.931,17.279c-0.445,0.291-0.888,0.656-1.242,1.021c-0.621,0.728-1.686,1.968-2.174,2.625
			c-0.665,0.947,0.667,2.551-1.106,3.974c-1.774,1.422-5.587,4.959-5.587,4.959l3.104,1.894L365.297,495.865z"/>
		
			<linearGradient id="SVGID_16_" gradientUnits="userSpaceOnUse" x1="1470.9941" y1="305.6606" x2="1405.245" y2="222.426" gradientTransform="matrix(0.5942 0 0 0.5942 -512.6353 305.8235)">
			<stop  offset="0" style="stop-color:#A3D287"/>
			<stop  offset="0.51" style="stop-color:#31BEBE"/>
			<stop  offset="1" style="stop-color:#97CF8F"/>
		</linearGradient>
		<path fill="url(#SVGID_16_)" d="M350.888,494.478c0,0,7.271-53.442-12.549-70.249c-18.267-15.456-18.533-1.239-18.489,1.166
			c0,0.219,0.089,0.401,0.178,0.583c4.3,6.599,5.809,14.218,4.257,21.582c-1.863,7.729,11.571,6.707,12.726,14.328
			c1.152,7.619,5.854,19.356,5.363,24.752c-0.487,5.395-0.531,10.644-0.531,10.644l7.315,0.183L350.888,494.478z"/>
		
			<linearGradient id="SVGID_17_" gradientUnits="userSpaceOnUse" x1="1401.2217" y1="254.8853" x2="1455.3887" y2="254.8853" gradientTransform="matrix(0.5942 0 0 0.5942 -512.6353 305.8235)">
			<stop  offset="0" style="stop-color:#A3D287"/>
			<stop  offset="0.51" style="stop-color:#31BEBE"/>
			<stop  offset="1" style="stop-color:#97CF8F"/>
		</linearGradient>
		<path fill="url(#SVGID_17_)" d="M350.8,494.661c0.043-0.11,0.088-0.256,0.131-0.364c0.443-3.5,6.563-53.845-12.592-70.067
			c-18.134-15.384-18.4-1.459-18.312,1.058c0.045,0.292,0.222,0.584,0.399,0.838c1.33,1.604,7.316,8.604,12.636,7.801
			c14.677-2.149,1.73,12.36,9.711,20.124c6.384,6.125,4.258,27.269,3.77,32.699c-0.313,3.063-0.934,6.053-1.865,9.041
			c-0.175,0.767,0.444,1.494,1.332,1.641c0.045,0,0.089,0,0.133,0c0.134,0,0.222,0.036,0.355,0.036h1.33
			c0.797,0.037,1.508-0.291,1.86-0.874L350.8,494.661z"/>
		
			<linearGradient id="SVGID_18_" gradientUnits="userSpaceOnUse" x1="1458.2676" y1="333.0542" x2="1510.661" y2="257.2824" gradientTransform="matrix(0.5942 0 0 0.5942 -512.6353 305.8235)">
			<stop  offset="0" style="stop-color:#A3D287"/>
			<stop  offset="0.51" style="stop-color:#31BEBE"/>
			<stop  offset="1" style="stop-color:#97CF8F"/>
		</linearGradient>
		<path fill="url(#SVGID_18_)" d="M357.938,497.758c0,0,1.285-14.8,11.793-23.842c2.928-2.479,6.651-4.192,10.731-4.958
			c3.146-0.582,8.291-2.66,12.769-9.587c0,0,8.47-9.844,16.938-12.832c8.468-2.99,0-3.354,0-3.354s-24.209,3.791-39.728,15.457
			c-0.976,0.729-1.996,1.421-3.105,2.005c-4.033,2.26-15.163,10.79-14.675,35.689L357.938,497.758z"/>
		
			<linearGradient id="SVGID_19_" gradientUnits="userSpaceOnUse" x1="1416.9199" y1="345.6802" x2="1500.5225" y2="345.6802" gradientTransform="matrix(0.5942 0 0 0.5942 -512.6353 305.8235)">
			<stop  offset="0" style="stop-color:#D4A6CD"/>
			<stop  offset="1" style="stop-color:#6C62AB"/>
		</linearGradient>
		<path fill="url(#SVGID_19_)" d="M378.954,496.556c0,0,0.354-1.787-2.527-1.75c-2.528,0.073-45.271-0.183-45.271-0.183
			s-1.995,0-1.861,1.241c0.132,1.238,6.604,30.511,7.227,31.13c0.268,0.366,0.709,0.657,1.241,0.767
			c0.798,0.183,30.815,0.036,30.815,0.036c0.71-0.073,1.241-0.548,1.285-1.131C369.819,526.704,379.042,496.92,378.954,496.556"/>
	</g>
</g>
<title>ZZ</title>
<title>ZZ</title>
<path fill="#842761" d="M620.546,477.166l63.349-49.843c2.016-1.51,3.743-3.983,1.778-5.604l-63.57-48.775
	c-0.952-0.788-2.401-1.303-3.371-0.552l-66.485,51.378c-2.017,1.558-2.377,5.901-0.37,7.472l60.324,45.835
	C614.776,479.069,617.951,479.101,620.546,477.166z"/>
<linearGradient id="SVGID_20_" gradientUnits="userSpaceOnUse" x1="713.335" y1="716.9575" x2="699.7082" y2="705.8669" gradientTransform="matrix(1 0 0 -1 -108.8999 1163.7646)">
	<stop  offset="0" style="stop-color:#D5A498"/>
	<stop  offset="1" style="stop-color:#FFFFFF"/>
</linearGradient>
<path fill="url(#SVGID_20_)" d="M592.997,445.09l-10.067,7.438c0,0,9.406,9.873,13.628,12.254l10.08-7.989"/>
<linearGradient id="SVGID_21_" gradientUnits="userSpaceOnUse" x1="708.8516" y1="748.3091" x2="696.3429" y2="738.1276" gradientTransform="matrix(1 0 0 -1 -108.8999 1163.7646)">
	<stop  offset="0" style="stop-color:#D5A498"/>
	<stop  offset="1" style="stop-color:#FFFFFF"/>
</linearGradient>
<path fill="url(#SVGID_21_)" d="M592.587,415.345l-10.068,7.439c0,0,2.412,5.08,6.648,7.439l10.883-7.989"/>
<linearGradient id="SVGID_22_" gradientUnits="userSpaceOnUse" x1="757.4346" y1="736.4673" x2="749.8474" y2="725.2904" gradientTransform="matrix(1 0 0 -1 -108.8999 1163.7646)">
	<stop  offset="0.01" style="stop-color:#4E4E4E"/>
	<stop  offset="1" style="stop-color:#FFFFFF"/>
</linearGradient>
<path fill="url(#SVGID_22_)" d="M647.049,444.68c0,0,12.171-9.071,12.246-9.225l-18.909-12.671l-10.634,8.173L647.049,444.68z"/>
<path fill="#7CD2EE" d="M661.011,407.634l15.44,12.741c0.449,0.369,0.587,1.154,0.312,1.752c-0.084,0.184-0.205,0.334-0.345,0.441
	l-23.434,17.628c-0.662,0.509-1.479,0.509-2.142,0l-15.369-12.027c-1.107-1.221-0.806-3.028,0-3.62l23.297-16.955
	C659.465,407.057,660.325,407.071,661.011,407.634z"/>
<path fill="#FFFFFF" d="M661.011,406.76l15.44,12.738c0.449,0.37,0.587,1.155,0.312,1.755c-0.084,0.181-0.205,0.334-0.345,0.439
	l-23.429,17.644c-0.664,0.508-1.479,0.508-2.143,0l-15.369-12.029c-0.566-0.438-0.761-1.407-0.434-2.164
	c0.105-0.237,0.255-0.436,0.434-0.574l23.297-17.828C659.465,406.197,660.324,406.205,661.011,406.76z"/>
<polygon fill="#616161" points="659.985,407.448 675.501,420.449 652.295,438.125 636.282,425.592 "/>
<ellipse fill="#3B3594" cx="643.271" cy="432.378" rx="0.552" ry="0.344"/>
<linearGradient id="SVGID_23_" gradientUnits="userSpaceOnUse" x1="771.2266" y1="740.2769" x2="768.4601" y2="736.2009" gradientTransform="matrix(1 0 0 -1 -108.8999 1163.7646)">
	<stop  offset="0.01" style="stop-color:#4E4E4E"/>
	<stop  offset="1" style="stop-color:#FFFFFF"/>
</linearGradient>
<path fill="url(#SVGID_23_)" d="M660.557,428.995c0,0,2.021-5.002,2.031-5.023l-0.347-0.231l-4.293,3.298L660.557,428.995z"/>
<path fill="#CDCCCC" d="M678.704,410.549c-0.007-0.035-0.007-0.071,0-0.107c-0.211-0.146-0.438-0.248-0.673-0.299l-14.404,11.444
	c0,0-0.864,0.901,0.738,2.117l14.623-11.57C678.975,411.584,678.876,411.047,678.704,410.549z"/>
<path fill="#CDCCCC" d="M663.598,421.584c0,0-1.678,2.497-1.708,2.661c-0.028,0.162,2.428-0.546,2.428-0.546"/>
<path fill="#F3F3F3" d="M678.052,410.103c0.266-0.205,0.677,0.087,0.923,0.647c0.243,0.563,0.227,1.184-0.04,1.388
	c-0.264,0.203-0.676-0.088-0.922-0.649C677.771,410.927,677.787,410.305,678.052,410.103z"/>
<path fill="#57413E" d="M605.907,405.619l6.051,3.879c0.691,0.446,0.981,1.554,0.646,2.476c-0.121,0.334-0.313,0.609-0.55,0.795
	l-14.343,11.138c-0.646,0.5-1.471,0.236-1.874-0.6l-3.483-7.204"/>
<path fill="#7CD2EE" d="M572.985,386.962l48.261-37.013c1.04-0.801,2.371-0.329,2.974,1.058c0.191,0.442,0.292,0.944,0.292,1.454
	v38.503c0,0.862-0.346,1.655-0.905,2.086l-51.44,39.531c-0.558,0.427-1.272,0.173-1.596-0.569c-0.102-0.239-0.156-0.508-0.156-0.78
	v-38.354C570.418,390.436,571.397,388.183,572.985,386.962z"/>
<path fill="#FFFFFF" d="M621.238,352.861l-46.79,35.844c-1.018,0.778-1.644,2.222-1.644,3.785v28.864
	c0.001,0.87,0.534,1.576,1.188,1.575c0.205-0.003,0.406-0.073,0.584-0.208l47.722-36.458c0.362-0.275,0.589-0.789,0.589-1.347
	v-30.771c-0.004-0.815-0.502-1.473-1.113-1.472C621.588,352.675,621.401,352.739,621.238,352.861z"/>
<path fill="#AB643C" d="M600.77,405.512c0.122-0.84,0.666-1.406,1.217-1.264c0.55,0.143,0.899,0.937,0.777,1.776
	c-0.12,0.839-0.666,1.406-1.216,1.265C600.996,407.15,600.649,406.354,600.77,405.512z"/>
<path fill="#984D26" d="M623.617,422.263l12.625,9.603c0.415,0.321,0.558,1.026,0.317,1.579c-0.076,0.176-0.186,0.321-0.317,0.424
	l-35.065,26.858c-0.866,0.662-1.933,0.662-2.798,0l-11.819-9.082c-0.432-0.334-0.579-1.072-0.329-1.647
	c0.078-0.183,0.193-0.333,0.329-0.438l35.48-27.287C622.525,421.893,623.128,421.889,623.617,422.263z"/>
<path fill="#FFFFFF" d="M604.542,437.577l3.604,2.841l-2.674,2.069c-0.74-0.584-2.92-2.286-3.617-2.832L604.542,437.577z"/>
<path fill="#FFFFFF" d="M608.488,434.523l3.605,2.842l-3.388,2.621c-0.591-0.459-2.772-2.175-3.615-2.833L608.488,434.523z"/>
<path fill="#FFFFFF" d="M622.835,423.432l3.659,2.799l-3.258,2.52c-0.516-0.4-2.725-2.135-3.615-2.834L622.835,423.432z"/>
<path fill="#FFFFFF" d="M615.122,429.379l3.604,2.841l-2.673,2.065c-0.633-0.491-2.808-2.197-3.617-2.832L615.122,429.379z"/>
<path fill="#FFFFFF" d="M619.07,426.338l3.605,2.845l-3.401,2.62c-0.399-0.306-2.666-2.086-3.617-2.833L619.07,426.338z"/>
<path fill="#FFFFFF" d="M601.306,440.08l3.604,2.841l-2.559,1.968c-0.768-0.6-2.934-2.297-3.616-2.833L601.306,440.08z"/>
<path fill="#FFFFFF" d="M611.886,431.896l3.605,2.842l-2.833,2.19c-0.664-0.493-2.831-2.219-3.615-2.834L611.886,431.896z"/>
<path fill="#FFFFFF" d="M598.182,442.493l3.608,2.842l-3.389,2.622c-0.71-0.553-2.87-2.248-3.615-2.833L598.182,442.493z"/>
<polygon fill="#FFFFFF" points="594.231,445.545 597.837,448.388 591.761,453.085 588.097,450.287 "/>
<path fill="#FFFFFF" d="M626.964,427.062l3.66,2.799l-4.732,3.659c-0.62-0.492-2.795-2.189-3.614-2.835L626.964,427.062z"/>
<path fill="#FFFFFF" d="M617.773,434.163l3.606,2.844l-2.675,2.069c-0.715-0.557-2.879-2.253-3.616-2.833L617.773,434.163z"/>
<path fill="#FFFFFF" d="M611.146,439.292l3.606,2.843l-3.387,2.62c-0.68-0.526-2.844-2.229-3.615-2.833L611.146,439.292z"/>
<path fill="#FFFFFF" d="M614.538,436.665l3.604,2.845l-2.831,2.186c-0.738-0.574-2.907-2.274-3.616-2.83L614.538,436.665z"/>
<path fill="#FFFFFF" d="M607.192,442.346l3.604,2.841l-2.673,2.071c-0.829-0.646-3.002-2.355-3.615-2.832L607.192,442.346z"/>
<path fill="#FFFFFF" d="M603.958,444.848l3.603,2.841l-2.558,1.968c-0.842-0.653-3.023-2.369-3.618-2.833L603.958,444.848z"/>
<path fill="#FFFFFF" d="M621.724,431.11l3.604,2.842l-3.387,2.616c-0.536-0.413-2.742-2.145-3.615-2.833L621.724,431.11z"/>
<path fill="#FFFFFF" d="M600.835,447.263l3.605,2.84l-3.388,2.622c-0.783-0.608-2.955-2.31-3.615-2.833L600.835,447.263z"/>
<polygon fill="#FFFFFF" points="600.489,453.159 595.886,456.713 592.226,453.917 596.884,450.311 "/>
<polygon fill="#FFFFFF" points="603.186,452.671 605.866,454.792 602.756,457.186 600.034,455.105 "/>
<polygon fill="#FFFFFF" points="602.114,457.681 599.469,459.723 596.743,457.648 599.435,455.569 "/>
<polygon fill="#FFFFFF" points="631.478,430.793 634.286,432.866 631.101,435.323 628.346,433.213 "/>
<polygon fill="#FFFFFF" points="627.75,433.675 630.458,435.816 627.06,438.442 624.309,436.337 "/>
<polygon fill="#FFFFFF" points="623.709,436.799 626.413,438.938 606.513,454.29 603.783,452.205 "/>
<linearGradient id="SVGID_24_" gradientUnits="userSpaceOnUse" x1="2283.8418" y1="770.4536" x2="2278.418" y2="764.5111" gradientTransform="matrix(1 0 0 -1 -1647.8301 1163.7646)">
	<stop  offset="0" style="stop-color:#78B46A"/>
	<stop  offset="0.03" style="stop-color:#7F381A"/>
	<stop  offset="1" style="stop-color:#FFFFFF"/>
</linearGradient>
<path fill="url(#SVGID_24_)" d="M632.593,391.516l-5.172,4.065c0,0,1.596,3.729,5.542,5.932l6.005-4.299"/>
<ellipse fill="#7CD2EE" cx="636.786" cy="393.064" rx="4.781" ry="4.485"/>
<ellipse fill="#984D26" cx="636.789" cy="390.413" rx="3.582" ry="1.953"/>
<path fill="#989A37" d="M637.025,390.458c0.28-0.526,0.565-1.077,0.86-1.697c0.37-0.791,0.739-1.598,1.06-2.433
	c0.303-0.74,0.561-1.509,0.772-2.302c0.235-0.862,0.424-1.744,0.565-2.642c0.036-0.236,0.066-0.492,0.1-0.708
	c0-0.107,0-0.097,0-0.082c0,0.013,0-0.075,0-0.208c0.033-0.492,0.056-0.984,0.06-1.444c0.016-1.673-0.228-3.332-0.714-4.874
	c-1.291,2.499-2.164,5.339-2.557,8.325c-0.024,0.176-0.045,0.355-0.069,0.535c-0.034,0.271-0.037,0.326-0.051,0.459l-0.037,0.446
	c-0.018,0.227-0.033,0.456-0.047,0.685c-0.053,0.879-0.079,1.76-0.074,2.64C636.922,388.259,636.958,389.362,637.025,390.458z
	 M638.546,377.301c0.087-0.132,0.177-0.26,0.271-0.385l0,0c-0.018,0.113-0.018,0.23,0,0.345c-0.089-0.007-0.179,0.006-0.266,0.04
	H638.546z"/>
<path fill="#989A37" d="M637.116,390.533c0.026-0.644,0.039-1.315,0.034-2.046c0-0.939-0.034-1.874-0.095-2.809
	c-0.047-0.84-0.141-1.673-0.285-2.493c-0.152-0.894-0.349-1.774-0.595-2.631c-0.067-0.225-0.133-0.446-0.207-0.668
	c-0.033-0.104-0.025-0.094-0.02-0.079l-0.073-0.181c-0.17-0.427-0.343-0.852-0.536-1.259c-0.667-1.422-1.547-2.643-2.583-3.59
	c-0.076,3.033,0.343,6.054,1.229,8.851c0.052,0.166,0.105,0.331,0.158,0.491l0.145,0.424l0.151,0.406
	c0.076,0.205,0.156,0.408,0.236,0.61c0.314,0.777,0.651,1.536,1.01,2.277C636.135,388.766,636.615,389.663,637.116,390.533z
	 M633.055,378.368c0.02-0.174,0.044-0.339,0.071-0.491l0,0c0.024,0.108,0.066,0.212,0.124,0.299
	c-0.073,0.053-0.136,0.118-0.195,0.197V378.368z"/>
<path fill="#989A37" d="M637.141,390.876c-0.144-0.359-0.299-0.724-0.479-1.121c-0.229-0.49-0.471-0.983-0.737-1.476
	c-0.231-0.434-0.487-0.84-0.769-1.22c-0.299-0.419-0.62-0.808-0.961-1.165l-0.258-0.279c-0.044-0.04-0.036-0.04-0.029-0.035
	l-0.087-0.069c-0.194-0.157-0.391-0.311-0.595-0.446c-0.701-0.483-1.47-0.765-2.259-0.832c0.694,1.668,1.652,3.115,2.808,4.244
	l0.207,0.2l0.176,0.167l0.182,0.154l0.277,0.227c0.356,0.285,0.727,0.549,1.107,0.796
	C636.18,390.341,636.655,390.622,637.141,390.876z M631.999,386.057c-0.032-0.102-0.063-0.206-0.09-0.309l0,0
	c0.041,0.047,0.088,0.086,0.139,0.107C632.024,385.918,632.007,385.988,631.999,386.057z"/>
<path fill="#989A37" d="M637.025,390.458c0.28-0.526,0.565-1.077,0.86-1.697c0.37-0.791,0.739-1.598,1.06-2.433
	c0.303-0.74,0.561-1.509,0.772-2.302c0.235-0.862,0.424-1.744,0.565-2.642c0.036-0.236,0.066-0.492,0.1-0.708
	c0-0.107,0-0.097,0-0.082c0,0.013,0-0.075,0-0.208c0.033-0.492,0.056-0.984,0.06-1.444c0.016-1.673-0.228-3.332-0.714-4.874
	c-1.291,2.499-2.164,5.339-2.557,8.325c-0.024,0.176-0.045,0.355-0.069,0.535c-0.034,0.271-0.037,0.326-0.051,0.459l-0.037,0.446
	c-0.018,0.227-0.033,0.456-0.047,0.685c-0.053,0.879-0.079,1.76-0.074,2.64C636.922,388.259,636.958,389.362,637.025,390.458z
	 M638.546,377.301c0.087-0.132,0.177-0.26,0.271-0.385l0,0c-0.018,0.113-0.018,0.23,0,0.345c-0.089-0.007-0.179,0.006-0.266,0.04
	H638.546z"/>
<path fill="#989A37" d="M637.116,390.533c0.026-0.644,0.039-1.315,0.034-2.046c0-0.939-0.034-1.874-0.095-2.809
	c-0.047-0.84-0.141-1.673-0.285-2.493c-0.152-0.894-0.349-1.774-0.595-2.631c-0.067-0.225-0.133-0.446-0.207-0.668
	c-0.033-0.104-0.025-0.094-0.02-0.079l-0.073-0.181c-0.17-0.427-0.343-0.852-0.536-1.259c-0.667-1.422-1.547-2.643-2.583-3.59
	c-0.076,3.033,0.343,6.054,1.229,8.851c0.052,0.166,0.105,0.331,0.158,0.491l0.145,0.424l0.151,0.406
	c0.076,0.205,0.156,0.408,0.236,0.61c0.314,0.777,0.651,1.536,1.01,2.277C636.135,388.766,636.615,389.663,637.116,390.533z
	 M633.055,378.368c0.02-0.174,0.044-0.339,0.071-0.491l0,0c0.024,0.108,0.066,0.212,0.124,0.299
	c-0.073,0.053-0.136,0.118-0.195,0.197V378.368z"/>
<path fill="#989A37" d="M637.141,390.876c-0.144-0.359-0.299-0.724-0.479-1.121c-0.229-0.49-0.471-0.983-0.737-1.476
	c-0.231-0.434-0.487-0.84-0.769-1.22c-0.299-0.419-0.62-0.808-0.961-1.165l-0.258-0.279c-0.044-0.04-0.036-0.04-0.029-0.035
	l-0.087-0.069c-0.194-0.157-0.391-0.311-0.595-0.446c-0.701-0.483-1.47-0.765-2.259-0.832c0.694,1.668,1.652,3.115,2.808,4.244
	l0.207,0.2l0.176,0.167l0.182,0.154l0.277,0.227c0.356,0.285,0.727,0.549,1.107,0.796
	C636.18,390.341,636.655,390.622,637.141,390.876z M631.999,386.057c-0.032-0.102-0.063-0.206-0.09-0.309l0,0
	c0.041,0.047,0.088,0.086,0.139,0.107C632.024,385.918,632.007,385.988,631.999,386.057z"/>
<polygon fill="#E88830" points="582.974,410.093 600.034,398.011 589.795,384.996 "/>
<ellipse fill="#7DC791" cx="613.327" cy="372.899" rx="6.493" ry="8.645"/>
<path fill="#57413E" d="M579.383,393.106c-1.034-0.788-1.965,1.335-0.932,2.122c3.211,2.458,0.64,7.81-1.749,9.343
	c-1.071,0.684-0.138,2.808,0.93,2.124C581.363,404.301,583.815,396.432,579.383,393.106z"/>
<path fill="#57413E" d="M608.931,387.09c-0.982-6.112-7.161-2.36-6.085,3.182c0.464,2.399,2.43,3.795,4.128,2.606
	C608.497,391.714,609.288,389.381,608.931,387.09z M607.15,388.625c-0.077,0.922-0.506,1.727-1.133,2.134
	c-1.411,0.719-1.378-1.668-1.03-2.808c0.619-2.114,2.468-1.845,2.156,0.692L607.15,388.625z"/>
<path fill="#7CD2EE" d="M606.071,465.632c0.078-0.645,0.393-1.197,0.838-1.474l2.677-2.056l4.137-3.191l4.942-3.812l5.258-4.052
	l5.086-3.935l4.434-3.405l3.27-2.518l1.718-1.324c0,0.05,0.06,0.05,0.096,0.035c0.657-0.212,1.316,0.322,1.478,1.195
	c0.046,0.255,0.046,0.517,0,0.771c-0.201,1.033-0.861,1.943-1.478,2.572c-2,1.911-4.088,3.656-6.25,5.225v-1.03
	c1.456-1.062,4.597-3.442,5.909-5.262l-0.627,0.494l-1.729,1.345l-2.604,2.026l-3.25,2.527l-3.684,2.886l-3.864,3.007l-3.826,2.974
	l-3.561,2.772l-3.055,2.396l-2.354,1.829c-0.716,0.56-1.494,1.316-2.329,1.535c-0.634,0.06-1.183-0.576-1.229-1.418
	C606.074,465.708,606.071,465.67,606.071,465.632z"/>
<linearGradient id="SVGID_25_" gradientUnits="userSpaceOnUse" x1="742.1504" y1="749.0747" x2="734.8016" y2="743.0912" gradientTransform="matrix(1 0 0 -1 -108.8999 1163.7646)">
	<stop  offset="0" style="stop-color:#D5A498"/>
	<stop  offset="1" style="stop-color:#FFFFFF"/>
</linearGradient>
<path fill="url(#SVGID_25_)" d="M627.008,413.202l-5.518,4.375c0,0,3.624,4.623,7.845,6.988l5.13-4.461"/>
<polyline fill="#E54D3C" points="626.479,410.079 626.479,413.516 634.454,420.09 644.027,412.301 644.027,409.37 "/>
<polygon fill="#F1614D" points="644.027,409.37 635.898,402.893 626.479,410.079 634.609,416.654 "/>
<title  style="align-content:normal;align-items:normal;align-self:auto;alignment-baseline:auto;animation-delay:0s;animation-direction:normal;animation-duration:0s;animation-fill-mode:none;animation-iteration-count:1;animation-name:none;animation-play-state:running;animation-timing-function:ease;appearance:none;backdrop-filter:none;backface-visibility:visible;background-attachment:scroll;background-blend-mode:normal;background-clip:border-box;background-color:rgba(0, 0, 0, 0);background-image:none;background-origin:padding-box;background-position:0% 0%;background-repeat:repeat;background-size:auto;baseline-shift:0px;block-size:auto;border-block-end-color:rgb(33, 37, 41);border-block-end-style:none;border-block-end-width:0px;border-block-start-color:rgb(33, 37, 41);border-block-start-style:none;border-block-start-width:0px;border-bottom-color:rgb(33, 37, 41);border-bottom-left-radius:0px;border-bottom-right-radius:0px;border-bottom-style:none;border-bottom-width:0px;border-collapse:separate;border-image-outset:0;border-image-repeat:stretch;border-image-slice:100%;border-image-source:none;border-image-width:1;border-inline-end-color:rgb(33, 37, 41);border-inline-end-style:none;border-inline-end-width:0px;border-inline-start-color:rgb(33, 37, 41);border-inline-start-style:none;border-inline-start-width:0px;border-left-color:rgb(33, 37, 41);border-left-style:none;border-left-width:0px;border-right-color:rgb(33, 37, 41);border-right-style:none;border-right-width:0px;border-top-color:rgb(33, 37, 41);border-top-left-radius:0px;border-top-right-radius:0px;border-top-style:none;border-top-width:0px;bottom:auto;box-shadow:none;box-sizing:border-box;break-after:auto;break-before:auto;break-inside:auto;buffered-rendering:auto;caption-side:top;caret-color:rgb(33, 37, 41);clear:none;clip:auto;clip-path:none;clip-rule:nonzero;color:rgb(33, 37, 41);color-interpolation:srgb;color-interpolation-filters:linearrgb;color-rendering:auto;column-count:auto;column-gap:normal;column-rule-color:rgb(33, 37, 41);column-rule-style:none;column-rule-width:0px;column-span:none;column-width:auto;content:normal;cursor:pointer;cx:0px;cy:0px;d:none;direction:ltr;display:inline;dominant-baseline:auto;empty-cells:show;fill:rgb(0, 0, 0);fill-opacity:1;fill-rule:nonzero;filter:none;flex-basis:auto;flex-direction:row;flex-grow:0;flex-shrink:1;flex-wrap:nowrap;float:none;flood-color:rgb(0, 0, 0);flood-opacity:1;font-family:Averta, &quot;Helvetica Neue&quot;, &quot;Open Sans&quot;, Arial, sans-serif;font-kerning:auto;font-optical-sizing:auto;font-size:16px;font-stretch:100%;font-style:normal;font-variant:normal;font-variant-caps:normal;font-variant-east-asian:normal;font-variant-ligatures:normal;font-variant-numeric:normal;font-weight:400;grid-auto-columns:auto;grid-auto-flow:row;grid-auto-rows:auto;grid-column-end:auto;grid-column-start:auto;grid-row-end:auto;grid-row-start:auto;grid-template-areas:none;grid-template-columns:none;grid-template-rows:none;height:auto;hyphens:manual;image-orientation:from-image;image-rendering:auto;inline-size:auto;inset-block-end:auto;inset-block-start:auto;inset-inline-end:auto;inset-inline-start:auto;isolation:auto;justify-content:normal;justify-items:normal;justify-self:auto;left:auto;letter-spacing:normal;lighting-color:rgb(255, 255, 255);line-break:auto;line-height:24px;list-style-image:none;list-style-position:outside;list-style-type:disc;margin-block-end:0px;margin-block-start:0px;margin-bottom:0px;margin-inline-end:0px;margin-inline-start:0px;margin-left:0px;margin-right:0px;margin-top:0px;marker-end:none;marker-mid:none;marker-start:none;mask-type:luminance;max-block-size:none;max-height:none;max-inline-size:none;max-width:none;min-block-size:0px;min-height:0px;min-inline-size:0px;min-width:0px;mix-blend-mode:normal;object-fit:fill;object-position:50% 50%;offset-distance:0px;offset-path:none;offset-rotate:auto 0deg;opacity:1;order:0;orphans:2;outline-color:rgb(33, 37, 41);outline-offset:0px;outline-style:none;outline-width:0px;overflow-anchor:auto;overflow-wrap:normal;overflow-x:visible;overflow-y:visible;overscroll-behavior-block:auto;overscroll-behavior-inline:auto;padding-block-end:0px;padding-block-start:0px;padding-bottom:0px;padding-inline-end:0px;padding-inline-start:0px;padding-left:0px;padding-right:0px;padding-top:0px;paint-order:normal;perspective:none;perspective-origin:50% 50%;pointer-events:auto;position:static;r:0px;resize:none;right:auto;row-gap:normal;ruby-position:over;rx:auto;ry:auto;scroll-behavior:auto;scroll-margin-block-end:0px;scroll-margin-block-start:0px;scroll-margin-inline-end:0px;scroll-margin-inline-start:0px;scroll-padding-block-end:auto;scroll-padding-block-start:auto;scroll-padding-inline-end:auto;scroll-padding-inline-start:auto;shape-image-threshold:0;shape-margin:0px;shape-outside:none;shape-rendering:auto;speak:normal;stop-color:rgb(0, 0, 0);stop-opacity:1;stroke:none;stroke-dasharray:none;stroke-dashoffset:0px;stroke-linecap:butt;stroke-linejoin:miter;stroke-miterlimit:4;stroke-opacity:1;stroke-width:1px;tab-size:8;table-layout:auto;text-align:center;text-align-last:auto;text-anchor:start;text-decoration:none solid rgb(33, 37, 41);text-decoration-color:rgb(33, 37, 41);text-decoration-line:none;text-decoration-skip-ink:auto;text-decoration-style:solid;text-indent:0px;text-overflow:clip;text-rendering:auto;text-shadow:none;text-size-adjust:100%;text-transform:none;text-underline-position:auto;top:auto;touch-action:auto;transform:none;transform-origin:0px 0px;transform-style:flat;transition-delay:0s;transition-duration:0s;transition-property:all;transition-timing-function:ease;unicode-bidi:normal;user-select:auto;vector-effect:none;vertical-align:baseline;visibility:visible;white-space:normal;widows:2;width:auto;will-change:auto;word-break:normal;word-spacing:0px;writing-mode:horizontal-tb;x:0px;y:0px;z-index:auto;zoom:1;-webkit-app-region:none;-webkit-border-horizontal-spacing:0px;-webkit-border-image:none;-webkit-border-vertical-spacing:0px;-webkit-box-align:stretch;-webkit-box-decoration-break:slice;-webkit-box-direction:normal;-webkit-box-flex:0;-webkit-box-ordinal-group:1;-webkit-box-orient:horizontal;-webkit-box-pack:start;-webkit-box-reflect:none;-webkit-font-smoothing:antialiased;-webkit-highlight:none;-webkit-hyphenate-character:auto;-webkit-line-break:auto;-webkit-line-clamp:none;-webkit-locale:&quot;en&quot;;-webkit-mask-box-image:none;-webkit-mask-box-image-outset:0;-webkit-mask-box-image-repeat:stretch;-webkit-mask-box-image-slice:0 fill;-webkit-mask-box-image-source:none;-webkit-mask-box-image-width:auto;-webkit-mask-clip:border-box;-webkit-mask-composite:source-over;-webkit-mask-image:none;-webkit-mask-origin:border-box;-webkit-mask-position:0% 0%;-webkit-mask-repeat:repeat;-webkit-mask-size:auto;-webkit-print-color-adjust:economy;-webkit-rtl-ordering:logical;-webkit-tap-highlight-color:rgba(0, 0, 0, 0);-webkit-text-combine:none;-webkit-text-decorations-in-effect:none;-webkit-text-emphasis-color:rgb(33, 37, 41);-webkit-text-emphasis-position:over right;-webkit-text-emphasis-style:none;-webkit-text-fill-color:rgb(33, 37, 41);-webkit-text-orientation:vertical-right;-webkit-text-security:none;-webkit-text-stroke-color:rgb(33, 37, 41);-webkit-text-stroke-width:0px;-webkit-user-drag:auto;-webkit-user-modify:read-only;-webkit-writing-mode:horizontal-tb;">
	bg2</title>
</svg>
