<?xml version="1.0" encoding="utf-8"?>
<!-- Generator: Adobe Illustrator 16.0.0, SVG Export Plug-In . SVG Version: 6.00 Build 0)  -->
<!DOCTYPE svg PUBLIC "-//W3C//DTD SVG 1.1//EN" "http://www.w3.org/Graphics/SVG/1.1/DTD/svg11.dtd">
<svg version="1.1" id="Layer_1" xmlns="http://www.w3.org/2000/svg" xmlns:xlink="http://www.w3.org/1999/xlink" x="0px" y="0px"
	 width="39.906px" height="52.58px" viewBox="0 0 39.906 52.58" enable-background="new 0 0 39.906 52.58" xml:space="preserve">
<path fill="#852761" d="M10.374,47.484c0,2.262-1.738,4.096-3.881,4.096l0,0c-2.144,0-3.882-1.834-3.882-4.096V16.945
	c0-2.262,1.738-4.096,3.882-4.096l0,0c2.144,0,3.881,1.834,3.881,4.096V47.484z"/>
<path fill="#852761" d="M4.186,20.284c-1.109-0.727-1.092-2.873,0.039-4.795l0,0c1.13-1.921,2.946-2.89,4.055-2.164l14.975,9.808
	c1.108,0.725,1.091,2.873-0.04,4.793l0,0c-1.131,1.924-2.945,2.892-4.055,2.165L4.186,20.284z"/>
<path fill="#E97E3F" d="M30.032,47.484c0,2.262,1.738,4.096,3.882,4.096l0,0c2.144,0,3.881-1.834,3.881-4.096V16.946
	c0-2.262-1.737-4.096-3.881-4.096l0,0c-2.144,0-3.882,1.834-3.882,4.096V47.484z"/>
<path fill="#E97E3F" d="M36.22,20.285c1.109-0.727,1.092-2.873-0.039-4.795l0,0c-1.13-1.921-2.946-2.891-4.056-2.164l-14.974,9.808
	c-1.109,0.725-1.091,2.873,0.04,4.794l0,0c1.131,1.922,2.946,2.891,4.055,2.164L36.22,20.285z"/>
<path opacity="0.5" fill="#421533" d="M23.215,27.947c1.131-1.92,1.148-4.069,0.04-4.794l-3.052-1.999l-3.052,1.999
	c-1.109,0.725-1.092,2.874,0.04,4.794c0.82,1.394,2,2.276,3.01,2.384C21.212,30.228,22.394,29.344,23.215,27.947z"/>
<ellipse fill="#E97E3F" cx="33.914" cy="6.573" rx="3.993" ry="4.213"/>
<ellipse fill="#852761" cx="6.493" cy="6.573" rx="3.993" ry="4.213"/>
</svg>
