<?xml version="1.0" encoding="utf-8"?>
<!-- Generator: Adobe Illustrator 16.0.0, SVG Export Plug-In . SVG Version: 6.00 Build 0)  -->
<!DOCTYPE svg PUBLIC "-//W3C//DTD SVG 1.1//EN" "http://www.w3.org/Graphics/SVG/1.1/DTD/svg11.dtd">
<svg version="1.1" id="Layer_1" xmlns="http://www.w3.org/2000/svg" xmlns:xlink="http://www.w3.org/1999/xlink" x="0px" y="0px"
	 width="32px" height="32px" viewBox="0 0 32 32" enable-background="new 0 0 32 32" xml:space="preserve">
<path fill="#842761" d="M7.484,9.45v3.803c0,0,0.008,0.015,0.023,0.046c0.07,1.867,1.607,3.361,3.492,3.361l4.457,0.014v6.837H8.604
	c-0.118,0-0.235,0-0.351-0.005C8,23.538,7.74,23.551,7.479,23.551c-3.784,0-6.85-3.058-6.85-6.835c0-0.11,0.002-0.22,0.007-0.326
	c-0.028-0.576,0.006-0.941,0.006-0.941V2.615h14.813V9.45H7.484z"/>
<path fill="#E97D3E" d="M24.186,23.674V19.87c0,0-0.008-0.014-0.023-0.046c-0.069-1.867-1.607-3.36-3.491-3.36l-4.458-0.014V9.612
	h6.851c0.119,0,0.234,0,0.352,0.004c0.252-0.031,0.514-0.043,0.773-0.043c3.783,0,6.851,3.059,6.851,6.834
	c0,0.11-0.002,0.22-0.008,0.326c0.028,0.577-0.005,0.943-0.005,0.943v12.832H16.213v-6.834H24.186z"/>
<g>
</g>
<g>
</g>
<g>
</g>
<g>
</g>
<g>
</g>
<g>
</g>
</svg>
