<?xml version="1.0" encoding="utf-8"?>
<!-- Generator: Adobe Illustrator 16.0.0, SVG Export Plug-In . SVG Version: 6.00 Build 0)  -->
<!DOCTYPE svg PUBLIC "-//W3C//DTD SVG 1.1//EN" "http://www.w3.org/Graphics/SVG/1.1/DTD/svg11.dtd">
<svg version="1.1" id="Layer_1" xmlns="http://www.w3.org/2000/svg" xmlns:xlink="http://www.w3.org/1999/xlink" x="0px" y="0px"
	 width="508.001px" height="180.013px" viewBox="0 0 508.001 180.013" enable-background="new 0 0 508.001 180.013"
	 xml:space="preserve">
<path fill="#842761" d="M27.403,55.848v15.196c0,0,0.031,0.061,0.091,0.182c0.28,7.461,6.418,13.426,13.948,13.426l17.807,0.053
	v27.321H31.876c-0.47,0-0.938,0-1.4-0.016c-1.014,0.121-2.051,0.174-3.095,0.174c-15.114,0-27.366-12.222-27.366-27.306
	c0-0.438,0.007-0.878,0.03-1.301c-0.114-2.301,0.023-3.762,0.023-3.762V28.543h59.181v27.305H27.403z"/>
<path fill="#E97D3E" d="M94.122,112.676V97.479c0,0-0.03-0.062-0.091-0.183c-0.28-7.461-6.418-13.425-13.948-13.425l-17.807-0.053
	v-27.32h27.373c0.469,0,0.938,0,1.4,0.015c1.014-0.121,2.051-0.173,3.095-0.173c15.114,0,27.365,12.222,27.365,27.305
	c0,0.438-0.007,0.878-0.029,1.302c0.114,2.301-0.024,3.761-0.024,3.761v51.272h-59.18v-27.304H94.122z"/>
<g>
	<path d="M150.24,39.249h-33.414V26.995h81.334v12.254h-33.577v99.362H150.24V39.249z"/>
	<path d="M254.554,135.631c-3.749,1.987-12.062,4.637-22.656,4.637c-23.797,0-39.282-16.395-39.282-40.904
		c0-24.675,16.625-42.56,42.378-42.56c8.476,0,15.974,2.153,19.885,4.14l-3.26,11.261c-3.423-1.987-8.802-3.809-16.625-3.809
		c-18.092,0-27.872,13.58-27.872,30.305c0,18.547,11.736,29.974,27.383,29.974c8.149,0,13.528-2.152,17.603-3.975L254.554,135.631z"
		/>
	<path d="M271.34,21.033h14.344v50.012h0.326c2.282-4.14,5.868-7.783,10.269-10.267c4.238-2.484,9.291-4.14,14.669-4.14
		c10.595,0,27.546,6.624,27.546,34.28v47.694H324.15V92.574c0-12.917-4.727-23.847-18.255-23.847
		c-9.291,0-16.625,6.624-19.233,14.573c-0.815,1.987-0.978,4.14-0.978,6.955v48.356H271.34V21.033z"/>
	<path d="M352.833,130.166l35.697-47.197c3.422-4.306,6.682-8.115,10.268-12.42v-0.332h-42.705V58.459h60.146l-0.164,9.108
		l-35.207,46.534c-3.26,4.472-6.52,8.446-10.105,12.586v0.332h46.127v11.592h-64.057V130.166z"/>
	<path d="M501.81,97.873c0,29.643-20.211,42.56-39.281,42.56c-21.354,0-37.816-15.897-37.816-41.235
		c0-26.828,17.277-42.56,39.119-42.56C486.488,56.638,501.81,73.363,501.81,97.873z M439.22,98.701
		c0,17.554,9.941,30.802,23.959,30.802c13.691,0,23.961-13.082,23.961-31.133c0-13.58-6.684-30.802-23.635-30.802
		S439.22,83.465,439.22,98.701z"/>
</g>
<g>
</g>
<g>
</g>
<g>
</g>
<g>
</g>
<g>
</g>
<g>
</g>
</svg>
