<?xml version="1.0" encoding="utf-8"?>
<!-- Generator: Adobe Illustrator 16.0.0, SVG Export Plug-In . SVG Version: 6.00 Build 0)  -->
<!DOCTYPE svg PUBLIC "-//W3C//DTD SVG 1.1//EN" "http://www.w3.org/Graphics/SVG/1.1/DTD/svg11.dtd">
<svg version="1.1" id="Layer_1" xmlns="http://www.w3.org/2000/svg" xmlns:xlink="http://www.w3.org/1999/xlink" x="0px" y="0px"
	 width="800px" height="600px" viewBox="0 0 800 600" enable-background="new 0 0 800 600" xml:space="preserve">
<rect x="477.317" fill="#E97E3C" width="322.683" height="600"/>
<rect fill="#5C1944" width="366.426" height="600"/>
<g>
	<path fill="#FFFFFF" d="M48.285,63.715l-1.83,5.315h-2.353l5.986-16.897h2.745l6.012,16.897h-2.431l-1.882-5.315H48.285z
		 M54.062,62.011l-1.725-4.864c-0.392-1.103-0.654-2.106-0.915-3.083H51.37c-0.261,1.003-0.549,2.031-0.889,3.059l-1.725,4.889
		H54.062z"/>
	<path fill="#FFFFFF" d="M70.063,68.579c-0.601,0.301-1.934,0.702-3.633,0.702c-3.816,0-6.299-2.482-6.299-6.192
		c0-3.736,2.666-6.443,6.796-6.443c1.359,0,2.562,0.326,3.189,0.627l-0.523,1.705c-0.549-0.301-1.411-0.577-2.666-0.577
		c-2.901,0-4.47,2.056-4.47,4.588c0,2.808,1.882,4.538,4.392,4.538c1.307,0,2.169-0.326,2.823-0.602L70.063,68.579z"/>
	<path fill="#FFFFFF" d="M81.62,68.579c-0.601,0.301-1.934,0.702-3.633,0.702c-3.816,0-6.299-2.482-6.299-6.192
		c0-3.736,2.666-6.443,6.796-6.443c1.359,0,2.562,0.326,3.189,0.627l-0.523,1.705C80.6,58.676,79.738,58.4,78.483,58.4
		c-2.901,0-4.47,2.056-4.47,4.588c0,2.808,1.882,4.538,4.392,4.538c1.307,0,2.169-0.326,2.823-0.602L81.62,68.579z"/>
	<path fill="#FFFFFF" d="M95.607,62.863c0,4.488-3.241,6.443-6.299,6.443c-3.424,0-6.064-2.407-6.064-6.243
		c0-4.062,2.771-6.443,6.273-6.443C93.15,56.621,95.607,59.153,95.607,62.863z M85.57,62.988c0,2.658,1.595,4.663,3.843,4.663
		c2.195,0,3.842-1.98,3.842-4.713c0-2.056-1.072-4.663-3.79-4.663C86.746,58.275,85.57,60.682,85.57,62.988z"/>
	<path fill="#FFFFFF" d="M109.099,65.721c0,1.253,0.026,2.356,0.104,3.309h-2.039l-0.131-1.98h-0.052
		c-0.601,0.978-1.934,2.256-4.182,2.256c-1.986,0-4.365-1.053-4.365-5.315v-7.095h2.3v6.719c0,2.306,0.732,3.861,2.823,3.861
		c1.542,0,2.614-1.028,3.032-2.006c0.131-0.326,0.209-0.727,0.209-1.128v-7.446h2.3V65.721z"/>
	<path fill="#FFFFFF" d="M112.919,60.181c0-1.254-0.026-2.282-0.104-3.284h2.039l0.131,2.005h0.052
		c0.627-1.153,2.091-2.281,4.182-2.281c1.751,0,4.47,1.003,4.47,5.165v7.245h-2.3v-6.995c0-1.956-0.758-3.585-2.928-3.585
		c-1.516,0-2.692,1.028-3.084,2.256c-0.104,0.276-0.157,0.652-0.157,1.028v7.295h-2.3V60.181z"/>
	<path fill="#FFFFFF" d="M130.096,53.412v3.485h3.293v1.68h-3.293v6.543c0,1.504,0.444,2.357,1.725,2.357
		c0.601,0,1.045-0.075,1.333-0.15l0.104,1.654c-0.444,0.176-1.15,0.301-2.039,0.301c-1.072,0-1.934-0.326-2.483-0.927
		c-0.653-0.652-0.889-1.73-0.889-3.159v-6.618h-1.96v-1.68h1.96v-2.908L130.096,53.412z"/>
	<path fill="#FFFFFF" d="M135.665,66.774c0.68,0.426,1.882,0.877,3.032,0.877c1.673,0,2.457-0.802,2.457-1.805
		c0-1.053-0.653-1.629-2.353-2.231c-2.274-0.777-3.346-1.98-3.346-3.435c0-1.956,1.647-3.56,4.365-3.56
		c1.281,0,2.405,0.351,3.11,0.752l-0.575,1.604c-0.497-0.301-1.411-0.702-2.587-0.702c-1.359,0-2.117,0.752-2.117,1.654
		c0,1.003,0.758,1.454,2.405,2.056c2.195,0.802,3.319,1.855,3.319,3.661c0,2.131-1.725,3.635-4.731,3.635
		c-1.385,0-2.666-0.326-3.555-0.827L135.665,66.774z"/>
	<path fill="#FFFFFF" d="M48.285,93.802l-1.83,5.315h-2.353l5.986-16.897h2.745l6.012,16.897h-2.431l-1.882-5.315H48.285z
		 M54.062,92.097l-1.725-4.864c-0.392-1.103-0.654-2.106-0.915-3.083H51.37c-0.261,1.003-0.549,2.031-0.889,3.059l-1.725,4.889
		H54.062z"/>
	<path fill="#FFFFFF" d="M71.971,81.317v14.666c0,1.078,0.026,2.307,0.104,3.134h-2.065l-0.104-2.106h-0.052
		c-0.706,1.354-2.248,2.382-4.313,2.382c-3.058,0-5.411-2.482-5.411-6.167c-0.026-4.036,2.588-6.518,5.672-6.518
		c1.935,0,3.241,0.877,3.816,1.855h0.052v-7.245H71.971z M69.671,91.921c0-0.275-0.026-0.652-0.104-0.927
		c-0.34-1.404-1.594-2.557-3.32-2.557c-2.378,0-3.79,2.005-3.79,4.688c0,2.457,1.255,4.487,3.738,4.487
		c1.542,0,2.954-0.978,3.372-2.632c0.079-0.301,0.104-0.602,0.104-0.953V91.921z"/>
	<path fill="#FFFFFF" d="M76.68,86.983l2.483,6.819c0.418,1.103,0.758,2.106,1.02,3.109h0.079c0.287-1.003,0.653-2.006,1.071-3.109
		l2.457-6.819h2.405l-4.966,12.134h-2.195l-4.81-12.134H76.68z"/>
	<path fill="#FFFFFF" d="M89.387,93.451c0.052,2.983,2.039,4.212,4.339,4.212c1.646,0,2.64-0.276,3.502-0.627l0.392,1.58
		c-0.81,0.351-2.195,0.752-4.208,0.752c-3.895,0-6.221-2.457-6.221-6.117c0-3.661,2.248-6.543,5.934-6.543
		c4.13,0,5.228,3.485,5.228,5.716c0,0.451-0.052,0.802-0.079,1.028H89.387z M96.131,91.872c0.026-1.404-0.601-3.585-3.189-3.585
		c-2.326,0-3.346,2.056-3.529,3.585H96.131z"/>
	<path fill="#FFFFFF" d="M101.205,90.769c0-1.429-0.026-2.658-0.104-3.786h2.013l0.078,2.381h0.104
		c0.575-1.629,1.96-2.657,3.502-2.657c0.262,0,0.444,0.025,0.654,0.075v2.081c-0.235-0.05-0.471-0.075-0.784-0.075
		c-1.621,0-2.771,1.179-3.084,2.833c-0.052,0.301-0.104,0.652-0.104,1.028v6.468h-2.274V90.769z"/>
	<path fill="#FFFFFF" d="M113.152,83.498v3.485h3.293v1.68h-3.293v6.543c0,1.504,0.444,2.357,1.725,2.357
		c0.601,0,1.045-0.075,1.333-0.15l0.104,1.654c-0.444,0.176-1.15,0.301-2.039,0.301c-1.072,0-1.934-0.326-2.483-0.927
		c-0.653-0.652-0.889-1.73-0.889-3.159v-6.618h-1.96v-1.68h1.96v-2.908L113.152,83.498z"/>
	<path fill="#FFFFFF" d="M121.598,83.573c0.026,0.752-0.549,1.354-1.464,1.354c-0.81,0-1.385-0.602-1.385-1.354
		c0-0.777,0.601-1.379,1.438-1.379C121.049,82.194,121.598,82.796,121.598,83.573z M119.036,99.117V86.983h2.3v12.134H119.036z"/>
	<path fill="#FFFFFF" d="M124.84,96.86c0.68,0.426,1.882,0.877,3.032,0.877c1.673,0,2.457-0.802,2.457-1.805
		c0-1.053-0.653-1.629-2.353-2.231c-2.274-0.777-3.346-1.98-3.346-3.435c0-1.956,1.647-3.56,4.365-3.56
		c1.281,0,2.405,0.351,3.11,0.752l-0.575,1.604c-0.497-0.301-1.411-0.702-2.587-0.702c-1.359,0-2.117,0.752-2.117,1.654
		c0,1.003,0.758,1.454,2.405,2.056c2.195,0.802,3.319,1.855,3.319,3.661c0,2.131-1.725,3.635-4.731,3.635
		c-1.385,0-2.666-0.326-3.555-0.827L124.84,96.86z"/>
	<path fill="#FFFFFF" d="M136.789,93.451c0.052,2.983,2.039,4.212,4.339,4.212c1.646,0,2.64-0.276,3.502-0.627l0.392,1.58
		c-0.81,0.351-2.195,0.752-4.208,0.752c-3.895,0-6.221-2.457-6.221-6.117c0-3.661,2.248-6.543,5.934-6.543
		c4.13,0,5.228,3.485,5.228,5.716c0,0.451-0.052,0.802-0.079,1.028H136.789z M143.532,91.872c0.026-1.404-0.601-3.585-3.189-3.585
		c-2.326,0-3.346,2.056-3.529,3.585H143.532z"/>
	<path fill="#FFFFFF" d="M148.606,90.267c0-1.254-0.026-2.282-0.104-3.284h2.013l0.104,1.955h0.078
		c0.706-1.153,1.882-2.231,3.973-2.231c1.725,0,3.032,1.003,3.581,2.432h0.052c0.392-0.677,0.889-1.203,1.412-1.579
		c0.758-0.552,1.594-0.853,2.796-0.853c1.673,0,4.156,1.053,4.156,5.265v7.145h-2.248v-6.869c0-2.332-0.889-3.735-2.745-3.735
		c-1.307,0-2.326,0.927-2.718,2.005c-0.104,0.301-0.183,0.702-0.183,1.103v7.496h-2.248v-7.271c0-1.93-0.889-3.334-2.64-3.334
		c-1.438,0-2.483,1.103-2.849,2.206c-0.13,0.326-0.183,0.702-0.183,1.078v7.32h-2.248V90.267z"/>
	<path fill="#FFFFFF" d="M171.693,93.451c0.052,2.983,2.039,4.212,4.339,4.212c1.646,0,2.64-0.276,3.502-0.627l0.392,1.58
		c-0.81,0.351-2.195,0.752-4.208,0.752c-3.895,0-6.221-2.457-6.221-6.117c0-3.661,2.248-6.543,5.934-6.543
		c4.13,0,5.228,3.485,5.228,5.716c0,0.451-0.052,0.802-0.079,1.028H171.693z M178.437,91.872c0.026-1.404-0.601-3.585-3.189-3.585
		c-2.326,0-3.346,2.056-3.529,3.585H178.437z"/>
	<path fill="#FFFFFF" d="M183.511,90.267c0-1.254-0.026-2.282-0.104-3.284h2.039l0.131,2.005h0.052
		c0.627-1.153,2.091-2.281,4.182-2.281c1.751,0,4.47,1.003,4.47,5.165v7.245h-2.3v-6.995c0-1.956-0.758-3.585-2.928-3.585
		c-1.516,0-2.692,1.028-3.084,2.256c-0.104,0.276-0.157,0.652-0.157,1.028v7.295h-2.3V90.267z"/>
	<path fill="#FFFFFF" d="M200.688,83.498v3.485h3.293v1.68h-3.293v6.543c0,1.504,0.444,2.357,1.725,2.357
		c0.601,0,1.045-0.075,1.333-0.15l0.104,1.654c-0.444,0.176-1.15,0.301-2.039,0.301c-1.072,0-1.934-0.326-2.483-0.927
		c-0.653-0.652-0.889-1.73-0.889-3.159v-6.618h-1.96v-1.68h1.96v-2.908L200.688,83.498z"/>
	<path fill="#FFFFFF" d="M48.285,123.888l-1.83,5.315h-2.353l5.986-16.897h2.745l6.012,16.897h-2.431l-1.882-5.315H48.285z
		 M54.062,122.184l-1.725-4.864c-0.392-1.103-0.654-2.106-0.915-3.083H51.37c-0.261,1.003-0.549,2.031-0.889,3.059l-1.725,4.889
		H54.062z"/>
	<path fill="#FFFFFF" d="M61.281,120.354c0-1.254-0.026-2.282-0.104-3.284h2.039l0.131,2.005h0.052
		c0.627-1.153,2.091-2.281,4.182-2.281c1.751,0,4.47,1.003,4.47,5.165v7.245h-2.3v-6.995c0-1.956-0.758-3.585-2.928-3.585
		c-1.516,0-2.692,1.028-3.084,2.256c-0.104,0.276-0.157,0.652-0.157,1.028v7.295h-2.3V120.354z"/>
	<path fill="#FFFFFF" d="M82.796,129.203l-0.183-1.529h-0.078c-0.706,0.953-2.065,1.805-3.869,1.805
		c-2.562,0-3.868-1.73-3.868-3.485c0-2.933,2.718-4.538,7.606-4.513v-0.25c0-1.003-0.288-2.808-2.875-2.808
		c-1.176,0-2.405,0.351-3.293,0.903l-0.523-1.454c1.045-0.652,2.562-1.078,4.156-1.078c3.868,0,4.809,2.532,4.809,4.964v4.538
		c0,1.053,0.052,2.081,0.209,2.908H82.796z M82.457,123.011c-2.509-0.05-5.358,0.376-5.358,2.733c0,1.429,0.994,2.105,2.169,2.105
		c1.647,0,2.692-1.002,3.059-2.03c0.078-0.226,0.13-0.477,0.13-0.702V123.011z"/>
	<path fill="#FFFFFF" d="M88.394,111.403h2.3v17.8h-2.3V111.403z"/>
	<path fill="#FFFFFF" d="M95.4,117.069l2.771,7.17c0.288,0.802,0.601,1.755,0.811,2.482h0.052c0.235-0.727,0.497-1.655,0.81-2.532
		l2.509-7.12h2.431l-3.45,8.649c-1.646,4.162-2.771,6.292-4.339,7.596c-1.124,0.953-2.248,1.329-2.823,1.429l-0.575-1.855
		c0.575-0.176,1.333-0.527,2.013-1.078c0.627-0.477,1.412-1.329,1.934-2.457c0.104-0.226,0.183-0.401,0.183-0.526
		s-0.052-0.301-0.157-0.577l-4.679-11.181H95.4z"/>
	<path fill="#FFFFFF" d="M109.649,113.584v3.485h3.293v1.68h-3.293v6.543c0,1.504,0.444,2.357,1.725,2.357
		c0.601,0,1.045-0.075,1.333-0.15l0.104,1.654c-0.444,0.176-1.15,0.301-2.039,0.301c-1.072,0-1.934-0.326-2.483-0.927
		c-0.653-0.652-0.889-1.73-0.889-3.159v-6.618h-1.96v-1.68h1.96v-2.908L109.649,113.584z"/>
	<path fill="#FFFFFF" d="M118.094,113.66c0.026,0.752-0.549,1.354-1.464,1.354c-0.81,0-1.385-0.602-1.385-1.354
		c0-0.777,0.601-1.379,1.438-1.379C117.545,112.281,118.094,112.882,118.094,113.66z M115.533,129.203v-12.134h2.3v12.134H115.533z"
		/>
	<path fill="#FFFFFF" d="M130.668,128.752c-0.601,0.301-1.934,0.702-3.633,0.702c-3.816,0-6.299-2.482-6.299-6.192
		c0-3.736,2.666-6.443,6.796-6.443c1.359,0,2.562,0.326,3.189,0.627l-0.523,1.705c-0.549-0.301-1.411-0.577-2.666-0.577
		c-2.901,0-4.47,2.056-4.47,4.588c0,2.808,1.882,4.538,4.392,4.538c1.307,0,2.169-0.326,2.823-0.602L130.668,128.752z"/>
	<path fill="#FFFFFF" d="M133.05,126.947c0.68,0.426,1.882,0.877,3.032,0.877c1.673,0,2.457-0.802,2.457-1.805
		c0-1.053-0.653-1.629-2.353-2.231c-2.274-0.777-3.346-1.98-3.346-3.435c0-1.956,1.647-3.56,4.365-3.56
		c1.281,0,2.405,0.351,3.11,0.752l-0.575,1.604c-0.497-0.301-1.411-0.702-2.587-0.702c-1.359,0-2.117,0.752-2.117,1.654
		c0,1.003,0.758,1.454,2.405,2.056c2.195,0.802,3.319,1.855,3.319,3.661c0,2.131-1.725,3.635-4.731,3.635
		c-1.385,0-2.666-0.326-3.555-0.827L133.05,126.947z"/>
	<path fill="#FFFFFF" d="M48.285,153.975l-1.83,5.315h-2.353l5.986-16.897h2.745l6.012,16.897h-2.431l-1.882-5.315H48.285z
		 M54.062,152.27l-1.725-4.864c-0.392-1.103-0.654-2.106-0.915-3.083H51.37c-0.261,1.003-0.549,2.031-0.889,3.059l-1.725,4.889
		H54.062z"/>
	<path fill="#FFFFFF" d="M61.281,151.117c0-1.554-0.052-2.808-0.104-3.961h2.065l0.104,2.081h0.052
		c0.941-1.479,2.431-2.356,4.496-2.356c3.058,0,5.358,2.482,5.358,6.167c0,4.362-2.771,6.519-5.75,6.519
		c-1.673,0-3.137-0.702-3.895-1.905h-0.052v6.593h-2.274V151.117z M63.555,154.351c0,0.326,0.052,0.627,0.104,0.903
		c0.418,1.529,1.804,2.582,3.45,2.582c2.431,0,3.842-1.905,3.842-4.688c0-2.432-1.333-4.513-3.764-4.513
		c-1.568,0-3.032,1.078-3.477,2.732c-0.078,0.276-0.157,0.602-0.157,0.903V154.351z"/>
	<path fill="#FFFFFF" d="M87.606,153.122c0,4.488-3.241,6.443-6.299,6.443c-3.424,0-6.064-2.407-6.064-6.243
		c0-4.061,2.771-6.443,6.273-6.443C85.149,146.88,87.606,149.412,87.606,153.122z M77.569,153.248c0,2.658,1.595,4.663,3.843,4.663
		c2.195,0,3.842-1.98,3.842-4.713c0-2.056-1.072-4.663-3.79-4.663C78.745,148.535,77.569,150.941,77.569,153.248z"/>
	<path fill="#FFFFFF" d="M93.073,143.746c0.026,0.752-0.549,1.354-1.464,1.354c-0.81,0-1.385-0.602-1.385-1.354
		c0-0.777,0.601-1.379,1.438-1.379C92.524,142.367,93.073,142.969,93.073,143.746z M90.512,159.29v-12.134h2.3v12.134H90.512z"/>
	<path fill="#FFFFFF" d="M96.629,150.44c0-1.254-0.026-2.282-0.104-3.284h2.039l0.131,2.005h0.052
		c0.627-1.153,2.091-2.281,4.182-2.281c1.751,0,4.47,1.003,4.47,5.165v7.245h-2.3v-6.995c0-1.956-0.758-3.585-2.928-3.585
		c-1.516,0-2.692,1.028-3.084,2.256c-0.104,0.276-0.157,0.652-0.157,1.028v7.295h-2.3V150.44z"/>
	<path fill="#FFFFFF" d="M113.806,143.671v3.485h3.293v1.68h-3.293v6.543c0,1.504,0.444,2.357,1.725,2.357
		c0.601,0,1.045-0.075,1.333-0.15l0.104,1.654c-0.444,0.176-1.15,0.301-2.039,0.301c-1.072,0-1.934-0.326-2.483-0.927
		c-0.653-0.652-0.889-1.73-0.889-3.159v-6.618h-1.96v-1.68h1.96v-2.908L113.806,143.671z"/>
	<path fill="#FFFFFF" d="M119.69,150.44c0-1.254-0.026-2.282-0.104-3.284h2.013l0.104,1.955h0.078
		c0.706-1.153,1.882-2.231,3.973-2.231c1.725,0,3.032,1.003,3.581,2.432h0.052c0.392-0.677,0.889-1.203,1.412-1.579
		c0.758-0.552,1.594-0.853,2.796-0.853c1.673,0,4.156,1.053,4.156,5.265v7.145h-2.248v-6.869c0-2.332-0.889-3.735-2.745-3.735
		c-1.307,0-2.326,0.927-2.718,2.005c-0.104,0.301-0.183,0.702-0.183,1.103v7.496h-2.248v-7.271c0-1.93-0.889-3.334-2.64-3.334
		c-1.438,0-2.483,1.103-2.849,2.206c-0.13,0.326-0.183,0.702-0.183,1.078v7.32h-2.248V150.44z"/>
	<path fill="#FFFFFF" d="M142.776,153.624c0.052,2.983,2.039,4.212,4.339,4.212c1.646,0,2.64-0.276,3.502-0.627l0.392,1.58
		c-0.81,0.351-2.195,0.752-4.208,0.752c-3.895,0-6.221-2.457-6.221-6.117c0-3.661,2.248-6.543,5.934-6.543
		c4.13,0,5.228,3.485,5.228,5.716c0,0.451-0.052,0.802-0.079,1.028H142.776z M149.52,152.044c0.026-1.404-0.601-3.585-3.189-3.585
		c-2.326,0-3.346,2.056-3.529,3.585H149.52z"/>
	<path fill="#FFFFFF" d="M154.594,150.44c0-1.254-0.026-2.282-0.104-3.284h2.039l0.131,2.005h0.052
		c0.627-1.153,2.091-2.281,4.182-2.281c1.751,0,4.47,1.003,4.47,5.165v7.245h-2.3v-6.995c0-1.956-0.758-3.585-2.928-3.585
		c-1.516,0-2.692,1.028-3.084,2.256c-0.104,0.276-0.157,0.652-0.157,1.028v7.295h-2.3V150.44z"/>
	<path fill="#FFFFFF" d="M171.771,143.671v3.485h3.293v1.68h-3.293v6.543c0,1.504,0.444,2.357,1.725,2.357
		c0.601,0,1.045-0.075,1.333-0.15l0.104,1.654c-0.444,0.176-1.15,0.301-2.039,0.301c-1.072,0-1.934-0.326-2.483-0.927
		c-0.653-0.652-0.889-1.73-0.889-3.159v-6.618h-1.96v-1.68h1.96v-2.908L171.771,143.671z"/>
	<path fill="#FFFFFF" d="M177.341,157.033c0.68,0.426,1.882,0.877,3.032,0.877c1.673,0,2.457-0.802,2.457-1.805
		c0-1.053-0.653-1.629-2.353-2.231c-2.274-0.777-3.346-1.98-3.346-3.435c0-1.956,1.647-3.56,4.365-3.56
		c1.281,0,2.405,0.351,3.11,0.752l-0.575,1.604c-0.497-0.301-1.411-0.702-2.587-0.702c-1.359,0-2.117,0.752-2.117,1.654
		c0,1.003,0.758,1.454,2.405,2.056c2.195,0.802,3.319,1.855,3.319,3.661c0,2.131-1.725,3.635-4.731,3.635
		c-1.385,0-2.666-0.326-3.555-0.827L177.341,157.033z"/>
	<path fill="#FFFFFF" d="M45.436,172.704c0.994-0.2,2.562-0.351,4.156-0.351c2.274,0,3.738,0.376,4.835,1.228
		c0.915,0.652,1.464,1.655,1.464,2.983c0,1.63-1.124,3.059-2.98,3.71v0.05c1.673,0.401,3.633,1.73,3.633,4.237
		c0,1.454-0.601,2.557-1.49,3.384c-1.229,1.078-3.215,1.58-6.09,1.58c-1.568,0-2.771-0.1-3.529-0.201V172.704z M47.71,179.624h2.065
		c2.404,0,3.816-1.203,3.816-2.833c0-1.98-1.568-2.757-3.868-2.757c-1.046,0-1.647,0.075-2.013,0.15V179.624z M47.71,187.721
		c0.444,0.075,1.098,0.101,1.908,0.101c2.353,0,4.522-0.828,4.522-3.284c0-2.307-2.065-3.259-4.548-3.259H47.71V187.721z"/>
	<path fill="#FFFFFF" d="M62.09,173.833c0.026,0.752-0.549,1.354-1.464,1.354c-0.81,0-1.385-0.602-1.385-1.354
		c0-0.777,0.601-1.379,1.438-1.379C61.542,172.454,62.09,173.055,62.09,173.833z M59.529,189.376v-12.134h2.3v12.134H59.529z"/>
	<path fill="#FFFFFF" d="M65.646,171.576h2.3v17.8h-2.3V171.576z"/>
	<path fill="#FFFFFF" d="M71.817,171.576h2.3v17.8h-2.3V171.576z"/>
	<path fill="#FFFFFF" d="M77.673,187.12c0.68,0.426,1.882,0.877,3.032,0.877c1.673,0,2.457-0.802,2.457-1.805
		c0-1.053-0.653-1.629-2.353-2.231c-2.274-0.777-3.346-1.98-3.346-3.435c0-1.956,1.647-3.56,4.365-3.56
		c1.281,0,2.405,0.351,3.11,0.752l-0.575,1.604c-0.497-0.301-1.411-0.702-2.587-0.702c-1.359,0-2.117,0.752-2.117,1.654
		c0,1.003,0.758,1.454,2.405,2.056c2.195,0.802,3.319,1.855,3.319,3.661c0,2.131-1.725,3.635-4.731,3.635
		c-1.385,0-2.666-0.326-3.555-0.827L77.673,187.12z"/>
	<path fill="#FFFFFF" d="M57.748,218.911c-0.836,0.401-2.509,0.802-4.653,0.802c-4.966,0-8.704-3.008-8.704-8.549
		c0-5.29,3.738-8.875,9.201-8.875c2.196,0,3.581,0.451,4.182,0.752l-0.549,1.78c-0.863-0.401-2.091-0.702-3.555-0.702
		c-4.13,0-6.875,2.532-6.875,6.969c0,4.137,2.483,6.794,6.77,6.794c1.385,0,2.796-0.275,3.711-0.702L57.748,218.911z"/>
	<path fill="#FFFFFF" d="M67.344,219.462l-0.183-1.529h-0.078c-0.706,0.953-2.065,1.805-3.869,1.805
		c-2.562,0-3.868-1.73-3.868-3.485c0-2.933,2.718-4.538,7.606-4.513v-0.25c0-1.003-0.288-2.808-2.875-2.808
		c-1.176,0-2.405,0.351-3.293,0.903l-0.523-1.454c1.045-0.652,2.562-1.078,4.156-1.078c3.868,0,4.809,2.532,4.809,4.964v4.538
		c0,1.053,0.052,2.081,0.209,2.908H67.344z M67.004,213.27c-2.509-0.05-5.358,0.376-5.358,2.733c0,1.429,0.994,2.105,2.169,2.105
		c1.647,0,2.692-1.002,3.059-2.03c0.078-0.226,0.13-0.477,0.13-0.702V213.27z"/>
	<path fill="#FFFFFF" d="M72.941,201.663h2.3v17.8h-2.3V201.663z"/>
	<path fill="#FFFFFF" d="M80.393,213.796c0.052,2.983,2.039,4.212,4.339,4.212c1.646,0,2.64-0.276,3.502-0.627l0.392,1.58
		c-0.81,0.351-2.195,0.752-4.208,0.752c-3.895,0-6.221-2.457-6.221-6.117c0-3.661,2.248-6.543,5.934-6.543
		c4.13,0,5.228,3.485,5.228,5.716c0,0.451-0.052,0.802-0.079,1.028H80.393z M87.136,212.217c0.026-1.404-0.601-3.585-3.189-3.585
		c-2.326,0-3.346,2.056-3.529,3.585H87.136z"/>
	<path fill="#FFFFFF" d="M92.21,210.613c0-1.254-0.026-2.282-0.104-3.284h2.039l0.131,2.005h0.052
		c0.627-1.153,2.091-2.281,4.182-2.281c1.751,0,4.47,1.003,4.47,5.165v7.245h-2.3v-6.995c0-1.956-0.758-3.585-2.928-3.585
		c-1.516,0-2.692,1.028-3.084,2.256c-0.104,0.276-0.157,0.652-0.157,1.028v7.295h-2.3V210.613z"/>
	<path fill="#FFFFFF" d="M117.647,201.663v14.666c0,1.078,0.026,2.307,0.104,3.134h-2.065l-0.104-2.106h-0.052
		c-0.706,1.354-2.248,2.382-4.313,2.382c-3.058,0-5.411-2.482-5.411-6.167c-0.026-4.036,2.588-6.518,5.672-6.518
		c1.935,0,3.241,0.877,3.816,1.855h0.052v-7.245H117.647z M115.347,212.267c0-0.275-0.026-0.652-0.104-0.927
		c-0.34-1.404-1.594-2.557-3.319-2.557c-2.379,0-3.791,2.005-3.791,4.688c0,2.457,1.255,4.487,3.738,4.487
		c1.542,0,2.954-0.978,3.372-2.632c0.079-0.301,0.104-0.602,0.104-0.953V212.267z"/>
	<path fill="#FFFFFF" d="M128.473,219.462l-0.183-1.529h-0.078c-0.706,0.953-2.065,1.805-3.869,1.805
		c-2.562,0-3.868-1.73-3.868-3.485c0-2.933,2.718-4.538,7.606-4.513v-0.25c0-1.003-0.288-2.808-2.875-2.808
		c-1.176,0-2.405,0.351-3.293,0.903l-0.523-1.454c1.045-0.652,2.562-1.078,4.156-1.078c3.868,0,4.809,2.532,4.809,4.964v4.538
		c0,1.053,0.052,2.081,0.209,2.908H128.473z M128.133,213.27c-2.509-0.05-5.358,0.376-5.358,2.733c0,1.429,0.994,2.105,2.169,2.105
		c1.647,0,2.692-1.002,3.059-2.03c0.078-0.226,0.13-0.477,0.13-0.702V213.27z"/>
	<path fill="#FFFFFF" d="M134.07,211.114c0-1.429-0.026-2.658-0.104-3.786h2.013l0.078,2.381h0.104
		c0.575-1.629,1.96-2.657,3.502-2.657c0.262,0,0.445,0.025,0.654,0.075v2.081c-0.235-0.05-0.471-0.075-0.784-0.075
		c-1.621,0-2.771,1.179-3.084,2.833c-0.052,0.301-0.104,0.652-0.104,1.028v6.468h-2.274V211.114z"/>
	<path fill="#FFFFFF" d="M57.748,248.997c-0.836,0.401-2.509,0.802-4.653,0.802c-4.966,0-8.704-3.008-8.704-8.549
		c0-5.29,3.738-8.875,9.201-8.875c2.196,0,3.581,0.451,4.182,0.752l-0.549,1.78c-0.863-0.401-2.091-0.702-3.555-0.702
		c-4.13,0-6.875,2.532-6.875,6.969c0,4.137,2.483,6.794,6.77,6.794c1.385,0,2.796-0.275,3.711-0.702L57.748,248.997z"/>
	<path fill="#FFFFFF" d="M70.794,246.239c0,1.253,0.026,2.356,0.104,3.309H68.86l-0.131-1.98h-0.052
		c-0.601,0.978-1.934,2.256-4.182,2.256c-1.986,0-4.365-1.053-4.365-5.315v-7.095h2.3v6.719c0,2.306,0.732,3.861,2.823,3.861
		c1.542,0,2.614-1.028,3.032-2.006c0.131-0.326,0.209-0.727,0.209-1.128v-7.446h2.3V246.239z"/>
	<path fill="#FFFFFF" d="M74.301,247.292c0.68,0.426,1.882,0.877,3.032,0.877c1.673,0,2.457-0.802,2.457-1.805
		c0-1.053-0.653-1.629-2.353-2.231c-2.274-0.777-3.346-1.98-3.346-3.435c0-1.956,1.647-3.56,4.365-3.56
		c1.281,0,2.405,0.351,3.11,0.752l-0.575,1.604c-0.497-0.301-1.411-0.702-2.587-0.702c-1.359,0-2.117,0.752-2.117,1.654
		c0,1.003,0.758,1.454,2.405,2.056c2.195,0.802,3.319,1.855,3.319,3.661c0,2.131-1.725,3.635-4.731,3.635
		c-1.385,0-2.666-0.326-3.555-0.827L74.301,247.292z"/>
	<path fill="#FFFFFF" d="M87.739,233.93v3.485h3.293v1.68h-3.293v6.543c0,1.504,0.444,2.357,1.725,2.357
		c0.601,0,1.045-0.075,1.333-0.15l0.104,1.654c-0.444,0.176-1.15,0.301-2.039,0.301c-1.072,0-1.934-0.326-2.483-0.927
		c-0.653-0.652-0.889-1.73-0.889-3.159v-6.618h-1.96v-1.68h1.96v-2.908L87.739,233.93z"/>
	<path fill="#FFFFFF" d="M104.914,243.381c0,4.488-3.241,6.443-6.299,6.443c-3.424,0-6.064-2.407-6.064-6.243
		c0-4.061,2.771-6.443,6.273-6.443C102.458,237.139,104.914,239.671,104.914,243.381z M94.877,243.506
		c0,2.658,1.595,4.663,3.843,4.663c2.195,0,3.842-1.98,3.842-4.713c0-2.056-1.072-4.663-3.79-4.663
		C96.053,238.793,94.877,241.2,94.877,243.506z"/>
	<path fill="#FFFFFF" d="M107.82,240.699c0-1.254-0.026-2.282-0.104-3.284h2.013l0.104,1.955h0.078
		c0.706-1.153,1.882-2.231,3.973-2.231c1.725,0,3.032,1.003,3.581,2.432h0.052c0.392-0.677,0.889-1.203,1.412-1.579
		c0.758-0.552,1.594-0.853,2.796-0.853c1.673,0,4.156,1.053,4.156,5.265v7.145h-2.248v-6.869c0-2.332-0.889-3.735-2.745-3.735
		c-1.307,0-2.326,0.927-2.718,2.005c-0.104,0.301-0.183,0.702-0.183,1.103v7.496h-2.248v-7.271c0-1.93-0.889-3.334-2.64-3.334
		c-1.438,0-2.483,1.103-2.849,2.206c-0.13,0.326-0.183,0.702-0.183,1.078v7.32h-2.248V240.699z"/>
	<path fill="#FFFFFF" d="M130.906,243.882c0.052,2.983,2.039,4.212,4.339,4.212c1.646,0,2.64-0.276,3.502-0.627l0.392,1.58
		c-0.81,0.351-2.195,0.752-4.208,0.752c-3.895,0-6.221-2.457-6.221-6.117c0-3.661,2.248-6.543,5.934-6.543
		c4.13,0,5.228,3.485,5.228,5.716c0,0.451-0.052,0.802-0.079,1.028H130.906z M137.65,242.303c0.026-1.404-0.601-3.585-3.189-3.585
		c-2.326,0-3.346,2.056-3.529,3.585H137.65z"/>
	<path fill="#FFFFFF" d="M142.724,241.2c0-1.429-0.026-2.658-0.104-3.786h2.013l0.078,2.381h0.104
		c0.575-1.629,1.96-2.657,3.502-2.657c0.262,0,0.445,0.025,0.654,0.075v2.081c-0.235-0.05-0.471-0.075-0.784-0.075
		c-1.621,0-2.771,1.179-3.084,2.833c-0.052,0.301-0.104,0.652-0.104,1.028v6.468h-2.274V241.2z"/>
	<path fill="#FFFFFF" d="M171.741,242.127c-0.131-2.356-0.288-5.189-0.261-7.295h-0.079c-0.601,1.98-1.333,4.086-2.222,6.418
		l-3.11,8.198h-1.725l-2.849-8.048c-0.836-2.381-1.542-4.563-2.039-6.568h-0.052c-0.052,2.106-0.183,4.939-0.34,7.471l-0.47,7.245
		h-2.169l1.229-16.897h2.901l3.006,8.173c0.732,2.081,1.333,3.936,1.777,5.691h0.079c0.444-1.705,1.071-3.56,1.855-5.691
		l3.137-8.173h2.901l1.098,16.897h-2.222L171.741,242.127z"/>
	<path fill="#FFFFFF" d="M184.999,249.548l-0.183-1.529h-0.078c-0.706,0.953-2.065,1.805-3.869,1.805
		c-2.562,0-3.868-1.73-3.868-3.485c0-2.933,2.718-4.538,7.606-4.513v-0.25c0-1.003-0.288-2.808-2.875-2.808
		c-1.176,0-2.405,0.351-3.293,0.903l-0.523-1.454c1.045-0.652,2.562-1.078,4.156-1.078c3.868,0,4.809,2.532,4.809,4.964v4.538
		c0,1.053,0.052,2.081,0.209,2.908H184.999z M184.659,243.356c-2.509-0.05-5.358,0.376-5.358,2.733c0,1.429,0.994,2.105,2.169,2.105
		c1.647,0,2.692-1.002,3.059-2.03c0.078-0.226,0.13-0.477,0.13-0.702V243.356z"/>
	<path fill="#FFFFFF" d="M190.596,240.699c0-1.254-0.026-2.282-0.104-3.284h2.039l0.131,2.005h0.052
		c0.627-1.153,2.091-2.281,4.182-2.281c1.751,0,4.47,1.003,4.47,5.165v7.245h-2.3v-6.995c0-1.956-0.758-3.585-2.928-3.585
		c-1.516,0-2.692,1.028-3.084,2.256c-0.104,0.276-0.157,0.652-0.157,1.028v7.295h-2.3V240.699z"/>
	<path fill="#FFFFFF" d="M212.112,249.548l-0.183-1.529h-0.078c-0.706,0.953-2.065,1.805-3.869,1.805
		c-2.562,0-3.868-1.73-3.868-3.485c0-2.933,2.718-4.538,7.606-4.513v-0.25c0-1.003-0.288-2.808-2.875-2.808
		c-1.176,0-2.405,0.351-3.293,0.903l-0.523-1.454c1.045-0.652,2.562-1.078,4.156-1.078c3.868,0,4.809,2.532,4.809,4.964v4.538
		c0,1.053,0.052,2.081,0.209,2.908H212.112z M211.772,243.356c-2.509-0.05-5.358,0.376-5.358,2.733c0,1.429,0.994,2.105,2.169,2.105
		c1.647,0,2.692-1.002,3.059-2.03c0.078-0.226,0.13-0.477,0.13-0.702V243.356z"/>
	<path fill="#FFFFFF" d="M228.609,237.415c-0.052,0.877-0.104,1.855-0.104,3.334v7.045c0,2.783-0.575,4.487-1.803,5.541
		c-1.229,1.103-3.006,1.454-4.601,1.454c-1.516,0-3.189-0.351-4.208-1.003l0.575-1.68c0.836,0.501,2.144,0.953,3.712,0.953
		c2.352,0,4.077-1.178,4.077-4.237v-1.354h-0.052c-0.706,1.128-2.065,2.031-4.025,2.031c-3.137,0-5.385-2.557-5.385-5.917
		c0-4.111,2.797-6.443,5.698-6.443c2.196,0,3.398,1.103,3.947,2.106h0.052l0.104-1.83H228.609z M226.23,242.203
		c0-0.376-0.026-0.702-0.131-1.002c-0.418-1.279-1.542-2.332-3.215-2.332c-2.196,0-3.764,1.78-3.764,4.587
		c0,2.382,1.255,4.362,3.738,4.362c1.412,0,2.692-0.852,3.189-2.256c0.131-0.376,0.183-0.802,0.183-1.178V242.203z"/>
	<path fill="#FFFFFF" d="M233.605,243.882c0.052,2.983,2.039,4.212,4.339,4.212c1.646,0,2.64-0.276,3.502-0.627l0.392,1.58
		c-0.81,0.351-2.195,0.752-4.208,0.752c-3.895,0-6.221-2.457-6.221-6.117c0-3.661,2.248-6.543,5.934-6.543
		c4.13,0,5.228,3.485,5.228,5.716c0,0.451-0.052,0.802-0.079,1.028H233.605z M240.349,242.303c0.026-1.404-0.601-3.585-3.189-3.585
		c-2.326,0-3.346,2.056-3.529,3.585H240.349z"/>
	<path fill="#FFFFFF" d="M245.423,240.699c0-1.254-0.026-2.282-0.104-3.284h2.013l0.104,1.955h0.078
		c0.706-1.153,1.882-2.231,3.973-2.231c1.725,0,3.032,1.003,3.581,2.432h0.052c0.392-0.677,0.889-1.203,1.412-1.579
		c0.758-0.552,1.594-0.853,2.796-0.853c1.673,0,4.156,1.053,4.156,5.265v7.145h-2.248v-6.869c0-2.332-0.889-3.735-2.745-3.735
		c-1.307,0-2.326,0.927-2.718,2.005c-0.104,0.301-0.183,0.702-0.183,1.103v7.496h-2.248v-7.271c0-1.93-0.889-3.334-2.64-3.334
		c-1.438,0-2.483,1.103-2.849,2.206c-0.13,0.326-0.183,0.702-0.183,1.078v7.32h-2.248V240.699z"/>
	<path fill="#FFFFFF" d="M268.51,243.882c0.052,2.983,2.039,4.212,4.339,4.212c1.646,0,2.64-0.276,3.502-0.627l0.392,1.58
		c-0.81,0.351-2.195,0.752-4.208,0.752c-3.895,0-6.221-2.457-6.221-6.117c0-3.661,2.248-6.543,5.934-6.543
		c4.13,0,5.228,3.485,5.228,5.716c0,0.451-0.052,0.802-0.079,1.028H268.51z M275.253,242.303c0.026-1.404-0.601-3.585-3.189-3.585
		c-2.326,0-3.346,2.056-3.529,3.585H275.253z"/>
	<path fill="#FFFFFF" d="M280.328,240.699c0-1.254-0.026-2.282-0.104-3.284h2.039l0.131,2.005h0.052
		c0.627-1.153,2.091-2.281,4.182-2.281c1.751,0,4.47,1.003,4.47,5.165v7.245h-2.3v-6.995c0-1.956-0.758-3.585-2.928-3.585
		c-1.516,0-2.692,1.028-3.084,2.256c-0.104,0.276-0.157,0.652-0.157,1.028v7.295h-2.3V240.699z"/>
	<path fill="#FFFFFF" d="M297.505,233.93v3.485h3.293v1.68h-3.293v6.543c0,1.504,0.444,2.357,1.725,2.357
		c0.601,0,1.045-0.075,1.333-0.15l0.104,1.654c-0.444,0.176-1.15,0.301-2.039,0.301c-1.072,0-1.934-0.326-2.483-0.927
		c-0.653-0.652-0.889-1.73-0.889-3.159v-6.618h-1.96v-1.68h1.96v-2.908L297.505,233.93z"/>
	<path fill="#FFFFFF" d="M47.71,262.737v16.897h-2.274v-16.897H47.71z"/>
	<path fill="#FFFFFF" d="M51.868,270.785c0-1.254-0.026-2.282-0.104-3.284h2.039l0.131,2.005h0.052
		c0.627-1.153,2.091-2.281,4.182-2.281c1.751,0,4.47,1.003,4.47,5.165v7.245h-2.3v-6.995c0-1.956-0.758-3.585-2.928-3.585
		c-1.516,0-2.692,1.028-3.084,2.256c-0.104,0.276-0.157,0.652-0.157,1.028v7.295h-2.3V270.785z"/>
	<path fill="#FFFFFF" d="M66.928,267.501l2.483,6.819c0.418,1.103,0.758,2.106,1.02,3.109h0.079
		c0.287-1.003,0.653-2.006,1.071-3.109l2.457-6.819h2.405l-4.966,12.134H69.28l-4.81-12.134H66.928z"/>
	<path fill="#FFFFFF" d="M79.635,273.969c0.052,2.983,2.039,4.212,4.339,4.212c1.646,0,2.64-0.276,3.502-0.627l0.392,1.58
		c-0.81,0.351-2.195,0.752-4.208,0.752c-3.895,0-6.221-2.457-6.221-6.117c0-3.661,2.248-6.543,5.934-6.543
		c4.13,0,5.228,3.485,5.228,5.716c0,0.451-0.052,0.802-0.079,1.028H79.635z M86.378,272.39c0.026-1.404-0.601-3.585-3.189-3.585
		c-2.326,0-3.346,2.056-3.529,3.585H86.378z"/>
	<path fill="#FFFFFF" d="M91.453,270.785c0-1.254-0.026-2.282-0.104-3.284h2.039l0.131,2.005h0.052
		c0.627-1.153,2.091-2.281,4.182-2.281c1.751,0,4.47,1.003,4.47,5.165v7.245h-2.3v-6.995c0-1.956-0.758-3.585-2.928-3.585
		c-1.516,0-2.692,1.028-3.084,2.256c-0.104,0.276-0.157,0.652-0.157,1.028v7.295h-2.3V270.785z"/>
	<path fill="#FFFFFF" d="M108.629,264.016v3.485h3.293v1.68h-3.293v6.543c0,1.504,0.444,2.357,1.725,2.357
		c0.601,0,1.045-0.075,1.333-0.15l0.104,1.654c-0.444,0.176-1.15,0.301-2.039,0.301c-1.072,0-1.934-0.326-2.483-0.927
		c-0.653-0.652-0.889-1.73-0.889-3.159v-6.618h-1.96v-1.68h1.96v-2.908L108.629,264.016z"/>
	<path fill="#FFFFFF" d="M125.805,273.467c0,4.488-3.241,6.443-6.299,6.443c-3.424,0-6.064-2.407-6.064-6.243
		c0-4.062,2.771-6.443,6.273-6.443C123.348,267.225,125.805,269.757,125.805,273.467z M115.768,273.593
		c0,2.658,1.595,4.663,3.843,4.663c2.195,0,3.842-1.98,3.842-4.713c0-2.056-1.072-4.663-3.79-4.663
		C116.944,268.88,115.768,271.287,115.768,273.593z"/>
	<path fill="#FFFFFF" d="M128.71,271.287c0-1.429-0.026-2.658-0.104-3.786h2.013l0.078,2.381h0.104
		c0.575-1.629,1.96-2.657,3.502-2.657c0.262,0,0.445,0.025,0.654,0.075v2.081c-0.235-0.05-0.471-0.075-0.784-0.075
		c-1.621,0-2.771,1.179-3.084,2.833c-0.052,0.301-0.104,0.652-0.104,1.028v6.468h-2.274V271.287z"/>
	<path fill="#FFFFFF" d="M138.75,267.501l2.771,7.17c0.288,0.802,0.601,1.755,0.811,2.482h0.052c0.235-0.727,0.497-1.655,0.81-2.532
		l2.509-7.12h2.431l-3.451,8.649c-1.646,4.162-2.771,6.292-4.339,7.596c-1.124,0.953-2.248,1.329-2.823,1.429l-0.575-1.855
		c0.575-0.176,1.333-0.527,2.013-1.078c0.627-0.477,1.412-1.329,1.934-2.457c0.104-0.226,0.183-0.401,0.183-0.526
		s-0.052-0.301-0.157-0.577l-4.679-11.181H138.75z"/>
	<path fill="#FFFFFF" d="M60.283,302.301c-0.131-2.357-0.288-5.19-0.261-7.296h-0.079c-0.601,1.98-1.333,4.086-2.222,6.418
		l-3.11,8.198h-1.725l-2.849-8.048c-0.836-2.381-1.542-4.563-2.039-6.568h-0.052c-0.052,2.106-0.183,4.939-0.34,7.472l-0.47,7.244
		h-2.169l1.229-16.897h2.901l3.006,8.173c0.732,2.082,1.333,3.936,1.777,5.691h0.079c0.444-1.705,1.071-3.56,1.855-5.691
		l3.137-8.173h2.901l1.098,16.897h-2.222L60.283,302.301z"/>
	<path fill="#FFFFFF" d="M67.816,304.055c0.052,2.984,2.039,4.213,4.339,4.213c1.646,0,2.64-0.276,3.502-0.627l0.392,1.579
		c-0.81,0.351-2.195,0.752-4.208,0.752c-3.895,0-6.221-2.456-6.221-6.116c0-3.661,2.248-6.544,5.934-6.544
		c4.13,0,5.228,3.485,5.228,5.716c0,0.451-0.052,0.803-0.079,1.027H67.816z M74.56,302.477c0.026-1.404-0.601-3.586-3.189-3.586
		c-2.326,0-3.346,2.056-3.529,3.586H74.56z"/>
	<path fill="#FFFFFF" d="M79.32,307.465c0.68,0.426,1.882,0.877,3.032,0.877c1.673,0,2.457-0.802,2.457-1.805
		c0-1.053-0.653-1.629-2.353-2.23c-2.274-0.777-3.346-1.98-3.346-3.435c0-1.956,1.647-3.56,4.365-3.56
		c1.281,0,2.405,0.351,3.11,0.752l-0.575,1.604c-0.497-0.301-1.411-0.702-2.587-0.702c-1.359,0-2.117,0.752-2.117,1.654
		c0,1.002,0.758,1.454,2.405,2.055c2.195,0.803,3.319,1.855,3.319,3.661c0,2.131-1.725,3.635-4.731,3.635
		c-1.385,0-2.666-0.325-3.555-0.827L79.32,307.465z"/>
	<path fill="#FFFFFF" d="M89.674,307.465c0.68,0.426,1.882,0.877,3.032,0.877c1.673,0,2.457-0.802,2.457-1.805
		c0-1.053-0.653-1.629-2.353-2.23c-2.274-0.777-3.346-1.98-3.346-3.435c0-1.956,1.647-3.56,4.365-3.56
		c1.281,0,2.405,0.351,3.11,0.752l-0.575,1.604c-0.497-0.301-1.411-0.702-2.587-0.702c-1.359,0-2.117,0.752-2.117,1.654
		c0,1.002,0.758,1.454,2.405,2.055c2.195,0.803,3.319,1.855,3.319,3.661c0,2.131-1.725,3.635-4.731,3.635
		c-1.385,0-2.666-0.325-3.555-0.827L89.674,307.465z"/>
	<path fill="#FFFFFF" d="M107.347,309.721l-0.183-1.529h-0.078c-0.706,0.953-2.065,1.806-3.869,1.806
		c-2.562,0-3.868-1.729-3.868-3.485c0-2.933,2.718-4.537,7.606-4.512v-0.251c0-1.003-0.288-2.808-2.875-2.808
		c-1.176,0-2.405,0.351-3.293,0.903l-0.523-1.454c1.045-0.652,2.562-1.078,4.156-1.078c3.868,0,4.809,2.532,4.809,4.964v4.537
		c0,1.054,0.052,2.082,0.209,2.908H107.347z M107.007,303.529c-2.509-0.051-5.358,0.375-5.358,2.732
		c0,1.429,0.994,2.105,2.169,2.105c1.647,0,2.692-1.002,3.059-2.03c0.078-0.226,0.13-0.477,0.13-0.702V303.529z"/>
	<path fill="#FFFFFF" d="M123.843,297.587c-0.052,0.877-0.104,1.855-0.104,3.334v7.045c0,2.782-0.575,4.487-1.803,5.54
		c-1.229,1.104-3.006,1.454-4.601,1.454c-1.516,0-3.189-0.351-4.208-1.003l0.575-1.68c0.836,0.501,2.144,0.953,3.712,0.953
		c2.352,0,4.077-1.179,4.077-4.237v-1.354h-0.052c-0.706,1.128-2.065,2.03-4.025,2.03c-3.137,0-5.385-2.558-5.385-5.917
		c0-4.111,2.797-6.442,5.698-6.442c2.196,0,3.398,1.103,3.947,2.106h0.052l0.104-1.83H123.843z M121.465,302.375
		c0-0.375-0.026-0.701-0.131-1.002c-0.418-1.279-1.542-2.332-3.215-2.332c-2.196,0-3.764,1.78-3.764,4.587
		c0,2.382,1.255,4.362,3.738,4.362c1.412,0,2.692-0.853,3.189-2.257c0.131-0.375,0.183-0.802,0.183-1.178V302.375z"/>
	<path fill="#FFFFFF" d="M128.84,304.055c0.052,2.984,2.039,4.213,4.339,4.213c1.646,0,2.64-0.276,3.502-0.627l0.392,1.579
		c-0.81,0.351-2.195,0.752-4.208,0.752c-3.895,0-6.221-2.456-6.221-6.116c0-3.661,2.248-6.544,5.934-6.544
		c4.13,0,5.228,3.485,5.228,5.716c0,0.451-0.052,0.803-0.079,1.027H128.84z M135.583,302.477c0.026-1.404-0.601-3.586-3.189-3.586
		c-2.326,0-3.346,2.056-3.529,3.586H135.583z"/>
	<path fill="#FFFFFF" d="M45.436,339.808V322.91h2.483l5.646,8.549c1.307,1.98,2.326,3.761,3.163,5.49l0.052-0.024
		c-0.209-2.257-0.261-4.313-0.261-6.944v-7.07h2.143v16.897h-2.3l-5.593-8.574c-1.229-1.88-2.405-3.811-3.293-5.641l-0.079,0.025
		c0.131,2.131,0.183,4.161,0.183,6.969v7.221H45.436z"/>
	<path fill="#FFFFFF" d="M74.01,333.641c0,4.487-3.241,6.442-6.299,6.442c-3.424,0-6.064-2.406-6.064-6.242
		c0-4.062,2.771-6.443,6.273-6.443C71.553,327.397,74.01,329.93,74.01,333.641z M63.973,333.766c0,2.657,1.595,4.663,3.843,4.663
		c2.195,0,3.842-1.98,3.842-4.713c0-2.056-1.072-4.663-3.79-4.663C65.149,329.053,63.973,331.459,63.973,333.766z"/>
	<path fill="#FFFFFF" d="M79.686,324.188v3.485h3.293v1.68h-3.293v6.543c0,1.505,0.444,2.356,1.725,2.356
		c0.601,0,1.045-0.075,1.333-0.15l0.104,1.655c-0.444,0.175-1.15,0.301-2.039,0.301c-1.072,0-1.934-0.326-2.483-0.928
		c-0.653-0.652-0.889-1.729-0.889-3.159v-6.618h-1.96v-1.68h1.96v-2.908L79.686,324.188z"/>
	<path fill="#FFFFFF" d="M88.131,324.264c0.026,0.753-0.549,1.354-1.464,1.354c-0.81,0-1.385-0.602-1.385-1.354
		c0-0.776,0.601-1.379,1.438-1.379C87.583,322.885,88.131,323.487,88.131,324.264z M85.57,339.808v-12.134h2.3v12.134H85.57z"/>
	<path fill="#FFFFFF" d="M91.923,339.808v-10.454h-1.778v-1.68h1.778v-0.652c0-3.209,1.96-5.289,5.515-5.289
		c1.176,0,2.562,0.351,3.215,0.802l-0.653,1.68c-0.549-0.376-1.542-0.702-2.666-0.702c-2.431,0-3.137,1.63-3.137,3.561v0.602h7.345
		v12.134h-2.274v-10.454h-5.071v10.454H91.923z"/>
	<path fill="#FFFFFF" d="M114.379,339.356c-0.601,0.301-1.934,0.702-3.633,0.702c-3.816,0-6.299-2.482-6.299-6.192
		c0-3.735,2.666-6.443,6.796-6.443c1.359,0,2.562,0.326,3.189,0.627l-0.523,1.705c-0.549-0.301-1.411-0.577-2.666-0.577
		c-2.901,0-4.47,2.056-4.47,4.588c0,2.808,1.882,4.538,4.392,4.538c1.307,0,2.169-0.326,2.823-0.602L114.379,339.356z"/>
	<path fill="#FFFFFF" d="M124.08,339.808l-0.183-1.529h-0.078c-0.706,0.953-2.065,1.805-3.869,1.805
		c-2.562,0-3.868-1.729-3.868-3.484c0-2.934,2.718-4.538,7.606-4.513v-0.251c0-1.003-0.288-2.808-2.875-2.808
		c-1.176,0-2.405,0.351-3.293,0.902l-0.523-1.454c1.045-0.651,2.562-1.078,4.156-1.078c3.868,0,4.809,2.532,4.809,4.964v4.538
		c0,1.053,0.052,2.081,0.209,2.908H124.08z M123.74,333.615c-2.509-0.05-5.358,0.376-5.358,2.732c0,1.43,0.994,2.106,2.169,2.106
		c1.647,0,2.692-1.003,3.059-2.031c0.078-0.226,0.13-0.476,0.13-0.702V333.615z"/>
	<path fill="#FFFFFF" d="M132.343,324.188v3.485h3.293v1.68h-3.293v6.543c0,1.505,0.444,2.356,1.725,2.356
		c0.601,0,1.045-0.075,1.333-0.15l0.104,1.655c-0.444,0.175-1.15,0.301-2.039,0.301c-1.072,0-1.934-0.326-2.483-0.928
		c-0.653-0.652-0.889-1.729-0.889-3.159v-6.618h-1.96v-1.68h1.96v-2.908L132.343,324.188z"/>
	<path fill="#FFFFFF" d="M140.789,324.264c0.026,0.753-0.549,1.354-1.464,1.354c-0.81,0-1.385-0.602-1.385-1.354
		c0-0.776,0.601-1.379,1.438-1.379C140.24,322.885,140.789,323.487,140.789,324.264z M138.227,339.808v-12.134h2.3v12.134H138.227z"
		/>
	<path fill="#FFFFFF" d="M155.793,333.641c0,4.487-3.241,6.442-6.299,6.442c-3.424,0-6.064-2.406-6.064-6.242
		c0-4.062,2.771-6.443,6.273-6.443C153.336,327.397,155.793,329.93,155.793,333.641z M145.756,333.766
		c0,2.657,1.595,4.663,3.843,4.663c2.195,0,3.842-1.98,3.842-4.713c0-2.056-1.072-4.663-3.79-4.663
		C146.932,329.053,145.756,331.459,145.756,333.766z"/>
	<path fill="#FFFFFF" d="M158.699,330.958c0-1.254-0.026-2.281-0.104-3.284h2.039l0.131,2.006h0.052
		c0.627-1.153,2.091-2.282,4.182-2.282c1.751,0,4.47,1.003,4.47,5.165v7.245h-2.3v-6.994c0-1.956-0.758-3.586-2.928-3.586
		c-1.516,0-2.692,1.028-3.084,2.257c-0.104,0.275-0.157,0.651-0.157,1.027v7.296h-2.3V330.958z"/>
	<path fill="#FFFFFF" d="M45.436,353.198c1.098-0.176,2.536-0.326,4.365-0.326c2.248,0,3.895,0.501,4.94,1.403
		c0.967,0.803,1.542,2.031,1.542,3.535c0,1.529-0.471,2.732-1.359,3.61c-1.202,1.229-3.163,1.855-5.384,1.855
		c-0.68,0-1.307-0.025-1.83-0.15v6.769h-2.274V353.198z M47.71,361.346c0.497,0.125,1.124,0.176,1.882,0.176
		c2.745,0,4.417-1.279,4.417-3.61c0-2.231-1.647-3.31-4.156-3.31c-0.993,0-1.751,0.075-2.143,0.176V361.346z"/>
	<path fill="#FFFFFF" d="M65.593,369.895l-0.183-1.529h-0.078c-0.706,0.953-2.065,1.805-3.869,1.805
		c-2.562,0-3.868-1.729-3.868-3.484c0-2.934,2.718-4.538,7.606-4.513v-0.251c0-1.003-0.288-2.808-2.875-2.808
		c-1.176,0-2.405,0.352-3.293,0.902l-0.523-1.454c1.045-0.651,2.562-1.078,4.156-1.078c3.868,0,4.809,2.532,4.809,4.964v4.538
		c0,1.053,0.052,2.081,0.209,2.908H65.593z M65.253,363.702c-2.509-0.05-5.358,0.376-5.358,2.732c0,1.43,0.994,2.106,2.169,2.106
		c1.647,0,2.692-1.003,3.059-2.031c0.078-0.226,0.13-0.476,0.13-0.702V363.702z"/>
	<path fill="#FFFFFF" d="M80.208,369.443c-0.601,0.301-1.934,0.702-3.633,0.702c-3.816,0-6.299-2.482-6.299-6.192
		c0-3.735,2.666-6.443,6.796-6.443c1.359,0,2.562,0.326,3.189,0.627l-0.523,1.705c-0.549-0.301-1.411-0.577-2.666-0.577
		c-2.901,0-4.47,2.056-4.47,4.588c0,2.808,1.882,4.538,4.392,4.538c1.307,0,2.169-0.326,2.823-0.602L80.208,369.443z"/>
	<path fill="#FFFFFF" d="M85.177,363.326h0.052c0.313-0.426,0.758-0.953,1.124-1.379l3.711-4.187h2.771l-4.888,4.989l5.567,7.145
		h-2.796l-4.365-5.816l-1.176,1.254v4.563h-2.274v-17.8h2.274V363.326z"/>
	<path fill="#FFFFFF" d="M102.641,369.895l-0.183-1.529h-0.078c-0.706,0.953-2.065,1.805-3.869,1.805
		c-2.562,0-3.868-1.729-3.868-3.484c0-2.934,2.718-4.538,7.606-4.513v-0.251c0-1.003-0.288-2.808-2.875-2.808
		c-1.176,0-2.405,0.352-3.293,0.902l-0.523-1.454c1.045-0.651,2.562-1.078,4.156-1.078c3.868,0,4.809,2.532,4.809,4.964v4.538
		c0,1.053,0.052,2.081,0.209,2.908H102.641z M102.301,363.702c-2.509-0.05-5.358,0.376-5.358,2.732c0,1.43,0.994,2.106,2.169,2.106
		c1.647,0,2.692-1.003,3.059-2.031c0.078-0.226,0.13-0.476,0.13-0.702V363.702z"/>
	<path fill="#FFFFFF" d="M119.138,357.761c-0.052,0.877-0.104,1.855-0.104,3.334v7.045c0,2.783-0.575,4.487-1.803,5.54
		c-1.229,1.104-3.006,1.454-4.601,1.454c-1.516,0-3.189-0.351-4.208-1.002l0.575-1.68c0.836,0.501,2.144,0.952,3.712,0.952
		c2.352,0,4.078-1.179,4.078-4.236v-1.354h-0.053c-0.706,1.128-2.065,2.031-4.025,2.031c-3.137,0-5.385-2.558-5.385-5.917
		c0-4.111,2.797-6.443,5.698-6.443c2.196,0,3.398,1.104,3.947,2.106h0.052l0.104-1.83H119.138z M116.759,362.549
		c0-0.376-0.026-0.702-0.131-1.003c-0.418-1.278-1.542-2.331-3.215-2.331c-2.196,0-3.764,1.779-3.764,4.588
		c0,2.382,1.255,4.362,3.738,4.362c1.412,0,2.692-0.853,3.189-2.257c0.131-0.376,0.183-0.802,0.183-1.178V362.549z"/>
	<path fill="#FFFFFF" d="M124.134,364.229c0.052,2.983,2.039,4.212,4.339,4.212c1.646,0,2.64-0.275,3.502-0.627l0.392,1.58
		c-0.81,0.351-2.195,0.752-4.208,0.752c-3.895,0-6.221-2.457-6.221-6.117s2.248-6.544,5.934-6.544c4.13,0,5.228,3.485,5.228,5.717
		c0,0.451-0.052,0.802-0.079,1.027H124.134z M130.878,362.649c0.026-1.404-0.601-3.585-3.189-3.585
		c-2.326,0-3.346,2.056-3.529,3.585H130.878z"/>
	<path fill="#FFFFFF" d="M45.436,383.284c1.098-0.176,2.536-0.326,4.365-0.326c2.248,0,3.895,0.501,4.94,1.403
		c0.967,0.803,1.542,2.031,1.542,3.535c0,1.529-0.471,2.732-1.359,3.61c-1.202,1.229-3.163,1.855-5.384,1.855
		c-0.68,0-1.307-0.025-1.83-0.15v6.769h-2.274V383.284z M47.71,391.432c0.497,0.125,1.124,0.176,1.882,0.176
		c2.745,0,4.417-1.279,4.417-3.61c0-2.231-1.647-3.31-4.156-3.31c-0.993,0-1.751,0.075-2.143,0.176V391.432z"/>
	<path fill="#FFFFFF" d="M59.137,382.181h2.3v7.571h0.052c0.366-0.627,0.941-1.179,1.646-1.555c0.68-0.376,1.49-0.627,2.353-0.627
		c1.699,0,4.417,1.003,4.417,5.19v7.22h-2.3v-6.97c0-1.955-0.758-3.61-2.928-3.61c-1.49,0-2.666,1.003-3.084,2.207
		c-0.131,0.301-0.157,0.626-0.157,1.053v7.32h-2.3V382.181z"/>
	<path fill="#FFFFFF" d="M85.096,393.813c0,4.487-3.241,6.442-6.299,6.442c-3.424,0-6.064-2.406-6.064-6.242
		c0-4.062,2.771-6.443,6.273-6.443C82.64,387.57,85.096,390.103,85.096,393.813z M75.059,393.938c0,2.657,1.595,4.663,3.843,4.663
		c2.195,0,3.842-1.98,3.842-4.713c0-2.056-1.072-4.663-3.79-4.663C76.235,389.226,75.059,391.632,75.059,393.938z"/>
	<path fill="#FFFFFF" d="M88.002,391.131c0-1.254-0.026-2.281-0.104-3.284h2.039l0.131,2.006h0.052
		c0.627-1.153,2.091-2.282,4.182-2.282c1.751,0,4.47,1.003,4.47,5.165v7.245h-2.3v-6.994c0-1.956-0.758-3.586-2.928-3.586
		c-1.516,0-2.692,1.028-3.084,2.257c-0.104,0.275-0.157,0.651-0.157,1.027v7.296h-2.3V391.131z"/>
	<path fill="#FFFFFF" d="M103.793,394.314c0.052,2.983,2.039,4.212,4.339,4.212c1.646,0,2.64-0.275,3.502-0.627l0.392,1.58
		c-0.81,0.351-2.195,0.752-4.208,0.752c-3.895,0-6.221-2.457-6.221-6.117s2.248-6.544,5.934-6.544c4.13,0,5.228,3.485,5.228,5.717
		c0,0.451-0.052,0.802-0.079,1.027H103.793z M110.537,392.735c0.026-1.404-0.601-3.585-3.189-3.585
		c-2.326,0-3.346,2.056-3.529,3.585H110.537z"/>
	<path fill="#FFFFFF" d="M124.081,394.666l-1.83,5.314h-2.353l5.986-16.897h2.745l6.012,16.897h-2.431l-1.882-5.314H124.081z
		 M129.858,392.961l-1.725-4.863c-0.392-1.104-0.654-2.106-0.915-3.084h-0.052c-0.261,1.003-0.549,2.03-0.889,3.059l-1.725,4.889
		H129.858z"/>
	<path fill="#FFFFFF" d="M147.428,396.671c0,1.254,0.026,2.356,0.104,3.31h-2.039l-0.131-1.98h-0.052
		c-0.601,0.978-1.934,2.256-4.182,2.256c-1.986,0-4.365-1.053-4.365-5.314v-7.095h2.3v6.719c0,2.307,0.732,3.86,2.823,3.86
		c1.542,0,2.614-1.027,3.032-2.005c0.131-0.326,0.209-0.728,0.209-1.129v-7.445h2.3V396.671z"/>
	<path fill="#FFFFFF" d="M154.019,384.361v3.485h3.293v1.68h-3.293v6.543c0,1.504,0.444,2.356,1.725,2.356
		c0.601,0,1.045-0.075,1.333-0.15l0.104,1.655c-0.444,0.175-1.15,0.301-2.039,0.301c-1.072,0-1.934-0.326-2.483-0.928
		c-0.653-0.652-0.889-1.73-0.889-3.159v-6.618h-1.96v-1.68h1.96v-2.908L154.019,384.361z"/>
	<path fill="#FFFFFF" d="M159.902,382.181h2.3v7.571h0.052c0.366-0.627,0.941-1.179,1.646-1.555c0.68-0.376,1.49-0.627,2.353-0.627
		c1.699,0,4.417,1.003,4.417,5.19v7.22h-2.3v-6.97c0-1.955-0.758-3.61-2.928-3.61c-1.49,0-2.666,1.003-3.084,2.207
		c-0.131,0.301-0.157,0.626-0.157,1.053v7.32h-2.3V382.181z"/>
	<path fill="#FFFFFF" d="M175.693,394.314c0.052,2.983,2.039,4.212,4.339,4.212c1.646,0,2.64-0.275,3.502-0.627l0.392,1.58
		c-0.81,0.351-2.195,0.752-4.208,0.752c-3.895,0-6.221-2.457-6.221-6.117s2.248-6.544,5.934-6.544c4.13,0,5.228,3.485,5.228,5.717
		c0,0.451-0.052,0.802-0.079,1.027H175.693z M182.437,392.735c0.026-1.404-0.601-3.585-3.189-3.585
		c-2.326,0-3.346,2.056-3.529,3.585H182.437z"/>
	<path fill="#FFFFFF" d="M187.512,391.131c0-1.254-0.026-2.281-0.104-3.284h2.039l0.131,2.006h0.052
		c0.627-1.153,2.091-2.282,4.182-2.282c1.751,0,4.47,1.003,4.47,5.165v7.245h-2.3v-6.994c0-1.956-0.758-3.586-2.928-3.586
		c-1.516,0-2.692,1.028-3.084,2.257c-0.104,0.275-0.157,0.651-0.157,1.027v7.296h-2.3V391.131z"/>
	<path fill="#FFFFFF" d="M204.688,384.361v3.485h3.293v1.68h-3.293v6.543c0,1.504,0.444,2.356,1.725,2.356
		c0.601,0,1.045-0.075,1.333-0.15l0.104,1.655c-0.444,0.175-1.15,0.301-2.039,0.301c-1.072,0-1.934-0.326-2.483-0.928
		c-0.653-0.652-0.889-1.73-0.889-3.159v-6.618h-1.96v-1.68h1.96v-2.908L204.688,384.361z"/>
	<path fill="#FFFFFF" d="M213.133,384.437c0.026,0.753-0.549,1.354-1.464,1.354c-0.81,0-1.385-0.602-1.385-1.354
		c0-0.776,0.601-1.379,1.438-1.379C212.584,383.058,213.133,383.66,213.133,384.437z M210.572,399.98v-12.134h2.3v12.134H210.572z"
		/>
	<path fill="#FFFFFF" d="M225.708,399.529c-0.601,0.301-1.934,0.702-3.633,0.702c-3.816,0-6.299-2.482-6.299-6.192
		c0-3.735,2.666-6.443,6.796-6.443c1.359,0,2.562,0.326,3.189,0.627l-0.523,1.705c-0.549-0.301-1.411-0.577-2.666-0.577
		c-2.901,0-4.47,2.056-4.47,4.588c0,2.808,1.882,4.538,4.392,4.538c1.307,0,2.169-0.326,2.823-0.602L225.708,399.529z"/>
	<path fill="#FFFFFF" d="M235.408,399.98l-0.183-1.529h-0.078c-0.706,0.953-2.065,1.805-3.869,1.805
		c-2.562,0-3.868-1.729-3.868-3.484c0-2.934,2.718-4.538,7.606-4.513v-0.251c0-1.003-0.288-2.808-2.875-2.808
		c-1.176,0-2.405,0.352-3.293,0.902l-0.523-1.454c1.045-0.651,2.562-1.078,4.156-1.078c3.868,0,4.809,2.532,4.809,4.964v4.538
		c0,1.053,0.052,2.081,0.209,2.908H235.408z M235.068,393.788c-2.509-0.05-5.358,0.376-5.358,2.732c0,1.43,0.994,2.106,2.169,2.106
		c1.647,0,2.692-1.003,3.059-2.031c0.078-0.226,0.13-0.476,0.13-0.702V393.788z"/>
	<path fill="#FFFFFF" d="M243.671,384.361v3.485h3.293v1.68h-3.293v6.543c0,1.504,0.444,2.356,1.725,2.356
		c0.601,0,1.045-0.075,1.333-0.15l0.104,1.655c-0.444,0.175-1.15,0.301-2.039,0.301c-1.072,0-1.934-0.326-2.483-0.928
		c-0.653-0.652-0.889-1.73-0.889-3.159v-6.618h-1.96v-1.68h1.96v-2.908L243.671,384.361z"/>
	<path fill="#FFFFFF" d="M252.117,384.437c0.026,0.753-0.549,1.354-1.464,1.354c-0.81,0-1.385-0.602-1.385-1.354
		c0-0.776,0.601-1.379,1.438-1.379C251.568,383.058,252.117,383.66,252.117,384.437z M249.555,399.98v-12.134h2.3v12.134H249.555z"
		/>
	<path fill="#FFFFFF" d="M267.121,393.813c0,4.487-3.241,6.442-6.299,6.442c-3.424,0-6.064-2.406-6.064-6.242
		c0-4.062,2.771-6.443,6.273-6.443C264.665,387.57,267.121,390.103,267.121,393.813z M257.084,393.938
		c0,2.657,1.595,4.663,3.843,4.663c2.195,0,3.842-1.98,3.842-4.713c0-2.056-1.072-4.663-3.79-4.663
		C258.26,389.226,257.084,391.632,257.084,393.938z"/>
	<path fill="#FFFFFF" d="M270.027,391.131c0-1.254-0.026-2.281-0.104-3.284h2.039l0.131,2.006h0.052
		c0.627-1.153,2.091-2.282,4.182-2.282c1.751,0,4.47,1.003,4.47,5.165v7.245h-2.3v-6.994c0-1.956-0.758-3.586-2.928-3.586
		c-1.516,0-2.692,1.028-3.084,2.257c-0.104,0.275-0.157,0.651-0.157,1.027v7.296h-2.3V391.131z"/>
	<path fill="#FFFFFF" d="M45.436,413.371c1.098-0.176,2.536-0.326,4.365-0.326c2.248,0,3.895,0.501,4.94,1.403
		c0.967,0.803,1.542,2.031,1.542,3.535c0,1.529-0.471,2.732-1.359,3.61c-1.202,1.229-3.163,1.855-5.384,1.855
		c-0.68,0-1.307-0.025-1.83-0.15v6.769h-2.274V413.371z M47.71,421.519c0.497,0.125,1.124,0.176,1.882,0.176
		c2.745,0,4.417-1.279,4.417-3.61c0-2.231-1.647-3.31-4.156-3.31c-0.993,0-1.751,0.075-2.143,0.176V421.519z"/>
	<path fill="#FFFFFF" d="M58.849,421.719c0-1.429-0.026-2.657-0.104-3.785h2.013l0.078,2.382h0.104
		c0.575-1.63,1.96-2.658,3.502-2.658c0.262,0,0.445,0.025,0.654,0.075v2.081c-0.235-0.05-0.471-0.075-0.784-0.075
		c-1.621,0-2.771,1.179-3.084,2.833c-0.052,0.301-0.104,0.652-0.104,1.028v6.468h-2.274V421.719z"/>
	<path fill="#FFFFFF" d="M78.586,423.9c0,4.487-3.241,6.442-6.299,6.442c-3.424,0-6.064-2.406-6.064-6.242
		c0-4.062,2.771-6.443,6.273-6.443C76.129,417.657,78.586,420.189,78.586,423.9z M68.549,424.025c0,2.657,1.595,4.663,3.843,4.663
		c2.195,0,3.842-1.98,3.842-4.713c0-2.056-1.072-4.663-3.79-4.663C69.725,419.313,68.549,421.719,68.549,424.025z"/>
	<path fill="#FFFFFF" d="M81.727,430.067v-10.454h-1.778v-1.68h1.778v-0.652c0-3.209,1.96-5.289,5.515-5.289
		c1.176,0,2.562,0.351,3.215,0.802l-0.653,1.68c-0.549-0.376-1.542-0.702-2.666-0.702c-2.431,0-3.137,1.63-3.137,3.561v0.602h7.345
		v12.134h-2.274v-10.454h-5.071v10.454H81.727z"/>
	<path fill="#FFFFFF" d="M95.166,412.268h2.3v17.8h-2.3V412.268z"/>
	<path fill="#FFFFFF" d="M102.617,424.401c0.052,2.983,2.039,4.212,4.339,4.212c1.646,0,2.64-0.275,3.502-0.627l0.392,1.58
		c-0.81,0.351-2.195,0.752-4.208,0.752c-3.895,0-6.221-2.457-6.221-6.117s2.248-6.544,5.934-6.544c4.13,0,5.228,3.485,5.228,5.717
		c0,0.451-0.052,0.802-0.079,1.027H102.617z M109.36,422.822c0.026-1.404-0.601-3.585-3.189-3.585c-2.326,0-3.346,2.056-3.529,3.585
		H109.36z"/>
	<path fill="#FFFFFF" d="M45.436,443.481c1.15-0.226,2.797-0.351,4.365-0.351c2.431,0,3.999,0.426,5.097,1.379
		c0.889,0.752,1.385,1.905,1.385,3.209c0,2.231-1.464,3.71-3.32,4.312v0.075c1.359,0.451,2.169,1.655,2.588,3.41
		c0.575,2.356,0.993,3.986,1.359,4.638h-2.353c-0.288-0.477-0.68-1.931-1.176-4.036c-0.523-2.332-1.464-3.209-3.529-3.284H47.71
		v7.32h-2.274V443.481z M47.71,451.178h2.326c2.431,0,3.973-1.278,3.973-3.209c0-2.181-1.647-3.134-4.052-3.158
		c-1.098,0-1.882,0.101-2.248,0.2V451.178z"/>
	<path fill="#FFFFFF" d="M60.81,454.487c0.052,2.983,2.039,4.212,4.339,4.212c1.646,0,2.64-0.275,3.502-0.627l0.392,1.58
		c-0.81,0.351-2.195,0.752-4.208,0.752c-3.895,0-6.221-2.457-6.221-6.117s2.248-6.544,5.934-6.544c4.13,0,5.228,3.485,5.228,5.717
		c0,0.451-0.052,0.802-0.079,1.027H60.81z M67.553,452.908c0.026-1.404-0.601-3.585-3.189-3.585c-2.326,0-3.346,2.056-3.529,3.585
		H67.553z"/>
	<path fill="#FFFFFF" d="M72.627,451.98c0-1.555-0.052-2.808-0.104-3.961h2.065l0.104,2.081h0.052
		c0.941-1.479,2.431-2.357,4.496-2.357c3.058,0,5.358,2.482,5.358,6.168c0,4.362-2.771,6.518-5.75,6.518
		c-1.673,0-3.137-0.701-3.895-1.905h-0.052v6.594h-2.274V451.98z M74.901,455.215c0,0.325,0.052,0.626,0.104,0.902
		c0.418,1.529,1.804,2.582,3.45,2.582c2.431,0,3.842-1.905,3.842-4.688c0-2.432-1.333-4.513-3.764-4.513
		c-1.568,0-3.032,1.078-3.477,2.733c-0.078,0.275-0.157,0.602-0.157,0.902V455.215z"/>
	<path fill="#FFFFFF" d="M98.953,453.986c0,4.487-3.241,6.442-6.299,6.442c-3.424,0-6.064-2.406-6.064-6.242
		c0-4.062,2.771-6.443,6.273-6.443C96.496,447.743,98.953,450.275,98.953,453.986z M88.916,454.111c0,2.657,1.595,4.663,3.843,4.663
		c2.195,0,3.842-1.98,3.842-4.713c0-2.056-1.072-4.663-3.79-4.663C90.092,449.398,88.916,451.805,88.916,454.111z"/>
	<path fill="#FFFFFF" d="M101.858,451.805c0-1.429-0.026-2.657-0.104-3.785h2.013l0.078,2.382h0.104
		c0.575-1.63,1.96-2.658,3.502-2.658c0.262,0,0.444,0.025,0.654,0.075v2.081c-0.235-0.05-0.471-0.075-0.784-0.075
		c-1.621,0-2.771,1.179-3.084,2.833c-0.052,0.301-0.104,0.652-0.104,1.028v6.468h-2.274V451.805z"/>
	<path fill="#FFFFFF" d="M113.806,444.534v3.485h3.293v1.68h-3.293v6.543c0,1.505,0.444,2.356,1.725,2.356
		c0.601,0,1.045-0.075,1.333-0.15l0.104,1.655c-0.444,0.175-1.15,0.301-2.039,0.301c-1.072,0-1.934-0.326-2.483-0.928
		c-0.653-0.652-0.889-1.729-0.889-3.159v-6.618h-1.96v-1.68h1.96v-2.908L113.806,444.534z"/>
	<path fill="#FFFFFF" d="M119.375,457.897c0.68,0.426,1.882,0.877,3.032,0.877c1.673,0,2.457-0.802,2.457-1.805
		c0-1.054-0.653-1.63-2.353-2.231c-2.274-0.777-3.346-1.98-3.346-3.435c0-1.956,1.647-3.561,4.365-3.561
		c1.281,0,2.405,0.352,3.11,0.753l-0.575,1.604c-0.497-0.301-1.411-0.702-2.587-0.702c-1.359,0-2.117,0.752-2.117,1.654
		c0,1.003,0.758,1.454,2.405,2.056c2.195,0.803,3.319,1.855,3.319,3.66c0,2.131-1.725,3.636-4.731,3.636
		c-1.385,0-2.666-0.326-3.555-0.827L119.375,457.897z"/>
	<path fill="#FFFFFF" d="M45.436,473.567c1.15-0.226,2.797-0.351,4.365-0.351c2.431,0,3.999,0.426,5.097,1.379
		c0.889,0.752,1.385,1.905,1.385,3.209c0,2.231-1.464,3.71-3.32,4.312v0.075c1.359,0.451,2.169,1.655,2.588,3.41
		c0.575,2.356,0.993,3.986,1.359,4.638h-2.353c-0.288-0.477-0.68-1.931-1.176-4.036c-0.523-2.332-1.464-3.209-3.529-3.284H47.71
		v7.32h-2.274V473.567z M47.71,481.264h2.326c2.431,0,3.973-1.278,3.973-3.209c0-2.181-1.647-3.134-4.052-3.158
		c-1.098,0-1.882,0.101-2.248,0.2V481.264z"/>
	<path fill="#FFFFFF" d="M60.81,484.573c0.052,2.983,2.039,4.212,4.339,4.212c1.646,0,2.64-0.275,3.502-0.627l0.392,1.58
		c-0.81,0.351-2.195,0.752-4.208,0.752c-3.895,0-6.221-2.457-6.221-6.117s2.248-6.544,5.934-6.544c4.13,0,5.228,3.485,5.228,5.717
		c0,0.451-0.052,0.802-0.079,1.027H60.81z M67.553,482.994c0.026-1.404-0.601-3.585-3.189-3.585c-2.326,0-3.346,2.056-3.529,3.585
		H67.553z"/>
	<path fill="#FFFFFF" d="M81.645,489.788c-0.601,0.301-1.934,0.702-3.633,0.702c-3.816,0-6.299-2.482-6.299-6.192
		c0-3.735,2.666-6.443,6.796-6.443c1.359,0,2.562,0.326,3.189,0.627l-0.523,1.705c-0.549-0.301-1.411-0.577-2.666-0.577
		c-2.901,0-4.47,2.056-4.47,4.588c0,2.808,1.882,4.538,4.392,4.538c1.307,0,2.169-0.326,2.823-0.602L81.645,489.788z"/>
	<path fill="#FFFFFF" d="M84.341,472.439h2.3v7.571h0.052c0.366-0.627,0.941-1.179,1.646-1.555c0.68-0.376,1.49-0.627,2.353-0.627
		c1.699,0,4.417,1.003,4.417,5.189v7.221h-2.3v-6.97c0-1.955-0.758-3.61-2.928-3.61c-1.49,0-2.666,1.003-3.084,2.207
		c-0.131,0.301-0.157,0.626-0.157,1.053v7.32h-2.3V472.439z"/>
	<path fill="#FFFFFF" d="M105.856,490.239l-0.183-1.529h-0.078c-0.706,0.953-2.065,1.805-3.869,1.805
		c-2.562,0-3.868-1.729-3.868-3.484c0-2.934,2.718-4.538,7.606-4.513v-0.251c0-1.003-0.288-2.808-2.875-2.808
		c-1.176,0-2.405,0.351-3.293,0.902l-0.523-1.454c1.045-0.651,2.562-1.078,4.156-1.078c3.868,0,4.809,2.532,4.809,4.964v4.538
		c0,1.053,0.052,2.081,0.209,2.908H105.856z M105.517,484.047c-2.509-0.05-5.358,0.376-5.358,2.732c0,1.43,0.994,2.106,2.169,2.106
		c1.647,0,2.692-1.003,3.059-2.031c0.078-0.226,0.13-0.476,0.13-0.702V484.047z"/>
	<path fill="#FFFFFF" d="M111.454,481.891c0-1.429-0.026-2.657-0.104-3.785h2.013l0.078,2.382h0.104
		c0.575-1.63,1.96-2.658,3.502-2.658c0.262,0,0.445,0.025,0.654,0.075v2.081c-0.235-0.05-0.471-0.075-0.784-0.075
		c-1.621,0-2.771,1.179-3.084,2.833c-0.052,0.301-0.104,0.652-0.104,1.028v6.468h-2.274V481.891z"/>
	<path fill="#FFFFFF" d="M130.694,478.105c-0.052,0.877-0.104,1.855-0.104,3.334v7.045c0,2.783-0.575,4.487-1.803,5.54
		c-1.229,1.104-3.006,1.454-4.601,1.454c-1.516,0-3.189-0.351-4.208-1.002l0.575-1.68c0.836,0.501,2.144,0.952,3.712,0.952
		c2.352,0,4.077-1.179,4.077-4.236v-1.354h-0.052c-0.706,1.128-2.065,2.031-4.025,2.031c-3.137,0-5.385-2.558-5.385-5.917
		c0-4.111,2.797-6.443,5.698-6.443c2.196,0,3.398,1.104,3.947,2.106h0.052l0.104-1.83H130.694z M128.315,482.894
		c0-0.376-0.026-0.702-0.131-1.003c-0.418-1.278-1.542-2.331-3.215-2.331c-2.196,0-3.764,1.779-3.764,4.588
		c0,2.382,1.255,4.362,3.738,4.362c1.412,0,2.692-0.853,3.189-2.257c0.131-0.376,0.183-0.802,0.183-1.178V482.894z"/>
	<path fill="#FFFFFF" d="M135.69,484.573c0.052,2.983,2.039,4.212,4.339,4.212c1.646,0,2.64-0.275,3.502-0.627l0.392,1.58
		c-0.81,0.351-2.195,0.752-4.208,0.752c-3.895,0-6.221-2.457-6.221-6.117s2.248-6.544,5.934-6.544c4.13,0,5.228,3.485,5.228,5.717
		c0,0.451-0.052,0.802-0.079,1.027H135.69z M142.434,482.994c0.026-1.404-0.601-3.585-3.189-3.585c-2.326,0-3.346,2.056-3.529,3.585
		H142.434z"/>
	<path fill="#FFFFFF" d="M45.123,517.669c1.02,0.602,2.509,1.103,4.078,1.103c2.326,0,3.686-1.178,3.686-2.883
		c0-1.579-0.941-2.481-3.32-3.359c-2.875-0.978-4.652-2.406-4.652-4.788c0-2.633,2.274-4.588,5.698-4.588
		c1.803,0,3.11,0.401,3.895,0.827l-0.627,1.78c-0.575-0.301-1.751-0.803-3.346-0.803c-2.405,0-3.32,1.379-3.32,2.532
		c0,1.579,1.072,2.356,3.503,3.259c2.979,1.104,4.496,2.482,4.496,4.964c0,2.607-2.013,4.864-6.168,4.864
		c-1.699,0-3.555-0.477-4.496-1.078L45.123,517.669z"/>
	<path fill="#FFFFFF" d="M58.248,502.526h2.3v7.571H60.6c0.366-0.627,0.941-1.179,1.646-1.555c0.68-0.376,1.49-0.627,2.353-0.627
		c1.699,0,4.417,1.003,4.417,5.19v7.22h-2.3v-6.97c0-1.955-0.758-3.61-2.928-3.61c-1.49,0-2.666,1.003-3.084,2.207
		c-0.131,0.301-0.157,0.626-0.157,1.053v7.32h-2.3V502.526z"/>
	<path fill="#FFFFFF" d="M75.32,504.782c0.026,0.753-0.549,1.354-1.464,1.354c-0.81,0-1.385-0.602-1.385-1.354
		c0-0.776,0.601-1.379,1.438-1.379C74.771,503.403,75.32,504.006,75.32,504.782z M72.758,520.326v-12.134h2.3v12.134H72.758z"/>
	<path fill="#FFFFFF" d="M79.112,520.326v-10.454h-1.778v-1.68h1.778v-0.577c0-1.704,0.392-3.259,1.463-4.236
		c0.863-0.803,2.013-1.128,3.084-1.128c0.81,0,1.516,0.175,1.96,0.351l-0.314,1.705c-0.339-0.15-0.81-0.276-1.463-0.276
		c-1.96,0-2.457,1.655-2.457,3.51v0.652h3.058v1.68h-3.058v10.454H79.112z"/>
	<path fill="#FFFFFF" d="M89.568,504.707v3.485h3.293v1.68h-3.293v6.543c0,1.504,0.444,2.356,1.725,2.356
		c0.601,0,1.045-0.075,1.333-0.15l0.104,1.655c-0.444,0.175-1.15,0.301-2.039,0.301c-1.072,0-1.934-0.326-2.483-0.928
		c-0.653-0.652-0.889-1.73-0.889-3.159v-6.618h-1.96v-1.68h1.96v-2.908L89.568,504.707z"/>
	<path fill="#FFFFFF" d="M115.919,512.905c-0.131-2.356-0.288-5.189-0.261-7.295h-0.079c-0.601,1.98-1.333,4.086-2.222,6.418
		l-3.11,8.197h-1.725l-2.849-8.047c-0.836-2.382-1.542-4.563-2.039-6.568h-0.052c-0.052,2.105-0.183,4.938-0.34,7.471l-0.47,7.245
		h-2.169l1.229-16.897h2.901l3.006,8.173c0.732,2.081,1.333,3.937,1.777,5.691h0.079c0.444-1.705,1.071-3.561,1.855-5.691
		l3.137-8.173h2.901l1.098,16.897h-2.222L115.919,512.905z"/>
	<path fill="#FFFFFF" d="M129.177,520.326l-0.183-1.529h-0.078c-0.706,0.953-2.065,1.805-3.869,1.805
		c-2.562,0-3.868-1.729-3.868-3.484c0-2.934,2.718-4.538,7.606-4.513v-0.251c0-1.003-0.288-2.808-2.875-2.808
		c-1.176,0-2.405,0.352-3.293,0.902l-0.523-1.454c1.045-0.651,2.562-1.078,4.156-1.078c3.868,0,4.809,2.532,4.809,4.964v4.538
		c0,1.053,0.052,2.081,0.209,2.908H129.177z M128.837,514.134c-2.509-0.05-5.358,0.376-5.358,2.732c0,1.43,0.994,2.106,2.169,2.106
		c1.647,0,2.692-1.003,3.059-2.031c0.078-0.226,0.13-0.476,0.13-0.702V514.134z"/>
	<path fill="#FFFFFF" d="M134.775,511.477c0-1.254-0.026-2.281-0.104-3.284h2.039l0.131,2.006h0.052
		c0.627-1.153,2.091-2.282,4.182-2.282c1.751,0,4.47,1.003,4.47,5.165v7.245h-2.3v-6.994c0-1.956-0.758-3.586-2.928-3.586
		c-1.516,0-2.692,1.028-3.084,2.257c-0.104,0.275-0.157,0.651-0.157,1.027v7.296h-2.3V511.477z"/>
	<path fill="#FFFFFF" d="M156.291,520.326l-0.183-1.529h-0.078c-0.706,0.953-2.065,1.805-3.869,1.805
		c-2.562,0-3.868-1.729-3.868-3.484c0-2.934,2.718-4.538,7.606-4.513v-0.251c0-1.003-0.288-2.808-2.875-2.808
		c-1.176,0-2.405,0.352-3.293,0.902l-0.523-1.454c1.045-0.651,2.562-1.078,4.156-1.078c3.868,0,4.809,2.532,4.809,4.964v4.538
		c0,1.053,0.052,2.081,0.209,2.908H156.291z M155.951,514.134c-2.509-0.05-5.358,0.376-5.358,2.732c0,1.43,0.994,2.106,2.169,2.106
		c1.647,0,2.692-1.003,3.059-2.031c0.078-0.226,0.13-0.476,0.13-0.702V514.134z"/>
	<path fill="#FFFFFF" d="M172.787,508.192c-0.052,0.877-0.104,1.855-0.104,3.334v7.045c0,2.783-0.575,4.487-1.803,5.54
		c-1.229,1.104-3.006,1.454-4.601,1.454c-1.516,0-3.189-0.351-4.208-1.002l0.575-1.68c0.836,0.501,2.144,0.952,3.712,0.952
		c2.352,0,4.078-1.179,4.078-4.236v-1.354h-0.053c-0.706,1.128-2.065,2.031-4.025,2.031c-3.137,0-5.385-2.558-5.385-5.917
		c0-4.111,2.797-6.443,5.698-6.443c2.196,0,3.398,1.104,3.947,2.106h0.052l0.104-1.83H172.787z M170.409,512.98
		c0-0.376-0.026-0.702-0.131-1.003c-0.418-1.278-1.542-2.331-3.215-2.331c-2.196,0-3.764,1.779-3.764,4.588
		c0,2.382,1.255,4.362,3.738,4.362c1.412,0,2.692-0.853,3.189-2.257c0.131-0.376,0.183-0.802,0.183-1.178V512.98z"/>
	<path fill="#FFFFFF" d="M177.784,514.66c0.052,2.983,2.039,4.212,4.339,4.212c1.646,0,2.64-0.275,3.502-0.627l0.392,1.58
		c-0.81,0.351-2.195,0.752-4.208,0.752c-3.895,0-6.221-2.457-6.221-6.117s2.248-6.544,5.934-6.544c4.13,0,5.228,3.485,5.228,5.717
		c0,0.451-0.052,0.802-0.079,1.027H177.784z M184.527,513.081c0.026-1.404-0.601-3.585-3.189-3.585
		c-2.326,0-3.346,2.056-3.529,3.585H184.527z"/>
	<path fill="#FFFFFF" d="M189.602,511.477c0-1.254-0.026-2.281-0.104-3.284h2.013l0.104,1.955h0.078
		c0.706-1.153,1.882-2.231,3.973-2.231c1.725,0,3.032,1.003,3.581,2.433h0.052c0.392-0.678,0.889-1.204,1.412-1.58
		c0.758-0.552,1.594-0.853,2.796-0.853c1.673,0,4.156,1.054,4.156,5.266v7.145h-2.248v-6.869c0-2.332-0.889-3.735-2.745-3.735
		c-1.307,0-2.326,0.928-2.718,2.006c-0.104,0.301-0.183,0.701-0.183,1.103v7.496h-2.248v-7.271c0-1.931-0.889-3.334-2.64-3.334
		c-1.438,0-2.483,1.103-2.849,2.206c-0.13,0.326-0.183,0.702-0.183,1.078v7.32h-2.248V511.477z"/>
	<path fill="#FFFFFF" d="M212.688,514.66c0.052,2.983,2.039,4.212,4.339,4.212c1.646,0,2.64-0.275,3.502-0.627l0.392,1.58
		c-0.81,0.351-2.195,0.752-4.208,0.752c-3.895,0-6.221-2.457-6.221-6.117s2.248-6.544,5.934-6.544c4.13,0,5.228,3.485,5.228,5.717
		c0,0.451-0.052,0.802-0.079,1.027H212.688z M219.432,513.081c0.026-1.404-0.601-3.585-3.189-3.585
		c-2.326,0-3.346,2.056-3.529,3.585H219.432z"/>
	<path fill="#FFFFFF" d="M224.506,511.477c0-1.254-0.026-2.281-0.104-3.284h2.039l0.131,2.006h0.052
		c0.627-1.153,2.091-2.282,4.182-2.282c1.751,0,4.47,1.003,4.47,5.165v7.245h-2.3v-6.994c0-1.956-0.758-3.586-2.928-3.586
		c-1.516,0-2.692,1.028-3.084,2.257c-0.104,0.275-0.157,0.651-0.157,1.027v7.296h-2.3V511.477z"/>
	<path fill="#FFFFFF" d="M241.683,504.707v3.485h3.293v1.68h-3.293v6.543c0,1.504,0.444,2.356,1.725,2.356
		c0.601,0,1.045-0.075,1.333-0.15l0.104,1.655c-0.444,0.175-1.15,0.301-2.039,0.301c-1.072,0-1.934-0.326-2.483-0.928
		c-0.653-0.652-0.889-1.73-0.889-3.159v-6.618h-1.96v-1.68h1.96v-2.908L241.683,504.707z"/>
	<path fill="#FFFFFF" d="M45.123,547.755c1.02,0.602,2.509,1.103,4.078,1.103c2.326,0,3.686-1.178,3.686-2.883
		c0-1.579-0.941-2.481-3.32-3.359c-2.875-0.978-4.652-2.406-4.652-4.788c0-2.633,2.274-4.588,5.698-4.588
		c1.803,0,3.11,0.401,3.895,0.827l-0.627,1.78c-0.575-0.301-1.751-0.803-3.346-0.803c-2.405,0-3.32,1.379-3.32,2.532
		c0,1.579,1.072,2.356,3.503,3.259c2.979,1.104,4.496,2.482,4.496,4.964c0,2.607-2.013,4.864-6.168,4.864
		c-1.699,0-3.555-0.477-4.496-1.078L45.123,547.755z"/>
	<path fill="#FFFFFF" d="M60.94,534.793v3.485h3.293v1.68H60.94v6.543c0,1.504,0.444,2.356,1.725,2.356
		c0.601,0,1.045-0.075,1.333-0.15l0.104,1.655c-0.444,0.175-1.15,0.301-2.039,0.301c-1.072,0-1.934-0.326-2.483-0.928
		c-0.653-0.652-0.889-1.73-0.889-3.159v-6.618h-1.96v-1.68h1.96v-2.908L60.94,534.793z"/>
	<path fill="#FFFFFF" d="M73.829,550.412l-0.183-1.529h-0.078c-0.706,0.953-2.065,1.805-3.869,1.805
		c-2.562,0-3.868-1.729-3.868-3.484c0-2.934,2.718-4.538,7.606-4.513v-0.251c0-1.003-0.288-2.808-2.875-2.808
		c-1.176,0-2.405,0.352-3.293,0.902l-0.523-1.454c1.045-0.651,2.562-1.078,4.156-1.078c3.868,0,4.809,2.532,4.809,4.964v4.538
		c0,1.053,0.052,2.081,0.209,2.908H73.829z M73.489,544.22c-2.509-0.05-5.358,0.376-5.358,2.732c0,1.43,0.994,2.106,2.169,2.106
		c1.647,0,2.692-1.003,3.059-2.031c0.078-0.226,0.13-0.476,0.13-0.702V544.22z"/>
	<path fill="#FFFFFF" d="M87.241,550.412v-10.454h-5.306v10.454h-2.274v-10.454h-1.778v-1.68h1.778v-0.401
		c0-1.705,0.418-3.184,1.411-4.137c0.732-0.702,1.777-1.128,3.189-1.128c0.732,0,1.412,0.226,1.804,0.426l-0.471,1.63
		c-0.34-0.15-0.836-0.301-1.359-0.301c-1.804,0-2.3,1.479-2.3,3.385v0.526h5.306v-0.577c0-1.704,0.418-3.259,1.49-4.236
		c0.862-0.803,2.013-1.128,3.058-1.128c0.836,0,1.516,0.175,1.96,0.351l-0.288,1.705c-0.366-0.15-0.81-0.276-1.49-0.276
		c-1.935,0-2.457,1.655-2.457,3.51v0.652h3.058v1.68h-3.032v10.454H87.241z"/>
	<path fill="#FFFFFF" d="M115.136,542.991c-0.131-2.356-0.288-5.189-0.261-7.295h-0.079c-0.601,1.98-1.333,4.086-2.222,6.418
		l-3.11,8.197h-1.725l-2.849-8.047c-0.836-2.382-1.542-4.563-2.039-6.568h-0.052c-0.052,2.105-0.183,4.938-0.34,7.471l-0.47,7.245
		h-2.169l1.229-16.897h2.901l3.006,8.173c0.732,2.081,1.333,3.937,1.777,5.691h0.079c0.444-1.705,1.071-3.561,1.855-5.691
		l3.137-8.173h2.901l1.098,16.897h-2.222L115.136,542.991z"/>
	<path fill="#FFFFFF" d="M128.394,550.412l-0.183-1.529h-0.078c-0.706,0.953-2.065,1.805-3.869,1.805
		c-2.562,0-3.868-1.729-3.868-3.484c0-2.934,2.718-4.538,7.606-4.513v-0.251c0-1.003-0.288-2.808-2.875-2.808
		c-1.176,0-2.405,0.352-3.293,0.902l-0.523-1.454c1.045-0.651,2.562-1.078,4.156-1.078c3.868,0,4.809,2.532,4.809,4.964v4.538
		c0,1.053,0.052,2.081,0.209,2.908H128.394z M128.054,544.22c-2.509-0.05-5.358,0.376-5.358,2.732c0,1.43,0.994,2.106,2.169,2.106
		c1.647,0,2.692-1.003,3.059-2.031c0.078-0.226,0.13-0.476,0.13-0.702V544.22z"/>
	<path fill="#FFFFFF" d="M133.991,541.563c0-1.254-0.026-2.281-0.104-3.284h2.039l0.131,2.006h0.052
		c0.627-1.153,2.091-2.282,4.182-2.282c1.751,0,4.47,1.003,4.47,5.165v7.245h-2.3v-6.994c0-1.956-0.758-3.586-2.928-3.586
		c-1.516,0-2.692,1.028-3.084,2.257c-0.104,0.275-0.157,0.651-0.157,1.027v7.296h-2.3V541.563z"/>
	<path fill="#FFFFFF" d="M155.507,550.412l-0.183-1.529h-0.078c-0.706,0.953-2.065,1.805-3.869,1.805
		c-2.562,0-3.868-1.729-3.868-3.484c0-2.934,2.718-4.538,7.606-4.513v-0.251c0-1.003-0.288-2.808-2.875-2.808
		c-1.176,0-2.405,0.352-3.293,0.902l-0.523-1.454c1.045-0.651,2.562-1.078,4.156-1.078c3.868,0,4.809,2.532,4.809,4.964v4.538
		c0,1.053,0.052,2.081,0.209,2.908H155.507z M155.167,544.22c-2.509-0.05-5.358,0.376-5.358,2.732c0,1.43,0.994,2.106,2.169,2.106
		c1.647,0,2.692-1.003,3.059-2.031c0.078-0.226,0.13-0.476,0.13-0.702V544.22z"/>
	<path fill="#FFFFFF" d="M172.003,538.278c-0.052,0.877-0.104,1.855-0.104,3.334v7.045c0,2.783-0.575,4.487-1.803,5.54
		c-1.229,1.104-3.006,1.454-4.601,1.454c-1.516,0-3.189-0.351-4.208-1.002l0.575-1.68c0.836,0.501,2.144,0.952,3.712,0.952
		c2.352,0,4.077-1.179,4.077-4.236v-1.354h-0.052c-0.706,1.128-2.065,2.031-4.025,2.031c-3.137,0-5.385-2.558-5.385-5.917
		c0-4.111,2.797-6.443,5.698-6.443c2.196,0,3.398,1.104,3.947,2.106h0.052l0.104-1.83H172.003z M169.625,543.066
		c0-0.376-0.026-0.702-0.131-1.003c-0.418-1.278-1.542-2.331-3.215-2.331c-2.196,0-3.764,1.779-3.764,4.588
		c0,2.382,1.255,4.362,3.738,4.362c1.412,0,2.692-0.853,3.189-2.257c0.131-0.376,0.183-0.802,0.183-1.178V543.066z"/>
	<path fill="#FFFFFF" d="M177,544.746c0.052,2.983,2.039,4.212,4.339,4.212c1.646,0,2.64-0.275,3.502-0.627l0.392,1.58
		c-0.81,0.351-2.195,0.752-4.208,0.752c-3.895,0-6.221-2.457-6.221-6.117s2.248-6.544,5.934-6.544c4.13,0,5.228,3.485,5.228,5.717
		c0,0.451-0.052,0.802-0.079,1.027H177z M183.744,543.167c0.026-1.404-0.601-3.585-3.189-3.585c-2.326,0-3.346,2.056-3.529,3.585
		H183.744z"/>
	<path fill="#FFFFFF" d="M188.818,541.563c0-1.254-0.026-2.281-0.104-3.284h2.013l0.104,1.955h0.078
		c0.706-1.153,1.882-2.231,3.973-2.231c1.725,0,3.032,1.003,3.581,2.433h0.052c0.392-0.678,0.889-1.204,1.412-1.58
		c0.758-0.552,1.594-0.853,2.796-0.853c1.673,0,4.156,1.054,4.156,5.266v7.145h-2.248v-6.869c0-2.332-0.889-3.735-2.745-3.735
		c-1.307,0-2.326,0.928-2.718,2.006c-0.104,0.301-0.183,0.701-0.183,1.103v7.496h-2.248v-7.271c0-1.931-0.889-3.334-2.64-3.334
		c-1.438,0-2.483,1.103-2.849,2.206c-0.13,0.326-0.183,0.702-0.183,1.078v7.32h-2.248V541.563z"/>
	<path fill="#FFFFFF" d="M211.905,544.746c0.052,2.983,2.039,4.212,4.339,4.212c1.646,0,2.64-0.275,3.502-0.627l0.392,1.58
		c-0.81,0.351-2.195,0.752-4.208,0.752c-3.895,0-6.221-2.457-6.221-6.117s2.248-6.544,5.934-6.544c4.13,0,5.228,3.485,5.228,5.717
		c0,0.451-0.052,0.802-0.079,1.027H211.905z M218.648,543.167c0.026-1.404-0.601-3.585-3.189-3.585
		c-2.326,0-3.346,2.056-3.529,3.585H218.648z"/>
	<path fill="#FFFFFF" d="M223.723,541.563c0-1.254-0.026-2.281-0.104-3.284h2.039l0.131,2.006h0.052
		c0.627-1.153,2.091-2.282,4.182-2.282c1.751,0,4.47,1.003,4.47,5.165v7.245h-2.3v-6.994c0-1.956-0.758-3.586-2.928-3.586
		c-1.516,0-2.692,1.028-3.084,2.257c-0.104,0.275-0.157,0.651-0.157,1.027v7.296h-2.3V541.563z"/>
	<path fill="#FFFFFF" d="M240.899,534.793v3.485h3.293v1.68h-3.293v6.543c0,1.504,0.444,2.356,1.725,2.356
		c0.601,0,1.045-0.075,1.333-0.15l0.104,1.655c-0.444,0.175-1.15,0.301-2.039,0.301c-1.072,0-1.934-0.326-2.483-0.928
		c-0.653-0.652-0.889-1.73-0.889-3.159v-6.618h-1.96v-1.68h1.96v-2.908L240.899,534.793z"/>
	<path fill="#FFFFFF" d="M45.123,577.842c1.02,0.602,2.509,1.103,4.078,1.103c2.326,0,3.686-1.178,3.686-2.883
		c0-1.579-0.941-2.481-3.32-3.359c-2.875-0.978-4.652-2.406-4.652-4.788c0-2.633,2.274-4.588,5.698-4.588
		c1.803,0,3.11,0.401,3.895,0.827l-0.627,1.78c-0.575-0.301-1.751-0.803-3.346-0.803c-2.405,0-3.32,1.379-3.32,2.532
		c0,1.579,1.072,2.356,3.503,3.259c2.979,1.104,4.496,2.482,4.496,4.964c0,2.607-2.013,4.864-6.168,4.864
		c-1.699,0-3.555-0.477-4.496-1.078L45.123,577.842z"/>
	<path fill="#FFFFFF" d="M73.172,573.078c-0.131-2.356-0.288-5.189-0.261-7.295h-0.079c-0.601,1.98-1.333,4.086-2.222,6.418
		l-3.11,8.197h-1.725l-2.849-8.047c-0.836-2.382-1.542-4.563-2.039-6.568h-0.052c-0.052,2.105-0.183,4.938-0.34,7.471l-0.47,7.245
		h-2.169l1.229-16.897h2.901l3.006,8.173c0.732,2.081,1.333,3.937,1.777,5.691h0.079c0.444-1.705,1.071-3.561,1.855-5.691
		l3.137-8.173h2.901l1.098,16.897h-2.222L73.172,573.078z"/>
	<path fill="#FFFFFF" d="M79.033,577.842c1.02,0.602,2.509,1.103,4.078,1.103c2.326,0,3.686-1.178,3.686-2.883
		c0-1.579-0.941-2.481-3.32-3.359c-2.875-0.978-4.652-2.406-4.652-4.788c0-2.633,2.274-4.588,5.698-4.588
		c1.803,0,3.11,0.401,3.895,0.827l-0.627,1.78c-0.575-0.301-1.751-0.803-3.346-0.803c-2.405,0-3.319,1.379-3.319,2.532
		c0,1.579,1.071,2.356,3.502,3.259c2.979,1.104,4.496,2.482,4.496,4.964c0,2.607-2.013,4.864-6.168,4.864
		c-1.699,0-3.555-0.477-4.496-1.078L79.033,577.842z"/>
</g>
<g>
	<path fill="#FFFFFF" d="M515.085,65.492l-1.858,5.58h-2.39l6.08-17.741h2.787l6.106,17.741h-2.469l-1.912-5.58H515.085z
		 M520.952,63.702l-1.752-5.106c-0.398-1.158-0.664-2.211-0.93-3.237h-0.053c-0.266,1.053-0.558,2.132-0.903,3.211l-1.752,5.132
		H520.952z"/>
	<path fill="#FFFFFF" d="M528.278,62.492c0-1.632-0.054-2.948-0.106-4.159h2.098l0.105,2.185h0.054
		c0.956-1.553,2.469-2.475,4.566-2.475c3.106,0,5.443,2.606,5.443,6.475c0,4.58-2.814,6.844-5.842,6.844
		c-1.699,0-3.186-0.737-3.956-2h-0.053v6.922h-2.31V62.492z M530.588,65.887c0,0.342,0.053,0.658,0.106,0.948
		c0.425,1.605,1.832,2.711,3.505,2.711c2.469,0,3.902-2,3.902-4.922c0-2.553-1.354-4.738-3.823-4.738
		c-1.593,0-3.08,1.132-3.531,2.869c-0.079,0.29-0.159,0.631-0.159,0.947V65.887z"/>
	<path fill="#FFFFFF" d="M555.013,64.597c0,4.711-3.292,6.765-6.398,6.765c-3.479,0-6.16-2.527-6.16-6.554
		c0-4.264,2.814-6.765,6.372-6.765C552.517,58.043,555.013,60.702,555.013,64.597z M544.817,64.729c0,2.79,1.619,4.896,3.902,4.896
		c2.23,0,3.903-2.079,3.903-4.948c0-2.159-1.089-4.896-3.85-4.896C546.012,59.78,544.817,62.307,544.817,64.729z"/>
	<path fill="#FFFFFF" d="M560.56,54.753c0.026,0.79-0.558,1.421-1.486,1.421c-0.823,0-1.407-0.632-1.407-1.421
		c0-0.816,0.61-1.448,1.46-1.448C560.002,53.305,560.56,53.937,560.56,54.753z M557.958,71.072v-12.74h2.336v12.74H557.958z"/>
	<path fill="#FFFFFF" d="M564.17,61.781c0-1.316-0.027-2.395-0.106-3.448h2.071l0.133,2.106h0.053
		c0.637-1.211,2.124-2.396,4.248-2.396c1.778,0,4.54,1.053,4.54,5.422v7.607h-2.337v-7.344c0-2.053-0.77-3.764-2.974-3.764
		c-1.539,0-2.734,1.079-3.133,2.369c-0.105,0.29-0.159,0.685-0.159,1.079v7.66h-2.336V61.781z"/>
	<path fill="#FFFFFF" d="M581.611,54.674v3.659h3.345v1.764h-3.345v6.87c0,1.579,0.451,2.474,1.752,2.474
		c0.61,0,1.062-0.079,1.354-0.158l0.106,1.737c-0.451,0.185-1.168,0.316-2.07,0.316c-1.089,0-1.965-0.342-2.522-0.974
		c-0.664-0.685-0.903-1.816-0.903-3.317v-6.949h-1.991v-1.764h1.991v-3.053L581.611,54.674z"/>
	<path fill="#FFFFFF" d="M587.584,61.781c0-1.316-0.027-2.395-0.106-3.448h2.044l0.106,2.053h0.08
		c0.717-1.211,1.911-2.343,4.035-2.343c1.753,0,3.08,1.053,3.638,2.553h0.053c0.398-0.71,0.903-1.263,1.434-1.658
		c0.771-0.579,1.62-0.895,2.841-0.895c1.699,0,4.222,1.105,4.222,5.528v7.501h-2.283V63.86c0-2.448-0.902-3.922-2.788-3.922
		c-1.327,0-2.362,0.974-2.761,2.105c-0.106,0.316-0.186,0.737-0.186,1.158v7.87h-2.283v-7.633c0-2.027-0.903-3.5-2.682-3.5
		c-1.461,0-2.522,1.158-2.895,2.316c-0.133,0.342-0.186,0.737-0.186,1.132v7.686h-2.283V61.781z"/>
	<path fill="#FFFFFF" d="M611.025,65.124c0.053,3.132,2.07,4.422,4.407,4.422c1.673,0,2.682-0.29,3.558-0.658l0.398,1.658
		c-0.823,0.369-2.23,0.79-4.274,0.79c-3.956,0-6.319-2.58-6.319-6.422s2.283-6.87,6.027-6.87c4.194,0,5.31,3.659,5.31,6.001
		c0,0.474-0.053,0.842-0.079,1.079H611.025z M617.875,63.465c0.026-1.474-0.61-3.764-3.239-3.764c-2.362,0-3.398,2.159-3.584,3.764
		H617.875z"/>
	<path fill="#FFFFFF" d="M623.024,61.781c0-1.316-0.026-2.395-0.106-3.448h2.071l0.132,2.106h0.054
		c0.637-1.211,2.124-2.396,4.248-2.396c1.778,0,4.54,1.053,4.54,5.422v7.607h-2.337v-7.344c0-2.053-0.77-3.764-2.974-3.764
		c-1.539,0-2.734,1.079-3.133,2.369c-0.105,0.29-0.159,0.685-0.159,1.079v7.66h-2.336V61.781z"/>
	<path fill="#FFFFFF" d="M640.466,54.674v3.659h3.345v1.764h-3.345v6.87c0,1.579,0.451,2.474,1.752,2.474
		c0.61,0,1.062-0.079,1.354-0.158l0.105,1.737c-0.451,0.185-1.168,0.316-2.07,0.316c-1.089,0-1.965-0.342-2.522-0.974
		c-0.664-0.685-0.903-1.816-0.903-3.317v-6.949h-1.991v-1.764h1.991v-3.053L640.466,54.674z"/>
	<path fill="#FFFFFF" d="M646.119,68.703c0.69,0.448,1.912,0.921,3.08,0.921c1.699,0,2.496-0.842,2.496-1.895
		c0-1.105-0.664-1.711-2.39-2.343c-2.31-0.816-3.398-2.079-3.398-3.606c0-2.053,1.673-3.738,4.434-3.738
		c1.301,0,2.442,0.369,3.16,0.79l-0.585,1.685c-0.504-0.316-1.434-0.737-2.628-0.737c-1.381,0-2.15,0.79-2.15,1.737
		c0,1.053,0.77,1.527,2.442,2.158c2.23,0.842,3.372,1.948,3.372,3.843c0,2.237-1.753,3.816-4.806,3.816
		c-1.407,0-2.708-0.342-3.611-0.869L646.119,68.703z"/>
	<path fill="#FFFFFF" d="M512.19,85.149c1.009-0.21,2.603-0.368,4.222-0.368c2.31,0,3.797,0.395,4.912,1.29
		c0.929,0.685,1.486,1.737,1.486,3.132c0,1.711-1.142,3.211-3.026,3.896v0.053c1.699,0.421,3.69,1.816,3.69,4.448
		c0,1.527-0.61,2.685-1.514,3.553c-1.248,1.132-3.266,1.658-6.186,1.658c-1.594,0-2.814-0.105-3.585-0.21V85.149z M514.501,92.414
		h2.097c2.443,0,3.877-1.263,3.877-2.974c0-2.08-1.594-2.896-3.93-2.896c-1.063,0-1.673,0.079-2.044,0.158V92.414z M514.501,100.916
		c0.451,0.079,1.114,0.105,1.938,0.105c2.39,0,4.594-0.869,4.594-3.448c0-2.421-2.098-3.422-4.62-3.422h-1.911V100.916z"/>
	<path fill="#FFFFFF" d="M529.102,86.333c0.026,0.79-0.558,1.421-1.486,1.421c-0.823,0-1.407-0.632-1.407-1.421
		c0-0.816,0.61-1.448,1.46-1.448C528.544,84.886,529.102,85.518,529.102,86.333z M526.5,102.653v-12.74h2.336v12.74H526.5z"/>
	<path fill="#FFFFFF" d="M532.712,83.965h2.336v18.688h-2.336V83.965z"/>
	<path fill="#FFFFFF" d="M538.977,83.965h2.336v18.688h-2.336V83.965z"/>
	<path fill="#FFFFFF" d="M544.922,100.284c0.69,0.448,1.912,0.921,3.08,0.921c1.699,0,2.496-0.842,2.496-1.895
		c0-1.105-0.664-1.711-2.39-2.343c-2.31-0.816-3.398-2.079-3.398-3.606c0-2.053,1.673-3.738,4.434-3.738
		c1.301,0,2.442,0.369,3.16,0.79l-0.585,1.685c-0.504-0.316-1.434-0.737-2.628-0.737c-1.381,0-2.15,0.79-2.15,1.737
		c0,1.053,0.77,1.527,2.442,2.158c2.23,0.842,3.372,1.948,3.372,3.843c0,2.237-1.753,3.816-4.806,3.816
		c-1.407,0-2.708-0.342-3.611-0.869L544.922,100.284z"/>
	<path fill="#FFFFFF" d="M524.696,133.654c-0.85,0.421-2.549,0.842-4.727,0.842c-5.044,0-8.841-3.159-8.841-8.976
		c0-5.554,3.797-9.318,9.346-9.318c2.23,0,3.637,0.474,4.248,0.79l-0.558,1.869c-0.876-0.421-2.124-0.737-3.611-0.737
		c-4.194,0-6.982,2.659-6.982,7.317c0,4.343,2.522,7.133,6.877,7.133c1.407,0,2.841-0.29,3.77-0.737L524.696,133.654z"/>
	<path fill="#FFFFFF" d="M534.438,134.233l-0.186-1.605h-0.08c-0.717,1-2.098,1.895-3.93,1.895c-2.602,0-3.929-1.816-3.929-3.659
		c0-3.08,2.761-4.764,7.726-4.738v-0.263c0-1.053-0.292-2.948-2.921-2.948c-1.194,0-2.442,0.369-3.345,0.948l-0.531-1.527
		c1.063-0.684,2.603-1.132,4.222-1.132c3.93,0,4.885,2.659,4.885,5.212v4.764c0,1.105,0.054,2.185,0.213,3.053H534.438z
		 M534.094,127.731c-2.549-0.053-5.443,0.395-5.443,2.869c0,1.5,1.009,2.211,2.204,2.211c1.672,0,2.734-1.053,3.106-2.132
		c0.079-0.237,0.133-0.5,0.133-0.737V127.731z"/>
	<path fill="#FFFFFF" d="M540.118,115.545h2.336v18.688h-2.336V115.545z"/>
	<path fill="#FFFFFF" d="M547.685,128.284c0.053,3.132,2.071,4.422,4.407,4.422c1.673,0,2.682-0.29,3.558-0.658l0.398,1.658
		c-0.823,0.369-2.23,0.79-4.274,0.79c-3.956,0-6.319-2.58-6.319-6.422s2.283-6.87,6.027-6.87c4.194,0,5.31,3.659,5.31,6.001
		c0,0.474-0.053,0.842-0.079,1.079H547.685z M554.534,126.626c0.026-1.474-0.61-3.764-3.239-3.764c-2.362,0-3.398,2.158-3.584,3.764
		H554.534z"/>
	<path fill="#FFFFFF" d="M559.684,124.941c0-1.316-0.027-2.395-0.106-3.448h2.071l0.133,2.106h0.053
		c0.637-1.211,2.124-2.396,4.248-2.396c1.778,0,4.54,1.053,4.54,5.422v7.607h-2.337v-7.344c0-2.053-0.77-3.764-2.974-3.764
		c-1.539,0-2.734,1.079-3.133,2.369c-0.105,0.29-0.159,0.685-0.159,1.079v7.66h-2.336V124.941z"/>
	<path fill="#FFFFFF" d="M585.515,115.545v15.398c0,1.132,0.026,2.421,0.106,3.29h-2.098l-0.106-2.211h-0.053
		c-0.717,1.421-2.283,2.5-4.381,2.5c-3.106,0-5.496-2.606-5.496-6.475c-0.026-4.238,2.629-6.844,5.762-6.844
		c1.965,0,3.292,0.921,3.876,1.948h0.054v-7.606H585.515z M583.179,126.679c0-0.29-0.027-0.685-0.106-0.974
		c-0.346-1.474-1.62-2.685-3.372-2.685c-2.416,0-3.85,2.105-3.85,4.922c0,2.58,1.274,4.712,3.797,4.712c1.566,0,3-1.027,3.425-2.764
		c0.079-0.315,0.106-0.631,0.106-1V126.679z"/>
	<path fill="#FFFFFF" d="M596.505,134.233l-0.186-1.605h-0.08c-0.717,1-2.098,1.895-3.93,1.895c-2.602,0-3.929-1.816-3.929-3.659
		c0-3.08,2.761-4.764,7.726-4.738v-0.263c0-1.053-0.292-2.948-2.921-2.948c-1.194,0-2.442,0.369-3.345,0.948l-0.531-1.527
		c1.063-0.684,2.603-1.132,4.222-1.132c3.93,0,4.885,2.659,4.885,5.212v4.764c0,1.105,0.054,2.185,0.213,3.053H596.505z
		 M596.16,127.731c-2.549-0.053-5.443,0.395-5.443,2.869c0,1.5,1.009,2.211,2.204,2.211c1.672,0,2.734-1.053,3.106-2.132
		c0.079-0.237,0.133-0.5,0.133-0.737V127.731z"/>
	<path fill="#FFFFFF" d="M602.185,125.468c0-1.5-0.026-2.79-0.106-3.975h2.044l0.08,2.5h0.106c0.584-1.71,1.991-2.79,3.558-2.79
		c0.266,0,0.451,0.026,0.663,0.079v2.185c-0.238-0.052-0.478-0.079-0.796-0.079c-1.646,0-2.814,1.237-3.133,2.974
		c-0.054,0.316-0.106,0.685-0.106,1.079v6.791h-2.31V125.468z"/>
	<path fill="#FFFFFF" d="M527.271,158.022c-0.133-2.474-0.292-5.449-0.266-7.66h-0.08c-0.61,2.08-1.354,4.291-2.257,6.738
		l-3.159,8.607h-1.752l-2.895-8.449c-0.85-2.5-1.566-4.79-2.07-6.896h-0.054c-0.053,2.211-0.186,5.186-0.345,7.844l-0.479,7.607
		h-2.203l1.248-17.741h2.947l3.053,8.581c0.743,2.185,1.354,4.132,1.806,5.975h0.079c0.452-1.79,1.089-3.737,1.886-5.975
		l3.186-8.581h2.947l1.115,17.741h-2.257L527.271,158.022z"/>
	<path fill="#FFFFFF" d="M534.915,159.865c0.053,3.132,2.071,4.422,4.407,4.422c1.673,0,2.682-0.29,3.558-0.658l0.398,1.658
		c-0.823,0.369-2.23,0.79-4.274,0.79c-3.956,0-6.319-2.58-6.319-6.422s2.283-6.87,6.027-6.87c4.194,0,5.31,3.659,5.31,6.001
		c0,0.474-0.053,0.842-0.079,1.079H534.915z M541.765,158.207c0.026-1.474-0.61-3.764-3.239-3.764c-2.362,0-3.398,2.159-3.584,3.764
		H541.765z"/>
	<path fill="#FFFFFF" d="M546.595,163.444c0.69,0.448,1.912,0.921,3.08,0.921c1.699,0,2.496-0.842,2.496-1.895
		c0-1.105-0.664-1.711-2.39-2.343c-2.31-0.816-3.398-2.079-3.398-3.606c0-2.053,1.673-3.738,4.434-3.738
		c1.301,0,2.443,0.369,3.16,0.79l-0.585,1.685c-0.504-0.316-1.434-0.737-2.628-0.737c-1.381,0-2.15,0.79-2.15,1.737
		c0,1.053,0.77,1.527,2.442,2.158c2.23,0.842,3.372,1.948,3.372,3.843c0,2.237-1.753,3.816-4.806,3.816
		c-1.407,0-2.708-0.342-3.611-0.869L546.595,163.444z"/>
	<path fill="#FFFFFF" d="M557.107,163.444c0.69,0.448,1.912,0.921,3.08,0.921c1.699,0,2.496-0.842,2.496-1.895
		c0-1.105-0.664-1.711-2.39-2.343c-2.31-0.816-3.398-2.079-3.398-3.606c0-2.053,1.673-3.738,4.434-3.738
		c1.301,0,2.442,0.369,3.16,0.79l-0.585,1.685c-0.504-0.316-1.434-0.737-2.628-0.737c-1.381,0-2.15,0.79-2.15,1.737
		c0,1.053,0.77,1.527,2.442,2.158c2.23,0.842,3.372,1.948,3.372,3.843c0,2.237-1.753,3.816-4.806,3.816
		c-1.407,0-2.708-0.342-3.611-0.869L557.107,163.444z"/>
	<path fill="#FFFFFF" d="M575.055,165.813l-0.186-1.605h-0.08c-0.717,1-2.098,1.895-3.93,1.895c-2.602,0-3.929-1.816-3.929-3.659
		c0-3.08,2.761-4.764,7.726-4.738v-0.263c0-1.053-0.292-2.948-2.92-2.948c-1.195,0-2.443,0.369-3.346,0.948l-0.531-1.527
		c1.063-0.684,2.602-1.132,4.222-1.132c3.93,0,4.885,2.659,4.885,5.212v4.764c0,1.105,0.054,2.185,0.213,3.053H575.055z
		 M574.709,159.312c-2.549-0.053-5.442,0.395-5.442,2.869c0,1.5,1.009,2.211,2.204,2.211c1.672,0,2.734-1.053,3.106-2.132
		c0.079-0.237,0.132-0.5,0.132-0.737V159.312z"/>
	<path fill="#FFFFFF" d="M591.806,153.074c-0.054,0.921-0.106,1.948-0.106,3.501v7.396c0,2.921-0.584,4.711-1.832,5.817
		c-1.248,1.158-3.053,1.526-4.673,1.526c-1.54,0-3.239-0.368-4.274-1.053l0.584-1.764c0.85,0.527,2.178,1,3.771,1
		c2.39,0,4.142-1.237,4.142-4.448v-1.421h-0.053c-0.717,1.185-2.098,2.132-4.089,2.132c-3.187,0-5.47-2.685-5.47-6.212
		c0-4.316,2.841-6.765,5.788-6.765c2.23,0,3.451,1.158,4.009,2.211h0.054l0.105-1.922H591.806z M589.39,158.101
		c0-0.395-0.026-0.737-0.133-1.053c-0.425-1.342-1.566-2.448-3.266-2.448c-2.23,0-3.823,1.869-3.823,4.817
		c0,2.5,1.274,4.58,3.797,4.58c1.434,0,2.734-0.895,3.238-2.369c0.133-0.395,0.187-0.842,0.187-1.237V158.101z"/>
	<path fill="#FFFFFF" d="M596.875,159.865c0.053,3.132,2.07,4.422,4.407,4.422c1.673,0,2.682-0.29,3.558-0.658l0.398,1.658
		c-0.823,0.369-2.23,0.79-4.274,0.79c-3.956,0-6.319-2.58-6.319-6.422s2.283-6.87,6.027-6.87c4.194,0,5.31,3.659,5.31,6.001
		c0,0.474-0.053,0.842-0.079,1.079H596.875z M603.725,158.207c0.026-1.474-0.61-3.764-3.239-3.764c-2.362,0-3.398,2.159-3.584,3.764
		H603.725z"/>
	<path fill="#FFFFFF" d="M512.19,197.394v-17.741h2.522l5.735,8.976c1.327,2.08,2.362,3.948,3.212,5.765l0.054-0.026
		c-0.213-2.369-0.266-4.527-0.266-7.291v-7.423h2.177v17.741h-2.336l-5.682-9.002c-1.248-1.974-2.443-4.001-3.346-5.922l-0.08,0.026
		c0.133,2.237,0.187,4.37,0.187,7.317v7.581H512.19z"/>
	<path fill="#FFFFFF" d="M541.208,190.918c0,4.711-3.292,6.765-6.398,6.765c-3.479,0-6.16-2.527-6.16-6.554
		c0-4.264,2.814-6.765,6.372-6.765C538.712,184.364,541.208,187.023,541.208,190.918z M531.013,191.05
		c0,2.79,1.619,4.896,3.902,4.896c2.23,0,3.903-2.079,3.903-4.948c0-2.159-1.089-4.896-3.85-4.896
		C532.207,186.102,531.013,188.628,531.013,191.05z"/>
	<path fill="#FFFFFF" d="M546.968,180.995v3.659h3.345v1.764h-3.345v6.87c0,1.579,0.451,2.474,1.752,2.474
		c0.61,0,1.062-0.079,1.354-0.158l0.105,1.737c-0.451,0.185-1.168,0.316-2.07,0.316c-1.089,0-1.965-0.342-2.522-0.974
		c-0.664-0.685-0.903-1.816-0.903-3.317v-6.949h-1.991v-1.764h1.991v-3.053L546.968,180.995z"/>
	<path fill="#FFFFFF" d="M555.542,181.074c0.026,0.79-0.558,1.421-1.486,1.421c-0.823,0-1.407-0.632-1.407-1.421
		c0-0.816,0.61-1.448,1.46-1.448C554.984,179.626,555.542,180.258,555.542,181.074z M552.94,197.394v-12.74h2.336v12.74H552.94z"/>
	<path fill="#FFFFFF" d="M559.391,197.394v-10.976h-1.805v-1.764h1.805v-0.684c0-3.369,1.991-5.554,5.603-5.554
		c1.194,0,2.602,0.368,3.266,0.842l-0.664,1.763c-0.558-0.395-1.566-0.737-2.708-0.737c-2.469,0-3.186,1.711-3.186,3.738v0.631h7.46
		v12.74h-2.31v-10.976h-5.15v10.976H559.391z"/>
	<path fill="#FFFFFF" d="M582.195,196.92c-0.61,0.316-1.965,0.737-3.69,0.737c-3.876,0-6.398-2.606-6.398-6.501
		c0-3.922,2.708-6.765,6.903-6.765c1.381,0,2.602,0.342,3.239,0.658l-0.531,1.79c-0.558-0.316-1.434-0.605-2.708-0.605
		c-2.947,0-4.54,2.158-4.54,4.817c0,2.948,1.911,4.764,4.46,4.764c1.328,0,2.204-0.342,2.868-0.632L582.195,196.92z"/>
	<path fill="#FFFFFF" d="M592.045,197.394l-0.186-1.605h-0.08c-0.717,1-2.098,1.895-3.93,1.895c-2.602,0-3.929-1.816-3.929-3.659
		c0-3.08,2.761-4.764,7.726-4.738v-0.263c0-1.053-0.292-2.948-2.92-2.948c-1.195,0-2.443,0.369-3.346,0.948l-0.531-1.527
		c1.063-0.684,2.602-1.132,4.222-1.132c3.93,0,4.885,2.659,4.885,5.212v4.764c0,1.105,0.054,2.185,0.213,3.053H592.045z
		 M591.699,190.892c-2.549-0.053-5.442,0.395-5.442,2.869c0,1.5,1.009,2.211,2.204,2.211c1.672,0,2.734-1.053,3.106-2.132
		c0.079-0.237,0.132-0.5,0.132-0.737V190.892z"/>
	<path fill="#FFFFFF" d="M600.434,180.995v3.659h3.345v1.764h-3.345v6.87c0,1.579,0.451,2.474,1.752,2.474
		c0.61,0,1.062-0.079,1.354-0.158l0.106,1.737c-0.451,0.185-1.168,0.316-2.07,0.316c-1.089,0-1.965-0.342-2.522-0.974
		c-0.664-0.685-0.903-1.816-0.903-3.317v-6.949h-1.991v-1.764h1.991v-3.053L600.434,180.995z"/>
	<path fill="#FFFFFF" d="M609.007,181.074c0.026,0.79-0.558,1.421-1.486,1.421c-0.823,0-1.407-0.632-1.407-1.421
		c0-0.816,0.61-1.448,1.46-1.448C608.449,179.626,609.007,180.258,609.007,181.074z M606.405,197.394v-12.74h2.336v12.74H606.405z"
		/>
	<path fill="#FFFFFF" d="M624.246,190.918c0,4.711-3.292,6.765-6.398,6.765c-3.479,0-6.16-2.527-6.16-6.554
		c0-4.264,2.814-6.765,6.372-6.765C621.75,184.364,624.246,187.023,624.246,190.918z M614.051,191.05
		c0,2.79,1.619,4.896,3.902,4.896c2.23,0,3.903-2.079,3.903-4.948c0-2.159-1.089-4.896-3.85-4.896
		C615.245,186.102,614.051,188.628,614.051,191.05z"/>
	<path fill="#FFFFFF" d="M627.191,188.102c0-1.316-0.027-2.395-0.106-3.448h2.071l0.133,2.106h0.053
		c0.637-1.211,2.124-2.396,4.248-2.396c1.778,0,4.54,1.053,4.54,5.422v7.607h-2.337v-7.344c0-2.053-0.77-3.764-2.974-3.764
		c-1.539,0-2.734,1.079-3.133,2.369c-0.105,0.29-0.159,0.685-0.159,1.079v7.66h-2.336V188.102z"/>
	<path fill="#FFFFFF" d="M512.19,211.444c1.115-0.184,2.575-0.342,4.435-0.342c2.283,0,3.955,0.526,5.018,1.474
		c0.982,0.842,1.566,2.132,1.566,3.711c0,1.605-0.478,2.869-1.381,3.791c-1.221,1.29-3.212,1.948-5.469,1.948
		c-0.69,0-1.328-0.026-1.858-0.158v7.107h-2.311V211.444z M514.501,219.999c0.504,0.131,1.142,0.184,1.911,0.184
		c2.788,0,4.487-1.342,4.487-3.79c0-2.343-1.673-3.475-4.222-3.475c-1.009,0-1.779,0.079-2.177,0.185V219.999z"/>
	<path fill="#FFFFFF" d="M532.66,228.974l-0.186-1.605h-0.08c-0.717,1-2.098,1.895-3.93,1.895c-2.602,0-3.929-1.816-3.929-3.659
		c0-3.08,2.761-4.764,7.726-4.738v-0.263c0-1.053-0.292-2.948-2.92-2.948c-1.195,0-2.443,0.369-3.346,0.948l-0.531-1.527
		c1.063-0.684,2.602-1.132,4.222-1.132c3.93,0,4.885,2.659,4.885,5.212v4.764c0,1.105,0.054,2.185,0.213,3.053H532.66z
		 M532.314,222.473c-2.549-0.053-5.442,0.395-5.442,2.869c0,1.5,1.009,2.211,2.204,2.211c1.672,0,2.734-1.053,3.106-2.132
		c0.079-0.237,0.132-0.5,0.132-0.737V222.473z"/>
	<path fill="#FFFFFF" d="M547.499,228.5c-0.61,0.316-1.964,0.737-3.69,0.737c-3.876,0-6.398-2.606-6.398-6.501
		c0-3.922,2.708-6.765,6.903-6.765c1.381,0,2.602,0.342,3.239,0.658l-0.531,1.79c-0.558-0.316-1.434-0.605-2.708-0.605
		c-2.947,0-4.54,2.158-4.54,4.817c0,2.948,1.911,4.764,4.46,4.764c1.328,0,2.204-0.342,2.868-0.632L547.499,228.5z"/>
	<path fill="#FFFFFF" d="M552.543,222.078h0.053c0.319-0.448,0.771-1,1.142-1.448l3.771-4.396h2.814l-4.965,5.238l5.655,7.501
		h-2.841l-4.435-6.106l-1.194,1.316v4.791h-2.31v-18.688h2.31V222.078z"/>
	<path fill="#FFFFFF" d="M570.276,228.974l-0.186-1.605h-0.08c-0.717,1-2.098,1.895-3.93,1.895c-2.602,0-3.929-1.816-3.929-3.659
		c0-3.08,2.761-4.764,7.726-4.738v-0.263c0-1.053-0.292-2.948-2.921-2.948c-1.194,0-2.442,0.369-3.345,0.948l-0.531-1.527
		c1.063-0.684,2.603-1.132,4.222-1.132c3.93,0,4.885,2.659,4.885,5.212v4.764c0,1.105,0.054,2.185,0.213,3.053H570.276z
		 M569.932,222.473c-2.549-0.053-5.443,0.395-5.443,2.869c0,1.5,1.009,2.211,2.204,2.211c1.672,0,2.734-1.053,3.106-2.132
		c0.079-0.237,0.133-0.5,0.133-0.737V222.473z"/>
	<path fill="#FFFFFF" d="M587.028,216.234c-0.054,0.921-0.106,1.948-0.106,3.501v7.396c0,2.921-0.584,4.711-1.832,5.817
		c-1.248,1.158-3.053,1.526-4.673,1.526c-1.54,0-3.239-0.368-4.274-1.053l0.584-1.764c0.85,0.527,2.178,1,3.771,1
		c2.39,0,4.142-1.237,4.142-4.448v-1.421h-0.053c-0.717,1.185-2.098,2.132-4.089,2.132c-3.187,0-5.47-2.685-5.47-6.212
		c0-4.316,2.841-6.765,5.788-6.765c2.23,0,3.451,1.158,4.009,2.211h0.054l0.105-1.922H587.028z M584.612,221.262
		c0-0.395-0.026-0.737-0.133-1.053c-0.425-1.342-1.566-2.448-3.266-2.448c-2.23,0-3.823,1.869-3.823,4.817
		c0,2.5,1.274,4.58,3.797,4.58c1.434,0,2.734-0.895,3.238-2.369c0.133-0.395,0.187-0.842,0.187-1.237V221.262z"/>
	<path fill="#FFFFFF" d="M592.097,223.025c0.053,3.132,2.071,4.422,4.407,4.422c1.673,0,2.682-0.29,3.558-0.658l0.398,1.658
		c-0.823,0.369-2.23,0.79-4.274,0.79c-3.956,0-6.319-2.58-6.319-6.422s2.283-6.87,6.027-6.87c4.194,0,5.31,3.659,5.31,6.001
		c0,0.474-0.053,0.842-0.079,1.079H592.097z M598.946,221.367c0.026-1.474-0.61-3.764-3.239-3.764c-2.362,0-3.398,2.158-3.584,3.764
		H598.946z"/>
	<path fill="#FFFFFF" d="M512.19,243.024c1.115-0.184,2.575-0.342,4.435-0.342c2.283,0,3.955,0.526,5.018,1.474
		c0.982,0.842,1.566,2.132,1.566,3.711c0,1.605-0.478,2.869-1.381,3.791c-1.221,1.29-3.212,1.948-5.469,1.948
		c-0.69,0-1.328-0.026-1.858-0.158v7.107h-2.311V243.024z M514.501,251.579c0.504,0.131,1.142,0.184,1.911,0.184
		c2.788,0,4.487-1.342,4.487-3.79c0-2.343-1.673-3.475-4.222-3.475c-1.009,0-1.779,0.079-2.177,0.185V251.579z"/>
	<path fill="#FFFFFF" d="M526.102,241.866h2.336v7.949h0.054c0.371-0.658,0.955-1.237,1.672-1.632
		c0.69-0.395,1.514-0.658,2.39-0.658c1.726,0,4.487,1.053,4.487,5.449v7.581h-2.337v-7.317c0-2.053-0.77-3.79-2.974-3.79
		c-1.513,0-2.708,1.053-3.133,2.316c-0.133,0.316-0.159,0.658-0.159,1.105v7.686h-2.336V241.866z"/>
	<path fill="#FFFFFF" d="M552.464,254.079c0,4.711-3.292,6.765-6.398,6.765c-3.479,0-6.16-2.527-6.16-6.554
		c0-4.264,2.814-6.765,6.372-6.765C549.968,247.525,552.464,250.184,552.464,254.079z M542.269,254.211
		c0,2.79,1.619,4.896,3.902,4.896c2.23,0,3.903-2.079,3.903-4.948c0-2.159-1.089-4.896-3.85-4.896
		C543.463,249.262,542.269,251.789,542.269,254.211z"/>
	<path fill="#FFFFFF" d="M555.409,251.263c0-1.316-0.026-2.395-0.106-3.448h2.071l0.132,2.106h0.054
		c0.637-1.211,2.124-2.396,4.248-2.396c1.778,0,4.54,1.053,4.54,5.422v7.607h-2.337v-7.344c0-2.053-0.77-3.764-2.974-3.764
		c-1.539,0-2.734,1.079-3.133,2.369c-0.105,0.29-0.159,0.685-0.159,1.079v7.66h-2.336V251.263z"/>
	<path fill="#FFFFFF" d="M571.444,254.605c0.053,3.132,2.071,4.422,4.407,4.422c1.673,0,2.682-0.29,3.558-0.658l0.398,1.658
		c-0.823,0.369-2.23,0.79-4.274,0.79c-3.956,0-6.319-2.58-6.319-6.422s2.283-6.87,6.027-6.87c4.194,0,5.31,3.659,5.31,6.001
		c0,0.474-0.053,0.842-0.079,1.079H571.444z M578.294,252.947c0.026-1.474-0.61-3.764-3.239-3.764c-2.362,0-3.398,2.158-3.584,3.764
		H578.294z"/>
	<path fill="#FFFFFF" d="M592.044,254.974l-1.858,5.58h-2.39l6.08-17.741h2.787l6.106,17.741h-2.469l-1.912-5.58H592.044z
		 M597.911,253.184l-1.752-5.106c-0.398-1.158-0.664-2.211-0.93-3.237h-0.053c-0.266,1.053-0.558,2.132-0.903,3.211l-1.752,5.132
		H597.911z"/>
	<path fill="#FFFFFF" d="M615.752,257.08c0,1.316,0.026,2.475,0.105,3.475h-2.07l-0.133-2.08h-0.054
		c-0.61,1.027-1.964,2.369-4.248,2.369c-2.018,0-4.434-1.105-4.434-5.58v-7.449h2.337v7.054c0,2.422,0.743,4.054,2.867,4.054
		c1.566,0,2.655-1.079,3.08-2.106c0.133-0.342,0.212-0.763,0.212-1.184v-7.818h2.337V257.08z"/>
	<path fill="#FFFFFF" d="M622.441,244.156v3.659h3.345v1.764h-3.345v6.87c0,1.579,0.451,2.474,1.752,2.474
		c0.61,0,1.062-0.079,1.354-0.158l0.106,1.737c-0.451,0.185-1.168,0.316-2.07,0.316c-1.089,0-1.965-0.342-2.522-0.974
		c-0.664-0.685-0.903-1.816-0.903-3.317v-6.949h-1.991v-1.764h1.991v-3.053L622.441,244.156z"/>
	<path fill="#FFFFFF" d="M628.413,241.866h2.336v7.949h0.054c0.371-0.658,0.955-1.237,1.672-1.632
		c0.69-0.395,1.514-0.658,2.39-0.658c1.726,0,4.487,1.053,4.487,5.449v7.581h-2.337v-7.317c0-2.053-0.77-3.79-2.974-3.79
		c-1.513,0-2.708,1.053-3.133,2.316c-0.133,0.316-0.159,0.658-0.159,1.105v7.686h-2.336V241.866z"/>
	<path fill="#FFFFFF" d="M644.448,254.605c0.053,3.132,2.071,4.422,4.407,4.422c1.673,0,2.682-0.29,3.558-0.658l0.398,1.658
		c-0.823,0.369-2.23,0.79-4.274,0.79c-3.956,0-6.319-2.58-6.319-6.422s2.283-6.87,6.027-6.87c4.194,0,5.31,3.659,5.31,6.001
		c0,0.474-0.053,0.842-0.079,1.079H644.448z M651.298,252.947c0.026-1.474-0.61-3.764-3.239-3.764c-2.362,0-3.398,2.158-3.584,3.764
		H651.298z"/>
	<path fill="#FFFFFF" d="M656.447,251.263c0-1.316-0.027-2.395-0.106-3.448h2.071l0.133,2.106h0.053
		c0.637-1.211,2.124-2.396,4.248-2.396c1.778,0,4.54,1.053,4.54,5.422v7.607h-2.337v-7.344c0-2.053-0.77-3.764-2.974-3.764
		c-1.539,0-2.734,1.079-3.133,2.369c-0.105,0.29-0.159,0.685-0.159,1.079v7.66h-2.336V251.263z"/>
	<path fill="#FFFFFF" d="M673.889,244.156v3.659h3.345v1.764h-3.345v6.87c0,1.579,0.451,2.474,1.752,2.474
		c0.61,0,1.062-0.079,1.354-0.158l0.106,1.737c-0.451,0.185-1.168,0.316-2.07,0.316c-1.089,0-1.965-0.342-2.522-0.974
		c-0.664-0.685-0.903-1.816-0.903-3.317v-6.949h-1.991v-1.764h1.991v-3.053L673.889,244.156z"/>
	<path fill="#FFFFFF" d="M682.463,244.235c0.026,0.79-0.558,1.421-1.486,1.421c-0.823,0-1.407-0.632-1.407-1.421
		c0-0.816,0.61-1.448,1.46-1.448C681.905,242.787,682.463,243.419,682.463,244.235z M679.861,260.554v-12.74h2.336v12.74H679.861z"
		/>
	<path fill="#FFFFFF" d="M695.232,260.081c-0.61,0.316-1.965,0.737-3.69,0.737c-3.876,0-6.398-2.606-6.398-6.501
		c0-3.922,2.708-6.765,6.903-6.765c1.381,0,2.602,0.342,3.239,0.658l-0.531,1.79c-0.558-0.316-1.434-0.605-2.708-0.605
		c-2.947,0-4.54,2.158-4.54,4.817c0,2.948,1.911,4.764,4.46,4.764c1.328,0,2.204-0.342,2.868-0.632L695.232,260.081z"/>
	<path fill="#FFFFFF" d="M705.081,260.554l-0.186-1.605h-0.08c-0.717,1-2.098,1.895-3.93,1.895c-2.602,0-3.929-1.816-3.929-3.659
		c0-3.08,2.761-4.764,7.726-4.738v-0.263c0-1.053-0.292-2.948-2.921-2.948c-1.194,0-2.442,0.369-3.345,0.948l-0.531-1.527
		c1.063-0.684,2.603-1.132,4.222-1.132c3.93,0,4.885,2.659,4.885,5.212v4.764c0,1.105,0.054,2.185,0.213,3.053H705.081z
		 M704.736,254.053c-2.549-0.053-5.443,0.395-5.443,2.869c0,1.5,1.009,2.211,2.204,2.211c1.672,0,2.734-1.053,3.106-2.132
		c0.079-0.237,0.133-0.5,0.133-0.737V254.053z"/>
	<path fill="#FFFFFF" d="M713.47,244.156v3.659h3.345v1.764h-3.345v6.87c0,1.579,0.451,2.474,1.752,2.474
		c0.61,0,1.062-0.079,1.354-0.158l0.105,1.737c-0.451,0.185-1.168,0.316-2.07,0.316c-1.089,0-1.965-0.342-2.522-0.974
		c-0.664-0.685-0.903-1.816-0.903-3.317v-6.949h-1.991v-1.764h1.991v-3.053L713.47,244.156z"/>
	<path fill="#FFFFFF" d="M722.044,244.235c0.026,0.79-0.558,1.421-1.486,1.421c-0.823,0-1.407-0.632-1.407-1.421
		c0-0.816,0.61-1.448,1.46-1.448C721.486,242.787,722.044,243.419,722.044,244.235z M719.442,260.554v-12.74h2.336v12.74H719.442z"
		/>
	<path fill="#FFFFFF" d="M737.283,254.079c0,4.711-3.292,6.765-6.398,6.765c-3.479,0-6.16-2.527-6.16-6.554
		c0-4.264,2.814-6.765,6.372-6.765C734.787,247.525,737.283,250.184,737.283,254.079z M727.088,254.211
		c0,2.79,1.619,4.896,3.902,4.896c2.23,0,3.903-2.079,3.903-4.948c0-2.159-1.089-4.896-3.85-4.896
		C728.282,249.262,727.088,251.789,727.088,254.211z"/>
	<path fill="#FFFFFF" d="M740.229,251.263c0-1.316-0.027-2.395-0.106-3.448h2.071l0.133,2.106h0.053
		c0.637-1.211,2.124-2.396,4.248-2.396c1.778,0,4.54,1.053,4.54,5.422v7.607h-2.337v-7.344c0-2.053-0.77-3.764-2.974-3.764
		c-1.539,0-2.734,1.079-3.133,2.369c-0.105,0.29-0.159,0.685-0.159,1.079v7.66h-2.336V251.263z"/>
	<path fill="#FFFFFF" d="M512.19,274.604c1.115-0.184,2.575-0.342,4.435-0.342c2.283,0,3.955,0.526,5.018,1.474
		c0.982,0.842,1.566,2.132,1.566,3.711c0,1.605-0.478,2.869-1.381,3.791c-1.221,1.29-3.212,1.948-5.469,1.948
		c-0.69,0-1.328-0.026-1.858-0.158v7.107h-2.311V274.604z M514.501,283.159c0.504,0.132,1.142,0.184,1.911,0.184
		c2.788,0,4.487-1.342,4.487-3.79c0-2.343-1.673-3.475-4.222-3.475c-1.009,0-1.779,0.079-2.177,0.185V283.159z"/>
	<path fill="#FFFFFF" d="M525.81,283.37c0-1.5-0.026-2.79-0.106-3.975h2.044l0.08,2.5h0.106c0.584-1.71,1.991-2.79,3.558-2.79
		c0.266,0,0.451,0.026,0.663,0.079v2.185c-0.238-0.052-0.478-0.079-0.796-0.079c-1.646,0-2.814,1.237-3.133,2.974
		c-0.054,0.316-0.106,0.685-0.106,1.079v6.791h-2.31V283.37z"/>
	<path fill="#FFFFFF" d="M545.854,285.66c0,4.711-3.292,6.765-6.398,6.765c-3.479,0-6.16-2.527-6.16-6.554
		c0-4.264,2.814-6.765,6.372-6.765C543.358,279.105,545.854,281.764,545.854,285.66z M535.659,285.792
		c0,2.79,1.619,4.896,3.902,4.896c2.23,0,3.903-2.079,3.903-4.948c0-2.159-1.089-4.896-3.85-4.896
		C536.854,280.843,535.659,283.37,535.659,285.792z"/>
	<path fill="#FFFFFF" d="M549.038,292.135v-10.976h-1.805v-1.764h1.805v-0.684c0-3.369,1.991-5.554,5.603-5.554
		c1.194,0,2.602,0.368,3.266,0.842l-0.664,1.763c-0.558-0.395-1.566-0.737-2.708-0.737c-2.469,0-3.186,1.711-3.186,3.738v0.631h7.46
		v12.74h-2.31v-10.976h-5.15v10.976H549.038z"/>
	<path fill="#FFFFFF" d="M562.684,273.447h2.336v18.688h-2.336V273.447z"/>
	<path fill="#FFFFFF" d="M570.249,286.186c0.053,3.132,2.071,4.422,4.407,4.422c1.673,0,2.682-0.29,3.558-0.658l0.398,1.658
		c-0.823,0.369-2.23,0.79-4.274,0.79c-3.956,0-6.319-2.58-6.319-6.422s2.283-6.87,6.027-6.87c4.194,0,5.31,3.659,5.31,6.001
		c0,0.474-0.053,0.842-0.079,1.079H570.249z M577.099,284.528c0.026-1.474-0.61-3.764-3.239-3.764c-2.362,0-3.398,2.159-3.584,3.764
		H577.099z"/>
</g>
<g>
	<path fill="#FFFFFF" d="M218.882,37.69l-3.329,11.882h-4.28l10.892-37.775h4.993l10.939,37.775h-4.423l-3.425-11.882H218.882z
		 M229.393,33.879l-3.139-10.873c-0.713-2.466-1.189-4.708-1.665-6.894h-0.095c-0.476,2.242-0.999,4.54-1.617,6.837l-3.139,10.929
		H229.393z"/>
	<path fill="#FFFFFF" d="M242.806,12.302c2.521-0.448,5.518-0.784,8.8-0.784c5.944,0,10.178,1.625,12.983,4.708
		c2.854,3.083,4.519,7.454,4.519,13.563c0,6.165-1.617,11.209-4.613,14.684c-2.996,3.531-7.942,5.437-14.173,5.437
		c-2.949,0-5.423-0.168-7.516-0.449V12.302z M246.944,45.705c1.046,0.224,2.568,0.28,4.185,0.28c8.847,0,13.65-5.829,13.65-16.029
		c0.048-8.912-4.232-14.572-12.984-14.572c-2.14,0-3.757,0.225-4.851,0.504V45.705z"/>
	<path fill="#FFFFFF" d="M301.498,32.983c-0.238-5.269-0.523-11.602-0.476-16.31h-0.143c-1.094,4.428-2.426,9.136-4.043,14.348
		l-5.66,18.327h-3.139l-5.185-17.991c-1.521-5.324-2.806-10.2-3.71-14.684h-0.095c-0.095,4.708-0.333,11.041-0.618,16.702
		l-0.856,16.197h-3.947l2.235-37.775h5.279l5.47,18.271c1.331,4.652,2.426,8.799,3.234,12.722h0.143
		c0.809-3.811,1.949-7.958,3.377-12.722l5.707-18.271h5.279l1.998,37.775h-4.043L301.498,32.983z"/>
	<path fill="#FFFFFF" d="M316.861,11.797v37.775h-4.139V11.797H316.861z"/>
	<path fill="#FFFFFF" d="M324.09,49.572V11.797h4.519l10.273,19.112c2.378,4.428,4.233,8.407,5.755,12.274l0.096-0.056
		c-0.381-5.044-0.476-9.64-0.476-15.524V11.797h3.899v37.775h-4.186l-10.178-19.167c-2.235-4.204-4.376-8.519-5.993-12.61
		l-0.143,0.056c0.238,4.764,0.333,9.304,0.333,15.581v16.141H324.09z"/>
</g>
<g>
	<path fill="#FFFFFF" d="M681.319,46.735c-1.522,0.896-4.566,1.793-8.467,1.793c-9.036,0-15.838-6.726-15.838-19.112
		c0-11.825,6.802-19.84,16.742-19.84c3.995,0,6.516,1.009,7.609,1.681l-0.998,3.979c-1.57-0.897-3.806-1.569-6.469-1.569
		c-7.515,0-12.509,5.661-12.509,15.581c0,9.248,4.519,15.188,12.318,15.188c2.521,0,5.089-0.617,6.754-1.569L681.319,46.735z"/>
	<path fill="#FFFFFF" d="M686.503,10.193h4.139v33.684h13.697v4.091h-17.836V10.193z"/>
	<path fill="#FFFFFF" d="M713.091,10.193v37.775h-4.139V10.193H713.091z"/>
	<path fill="#FFFFFF" d="M736.919,30.257h-12.461v13.619h13.888v4.091h-18.026V10.193h17.313v4.091h-13.174v11.938h12.461V30.257z"
		/>
	<path fill="#FFFFFF" d="M743.721,47.968V10.193h4.519l10.273,19.112c2.378,4.428,4.233,8.407,5.755,12.274l0.096-0.056
		c-0.381-5.044-0.476-9.64-0.476-15.524V10.193h3.899v37.775h-4.186L753.424,28.8c-2.235-4.204-4.376-8.519-5.993-12.61
		l-0.143,0.056c0.238,4.764,0.333,9.304,0.333,15.581v16.141H743.721z"/>
	<path fill="#FFFFFF" d="M781.104,14.34h-9.75v-4.147h23.733v4.147h-9.798v33.627h-4.186V14.34z"/>
</g>
<g>
</g>
<polygon fill="#5C1944" points="441.552,300 441.552,291.01 383.852,291.01 383.852,277.24 441.552,277.24 441.552,268.25 
	462.521,284.73 "/>
<polygon fill="#E97E3C" points="404.821,337.623 404.821,328.633 462.521,328.633 462.521,314.863 404.821,314.863 404.821,305.873 
	383.852,322.354 "/>
<g>
</g>
<g>
</g>
<g>
</g>
<g>
</g>
<g>
</g>
<g>
</g>
</svg>
