<?xml version="1.0" encoding="utf-8"?>
<!-- Generator: Adobe Illustrator 16.0.0, SVG Export Plug-In . SVG Version: 6.00 Build 0)  -->
<!DOCTYPE svg PUBLIC "-//W3C//DTD SVG 1.1//EN" "http://www.w3.org/Graphics/SVG/1.1/DTD/svg11.dtd">
<svg version="1.1" id="Layer_1" xmlns="http://www.w3.org/2000/svg" xmlns:xlink="http://www.w3.org/1999/xlink" x="0px" y="0px"
	 width="32px" height="32px" viewBox="0 0 32 32" enable-background="new 0 0 32 32" xml:space="preserve">
<path fill="#852761" d="M7.293,28.758c0,1.395-1.52,2.525-3.396,2.525l0,0c-1.875,0-3.396-1.131-3.396-2.525V9.926
	c0-1.395,1.521-2.525,3.396-2.525l0,0c1.875,0,3.396,1.13,3.396,2.525V28.758z"/>
<path fill="#852761" d="M1.88,11.985c-0.971-0.447-0.955-1.771,0.034-2.957l0,0c0.989-1.184,2.577-1.782,3.547-1.334l13.1,6.047
	c0.971,0.448,0.955,1.772-0.035,2.956l0,0c-0.988,1.187-2.577,1.781-3.546,1.334L1.88,11.985z"/>
<path fill="#E97E3F" d="M24.491,28.758c0,1.395,1.521,2.525,3.396,2.525l0,0c1.875,0,3.396-1.131,3.396-2.525V9.926
	c0-1.394-1.521-2.525-3.396-2.525l0,0c-1.874,0-3.396,1.131-3.396,2.525V28.758z"/>
<path fill="#E97E3F" d="M29.904,11.985c0.97-0.448,0.956-1.771-0.035-2.957l0,0c-0.988-1.184-2.577-1.782-3.548-1.334l-13.099,6.047
	c-0.97,0.448-0.955,1.772,0.035,2.958l0,0c0.989,1.185,2.577,1.78,3.547,1.334L29.904,11.985z"/>
<path opacity="0.5" fill="#421533" d="M18.526,16.712c0.99-1.186,1.006-2.511,0.035-2.957l-2.669-1.233l-2.669,1.233
	c-0.97,0.447-0.956,1.771,0.035,2.957c0.716,0.859,1.749,1.402,2.633,1.468C16.774,18.117,17.809,17.572,18.526,16.712z"/>
<ellipse fill="#E97E3F" cx="27.887" cy="3.531" rx="3.493" ry="2.597"/>
<ellipse fill="#852761" cx="3.897" cy="3.531" rx="3.493" ry="2.597"/>
</svg>
